STARTFONT 2.1
COMMENT 
COMMENT Ayu 18dots Gothic Version 1.3 (Mar.5,2004).
COMMENT 
COMMENT Many glyphs are based on Kappa 20 dots fonts created by 
COMMENT KANOU Hiroki(kanou@khdd.net).
COMMENT 
COMMENT For more information, see http://x-tt.sourceforge.jp/ayu.html.
COMMENT 
COMMENT THIS FONT IS PUBLIC DOMAIN: YOU CAN USE, COPY, MODIFY, EVEN COPYRIGHT
COMMENT AS YOURS AND SELL THIS FONT, BUT YOU CAN'T PROHIBIT ANYONE FROM FREE
COMMENT CIRCULATION OF THIS FONT AND ITS DESCENDANTS INDEPENDENT OF YOUR
COMMENT VARIATIONS AND/OR DERIVATIONS.
COMMENT 
FONT -Ayu-Gothic-Medium-R-Normal--18-170-75-75-C-180-JISX0208.1990-0
SIZE 17 75 75
FONTBOUNDINGBOX 18 18 0 -3
STARTPROPERTIES 19
FONT_ASCENT 15
FONT_DESCENT 3
COPYRIGHT "public domain"
DEFAULT_CHAR 8481
FONTNAME_REGISTRY ""
FOUNDRY "Ayu"
FAMILY_NAME "Gothic"
WEIGHT_NAME "Medium"
SLANT "R"
SETWIDTH_NAME "Normal"
ADD_STYLE_NAME ""
PIXEL_SIZE 18
POINT_SIZE 170
RESOLUTION_X 75
RESOLUTION_Y 75
SPACING "C"
AVERAGE_WIDTH 180
CHARSET_REGISTRY "JISX0208.1990"
CHARSET_ENCODING "0"
ENDPROPERTIES
CHARS 6963
STARTCHAR 01-01
ENCODING 8481
SWIDTH 960 0
DWIDTH 18 0
BBX 18 18 0 -3
BITMAP
000000
000000
000000
000000
000000
000000
000000
000000
000000
000000
000000
000000
000000
000000
000000
000000
000000
000000
ENDCHAR
STARTCHAR 01-02
ENCODING 8482
SWIDTH 960 0
DWIDTH 18 0
BBX 18 18 0 -3
BITMAP
000000
000000
000000
000000
000000
000000
000000
000000
000000
000000
000000
000000
200000
100000
080000
040000
000000
000000
ENDCHAR
STARTCHAR 01-03
ENCODING 8483
SWIDTH 960 0
DWIDTH 18 0
BBX 18 18 0 -3
BITMAP
000000
000000
000000
000000
000000
000000
000000
000000
000000
000000
000000
000000
380000
440000
440000
440000
380000
000000
ENDCHAR
STARTCHAR 01-04
ENCODING 8484
SWIDTH 960 0
DWIDTH 18 0
BBX 18 18 0 -3
BITMAP
000000
000000
000000
000000
000000
000000
000000
000000
000000
000000
000000
000000
000000
180000
180000
080000
100000
000000
ENDCHAR
STARTCHAR 01-05
ENCODING 8485
SWIDTH 960 0
DWIDTH 18 0
BBX 18 18 0 -3
BITMAP
000000
000000
000000
000000
000000
000000
000000
000000
000000
000000
000000
000000
000000
180000
180000
180000
000000
000000
ENDCHAR
STARTCHAR 01-06
ENCODING 8486
SWIDTH 960 0
DWIDTH 18 0
BBX 18 18 0 -3
BITMAP
000000
000000
000000
000000
000000
000000
000000
00c000
00c000
00c000
000000
000000
000000
000000
000000
000000
000000
000000
ENDCHAR
STARTCHAR 01-07
ENCODING 8487
SWIDTH 960 0
DWIDTH 18 0
BBX 18 18 0 -3
BITMAP
000000
000000
000000
000000
000000
00c000
00c000
00c000
000000
000000
000000
00c000
00c000
00c000
000000
000000
000000
000000
ENDCHAR
STARTCHAR 01-08
ENCODING 8488
SWIDTH 960 0
DWIDTH 18 0
BBX 18 18 0 -3
BITMAP
000000
000000
000000
000000
000000
00c000
00c000
00c000
000000
000000
000000
00c000
00c000
004000
004000
008000
000000
000000
ENDCHAR
STARTCHAR 01-09
ENCODING 8489
SWIDTH 960 0
DWIDTH 18 0
BBX 18 18 0 -3
BITMAP
000000
01e000
021000
040800
040800
001000
002000
004000
008000
008000
008000
000000
000000
008000
01c000
008000
000000
000000
ENDCHAR
STARTCHAR 01-10
ENCODING 8490
SWIDTH 960 0
DWIDTH 18 0
BBX 18 18 0 -3
BITMAP
000000
008000
008000
008000
008000
008000
008000
008000
008000
008000
008000
000000
000000
008000
01c000
008000
000000
000000
ENDCHAR
STARTCHAR 01-11
ENCODING 8491
SWIDTH 960 0
DWIDTH 18 0
BBX 18 18 0 -3
BITMAP
000000
180000
040000
600000
100000
000000
000000
000000
000000
000000
000000
000000
000000
000000
000000
000000
000000
000000
ENDCHAR
STARTCHAR 01-12
ENCODING 8492
SWIDTH 960 0
DWIDTH 18 0
BBX 18 18 0 -3
BITMAP
000000
300000
480000
480000
300000
000000
000000
000000
000000
000000
000000
000000
000000
000000
000000
000000
000000
000000
ENDCHAR
STARTCHAR 01-13
ENCODING 8493
SWIDTH 960 0
DWIDTH 18 0
BBX 18 18 0 -3
BITMAP
000000
004000
008000
010000
000000
000000
000000
000000
000000
000000
000000
000000
000000
000000
000000
000000
000000
000000
ENDCHAR
STARTCHAR 01-14
ENCODING 8494
SWIDTH 960 0
DWIDTH 18 0
BBX 18 18 0 -3
BITMAP
000000
008000
004000
002000
000000
000000
000000
000000
000000
000000
000000
000000
000000
000000
000000
000000
000000
000000
ENDCHAR
STARTCHAR 01-15
ENCODING 8495
SWIDTH 960 0
DWIDTH 18 0
BBX 18 18 0 -3
BITMAP
000000
033000
033000
000000
000000
000000
000000
000000
000000
000000
000000
000000
000000
000000
000000
000000
000000
000000
ENDCHAR
STARTCHAR 01-16
ENCODING 8496
SWIDTH 960 0
DWIDTH 18 0
BBX 18 18 0 -3
BITMAP
008000
014000
022000
000000
000000
000000
000000
000000
000000
000000
000000
000000
000000
000000
000000
000000
000000
000000
ENDCHAR
STARTCHAR 01-17
ENCODING 8497
SWIDTH 960 0
DWIDTH 18 0
BBX 18 18 0 -3
BITMAP
ffffc0
000000
000000
000000
000000
000000
000000
000000
000000
000000
000000
000000
000000
000000
000000
000000
000000
000000
ENDCHAR
STARTCHAR 01-18
ENCODING 8498
SWIDTH 960 0
DWIDTH 18 0
BBX 18 18 0 -3
BITMAP
000000
000000
000000
000000
000000
000000
000000
000000
000000
000000
000000
000000
000000
000000
000000
000000
000000
ffffc0
ENDCHAR
STARTCHAR 01-19
ENCODING 8499
SWIDTH 960 0
DWIDTH 18 0
BBX 18 18 0 -3
BITMAP
000000
000000
000000
000000
000000
000000
000000
020000
010000
008000
008000
004000
004000
002000
002000
000000
000000
000000
ENDCHAR
STARTCHAR 01-20
ENCODING 8500
SWIDTH 960 0
DWIDTH 18 0
BBX 18 18 0 -3
BITMAP
000000
000000
000000
000000
000000
000800
002400
021000
010000
008000
008000
004000
004000
002000
002000
000000
000000
000000
ENDCHAR
STARTCHAR 01-21
ENCODING 8501
SWIDTH 960 0
DWIDTH 18 0
BBX 18 18 0 -3
BITMAP
000000
000000
000000
000000
000000
000000
020000
010000
008000
004000
002000
001000
001000
003000
01c000
000000
000000
000000
ENDCHAR
STARTCHAR 01-22
ENCODING 8502
SWIDTH 960 0
DWIDTH 18 0
BBX 18 18 0 -3
BITMAP
000000
000000
000000
000000
000000
000800
022400
011000
008000
004000
002000
001000
001000
003000
01c000
000000
000000
000000
ENDCHAR
STARTCHAR 01-23
ENCODING 8503
SWIDTH 960 0
DWIDTH 18 0
BBX 18 18 0 -3
BITMAP
000000
000000
000000
000000
000000
011000
011000
022000
022000
044000
044000
088000
000000
000000
000000
000000
000000
000000
ENDCHAR
STARTCHAR 01-24
ENCODING 8504
SWIDTH 960 0
DWIDTH 18 0
BBX 18 18 0 -3
BITMAP
008000
008000
014000
014000
022000
041000
080800
100400
200200
cff980
008000
008000
008000
008000
008000
008000
7fff00
000000
ENDCHAR
STARTCHAR 01-25
ENCODING 8505
SWIDTH 960 0
DWIDTH 18 0
BBX 18 18 0 -3
BITMAP
000000
000000
008000
008000
010000
010000
03fc00
020800
040800
081000
101000
002000
01c000
004000
002000
001000
000000
000000
ENDCHAR
STARTCHAR 01-26
ENCODING 8506
SWIDTH 960 0
DWIDTH 18 0
BBX 18 18 0 -3
BITMAP
000000
000000
000000
000300
000400
000800
031000
04a000
084000
08a000
111000
120000
240000
280000
300000
200000
000000
000000
ENDCHAR
STARTCHAR 01-27
ENCODING 8507
SWIDTH 960 0
DWIDTH 18 0
BBX 18 18 0 -3
BITMAP
000000
01e000
061800
080400
100200
200100
200100
400080
400080
400080
400080
200100
200100
100200
080400
061800
01e000
000000
ENDCHAR
STARTCHAR 01-28
ENCODING 8508
SWIDTH 960 0
DWIDTH 18 0
BBX 18 18 0 -3
BITMAP
000000
000000
000000
000000
000000
000000
000000
200000
1fff00
000000
000000
000000
000000
000000
000000
000000
000000
000000
ENDCHAR
STARTCHAR 01-29
ENCODING 8509
SWIDTH 960 0
DWIDTH 18 0
BBX 18 18 0 -3
BITMAP
000000
000000
000000
000000
000000
000000
000000
000000
7fff80
000000
000000
000000
000000
000000
000000
000000
000000
000000
ENDCHAR
STARTCHAR 01-30
ENCODING 8510
SWIDTH 960 0
DWIDTH 18 0
BBX 18 18 0 -3
BITMAP
000000
000000
000000
000000
000000
000000
000000
000000
03f000
000000
000000
000000
000000
000000
000000
000000
000000
000000
ENDCHAR
STARTCHAR 01-31
ENCODING 8511
SWIDTH 960 0
DWIDTH 18 0
BBX 18 18 0 -3
BITMAP
000000
000080
000100
000200
000400
000800
001000
002000
004000
008000
010000
020000
040000
080000
100000
200000
400000
000000
ENDCHAR
STARTCHAR 01-32
ENCODING 8512
SWIDTH 960 0
DWIDTH 18 0
BBX 18 18 0 -3
BITMAP
000000
400000
200000
100000
080000
040000
020000
010000
008000
004000
002000
001000
000800
000400
000200
000100
000080
000000
ENDCHAR
STARTCHAR 01-33
ENCODING 8513
SWIDTH 960 0
DWIDTH 18 0
BBX 18 18 0 -3
BITMAP
000000
000000
000000
000000
000000
000000
000000
0e0000
318080
406300
001c00
000000
000000
000000
000000
000000
000000
000000
ENDCHAR
STARTCHAR 01-34
ENCODING 8514
SWIDTH 960 0
DWIDTH 18 0
BBX 18 18 0 -3
BITMAP
022000
022000
022000
022000
022000
022000
022000
022000
022000
022000
022000
022000
022000
022000
022000
022000
022000
000000
ENDCHAR
STARTCHAR 01-35
ENCODING 8515
SWIDTH 960 0
DWIDTH 18 0
BBX 18 18 0 -3
BITMAP
008000
008000
008000
008000
008000
008000
008000
008000
008000
008000
008000
008000
008000
008000
008000
008000
008000
000000
ENDCHAR
STARTCHAR 01-36
ENCODING 8516
SWIDTH 960 0
DWIDTH 18 0
BBX 18 18 0 -3
BITMAP
000000
000000
000000
000000
000000
000000
000000
000000
30c300
30c300
000000
000000
000000
000000
000000
000000
000000
000000
ENDCHAR
STARTCHAR 01-37
ENCODING 8517
SWIDTH 960 0
DWIDTH 18 0
BBX 18 18 0 -3
BITMAP
000000
000000
000000
000000
000000
000000
000000
000000
180600
180600
000000
000000
000000
000000
000000
000000
000000
000000
ENDCHAR
STARTCHAR 01-38
ENCODING 8518
SWIDTH 960 0
DWIDTH 18 0
BBX 18 18 0 -3
BITMAP
000100
000200
000300
000300
000000
000000
000000
000000
000000
000000
000000
000000
000000
000000
000000
000000
000000
000000
ENDCHAR
STARTCHAR 01-39
ENCODING 8519
SWIDTH 960 0
DWIDTH 18 0
BBX 18 18 0 -3
BITMAP
300000
300000
100000
200000
000000
000000
000000
000000
000000
000000
000000
000000
000000
000000
000000
000000
000000
000000
ENDCHAR
STARTCHAR 01-40
ENCODING 8520
SWIDTH 960 0
DWIDTH 18 0
BBX 18 18 0 -3
BITMAP
001100
002200
003300
003300
000000
000000
000000
000000
000000
000000
000000
000000
000000
000000
000000
000000
000000
000000
ENDCHAR
STARTCHAR 01-41
ENCODING 8521
SWIDTH 960 0
DWIDTH 18 0
BBX 18 18 0 -3
BITMAP
330000
330000
110000
220000
000000
000000
000000
000000
000000
000000
000000
000000
000000
000000
000000
000000
000000
000000
ENDCHAR
STARTCHAR 01-42
ENCODING 8522
SWIDTH 960 0
DWIDTH 18 0
BBX 18 18 0 -3
BITMAP
000100
000200
000400
000400
000800
000800
000800
001000
001000
001000
000800
000800
000800
000400
000400
000200
000100
000000
ENDCHAR
STARTCHAR 01-43
ENCODING 8523
SWIDTH 960 0
DWIDTH 18 0
BBX 18 18 0 -3
BITMAP
200000
100000
080000
080000
040000
040000
040000
020000
020000
020000
040000
040000
040000
080000
080000
100000
200000
000000
ENDCHAR
STARTCHAR 01-44
ENCODING 8524
SWIDTH 960 0
DWIDTH 18 0
BBX 18 18 0 -3
BITMAP
000180
000600
000800
000800
000800
000800
000800
000800
000800
000800
000800
000800
000800
000800
000800
000600
000180
000000
ENDCHAR
STARTCHAR 01-45
ENCODING 8525
SWIDTH 960 0
DWIDTH 18 0
BBX 18 18 0 -3
BITMAP
600000
180000
040000
040000
040000
040000
040000
040000
040000
040000
040000
040000
040000
040000
040000
180000
600000
000000
ENDCHAR
STARTCHAR 01-46
ENCODING 8526
SWIDTH 960 0
DWIDTH 18 0
BBX 18 18 0 -3
BITMAP
000f80
000800
000800
000800
000800
000800
000800
000800
000800
000800
000800
000800
000800
000800
000800
000800
000f80
000000
ENDCHAR
STARTCHAR 01-47
ENCODING 8527
SWIDTH 960 0
DWIDTH 18 0
BBX 18 18 0 -3
BITMAP
7c0000
040000
040000
040000
040000
040000
040000
040000
040000
040000
040000
040000
040000
040000
040000
040000
7c0000
000000
ENDCHAR
STARTCHAR 01-48
ENCODING 8528
SWIDTH 960 0
DWIDTH 18 0
BBX 18 18 0 -3
BITMAP
000700
000800
000800
000800
000800
000800
000800
001000
006000
001000
000800
000800
000800
000800
000800
000800
000700
000000
ENDCHAR
STARTCHAR 01-49
ENCODING 8529
SWIDTH 960 0
DWIDTH 18 0
BBX 18 18 0 -3
BITMAP
380000
040000
040000
040000
040000
040000
040000
020000
018000
020000
040000
040000
040000
040000
040000
040000
380000
000000
ENDCHAR
STARTCHAR 01-50
ENCODING 8530
SWIDTH 960 0
DWIDTH 18 0
BBX 18 18 0 -3
BITMAP
000080
000100
000200
000400
000800
001000
002000
004000
008000
004000
002000
001000
000800
000400
000200
000100
000080
000000
ENDCHAR
STARTCHAR 01-51
ENCODING 8531
SWIDTH 960 0
DWIDTH 18 0
BBX 18 18 0 -3
BITMAP
400000
200000
100000
080000
040000
020000
010000
008000
004000
008000
010000
020000
040000
080000
100000
200000
400000
000000
ENDCHAR
STARTCHAR 01-52
ENCODING 8532
SWIDTH 960 0
DWIDTH 18 0
BBX 18 18 0 -3
BITMAP
000480
000900
001200
002400
004800
009000
012000
024000
048000
024000
012000
009000
004800
002400
001200
000900
000480
000000
ENDCHAR
STARTCHAR 01-53
ENCODING 8533
SWIDTH 960 0
DWIDTH 18 0
BBX 18 18 0 -3
BITMAP
480000
240000
120000
090000
048000
024000
012000
009000
004800
009000
012000
024000
048000
090000
120000
240000
480000
000000
ENDCHAR
STARTCHAR 01-54
ENCODING 8534
SWIDTH 960 0
DWIDTH 18 0
BBX 18 18 0 -3
BITMAP
001f00
001000
001000
001000
001000
001000
001000
001000
001000
001000
001000
001000
000000
000000
000000
000000
000000
000000
ENDCHAR
STARTCHAR 01-55
ENCODING 8535
SWIDTH 960 0
DWIDTH 18 0
BBX 18 18 0 -3
BITMAP
000000
000000
000000
000000
000000
040000
040000
040000
040000
040000
040000
040000
040000
040000
040000
040000
7c0000
000000
ENDCHAR
STARTCHAR 01-56
ENCODING 8536
SWIDTH 960 0
DWIDTH 18 0
BBX 18 18 0 -3
BITMAP
003f80
002080
002f80
002800
002800
002800
002800
002800
002800
002800
002800
002800
002800
003800
000000
000000
000000
000000
ENDCHAR
STARTCHAR 01-57
ENCODING 8537
SWIDTH 960 0
DWIDTH 18 0
BBX 18 18 0 -3
BITMAP
000000
000000
000000
000000
070000
050000
050000
050000
050000
050000
050000
050000
050000
050000
7d0000
410000
7f0000
000000
ENDCHAR
STARTCHAR 01-58
ENCODING 8538
SWIDTH 960 0
DWIDTH 18 0
BBX 18 18 0 -3
BITMAP
000f80
000f00
000e00
000c00
000c00
000800
000800
000800
000800
000800
000800
000800
000c00
000c00
000e00
000f00
000f80
000000
ENDCHAR
STARTCHAR 01-59
ENCODING 8539
SWIDTH 960 0
DWIDTH 18 0
BBX 18 18 0 -3
BITMAP
7c0000
3c0000
1c0000
0c0000
0c0000
040000
040000
040000
040000
040000
040000
040000
0c0000
0c0000
1c0000
3c0000
7c0000
000000
ENDCHAR
STARTCHAR 01-60
ENCODING 8540
SWIDTH 960 0
DWIDTH 18 0
BBX 18 18 0 -3
BITMAP
000000
000000
008000
008000
008000
008000
008000
008000
3ffe00
008000
008000
008000
008000
008000
008000
000000
000000
000000
ENDCHAR
STARTCHAR 01-61
ENCODING 8541
SWIDTH 960 0
DWIDTH 18 0
BBX 18 18 0 -3
BITMAP
000000
000000
000000
000000
000000
000000
000000
000000
1ffe00
000000
000000
000000
000000
000000
000000
000000
000000
000000
ENDCHAR
STARTCHAR 01-62
ENCODING 8542
SWIDTH 960 0
DWIDTH 18 0
BBX 18 18 0 -3
BITMAP
000000
008000
008000
008000
008000
008000
3ffe00
008000
008000
008000
008000
008000
000000
000000
3ffe00
000000
000000
000000
ENDCHAR
STARTCHAR 01-63
ENCODING 8543
SWIDTH 960 0
DWIDTH 18 0
BBX 18 18 0 -3
BITMAP
000000
000000
000000
100400
080800
041000
022000
014000
008000
014000
022000
041000
080800
100400
000000
000000
000000
000000
ENDCHAR
STARTCHAR 01-64
ENCODING 8544
SWIDTH 960 0
DWIDTH 18 0
BBX 18 18 0 -3
BITMAP
000000
000000
000000
00c000
00c000
000000
000000
000000
1ffe00
000000
000000
000000
00c000
00c000
000000
000000
000000
000000
ENDCHAR
STARTCHAR 01-65
ENCODING 8545
SWIDTH 960 0
DWIDTH 18 0
BBX 18 18 0 -3
BITMAP
000000
000000
000000
000000
000000
000000
1ffe00
000000
000000
000000
1ffe00
000000
000000
000000
000000
000000
000000
000000
ENDCHAR
STARTCHAR 01-66
ENCODING 8546
SWIDTH 960 0
DWIDTH 18 0
BBX 18 18 0 -3
BITMAP
000000
000000
000000
001000
002000
002000
1ffe00
004000
008000
008000
1ffe00
010000
020000
020000
000000
000000
000000
000000
ENDCHAR
STARTCHAR 01-67
ENCODING 8547
SWIDTH 960 0
DWIDTH 18 0
BBX 18 18 0 -3
BITMAP
000000
000180
000600
001800
006000
018000
060000
180000
600000
180000
060000
018000
006000
001800
000600
000180
000000
000000
ENDCHAR
STARTCHAR 01-68
ENCODING 8548
SWIDTH 960 0
DWIDTH 18 0
BBX 18 18 0 -3
BITMAP
000000
600000
180000
060000
018000
006000
001800
000600
000180
000600
001800
006000
018000
060000
180000
600000
000000
000000
ENDCHAR
STARTCHAR 01-69
ENCODING 8549
SWIDTH 960 0
DWIDTH 18 0
BBX 18 18 0 -3
BITMAP
000000
000700
003800
01c000
0e0000
300000
0e0000
01c000
003800
000700
000000
3fff00
000000
000000
3fff00
000000
000000
000000
ENDCHAR
STARTCHAR 01-70
ENCODING 8550
SWIDTH 960 0
DWIDTH 18 0
BBX 18 18 0 -3
BITMAP
000000
380000
070000
00e000
001c00
000300
001c00
00e000
070000
380000
000000
3fff00
000000
000000
3fff00
000000
000000
000000
ENDCHAR
STARTCHAR 01-71
ENCODING 8551
SWIDTH 960 0
DWIDTH 18 0
BBX 18 18 0 -3
BITMAP
000000
000000
000000
000000
000000
3c1e00
422100
814080
808080
814080
422100
3c1e00
000000
000000
000000
000000
000000
000000
ENDCHAR
STARTCHAR 01-72
ENCODING 8552
SWIDTH 960 0
DWIDTH 18 0
BBX 18 18 0 -3
BITMAP
000000
000000
000000
00c000
00c000
000000
000000
000000
000000
000000
000000
180600
180600
000000
000000
000000
000000
000000
ENDCHAR
STARTCHAR 01-73
ENCODING 8553
SWIDTH 960 0
DWIDTH 18 0
BBX 18 18 0 -3
BITMAP
000000
000000
000000
003f00
000300
000500
000900
001100
002100
074000
088000
104000
104000
104000
088000
070000
000000
000000
ENDCHAR
STARTCHAR 01-74
ENCODING 8554
SWIDTH 960 0
DWIDTH 18 0
BBX 18 18 0 -3
BITMAP
000000
01c000
022000
041000
041000
041000
022000
01c000
008000
008000
1ffc00
008000
008000
008000
008000
008000
000000
000000
ENDCHAR
STARTCHAR 01-75
ENCODING 8555
SWIDTH 960 0
DWIDTH 18 0
BBX 18 18 0 -3
BITMAP
000000
300000
480000
480000
300000
000000
000000
000000
000000
000000
000000
000000
000000
000000
000000
000000
000000
000000
ENDCHAR
STARTCHAR 01-76
ENCODING 8556
SWIDTH 960 0
DWIDTH 18 0
BBX 18 18 0 -3
BITMAP
000000
100000
100000
200000
200000
000000
000000
000000
000000
000000
000000
000000
000000
000000
000000
000000
000000
000000
ENDCHAR
STARTCHAR 01-77
ENCODING 8557
SWIDTH 960 0
DWIDTH 18 0
BBX 18 18 0 -3
BITMAP
000000
120000
120000
240000
240000
000000
000000
000000
000000
000000
000000
000000
000000
000000
000000
000000
000000
000000
ENDCHAR
STARTCHAR 01-78
ENCODING 8558
SWIDTH 960 0
DWIDTH 18 0
BBX 18 18 0 -3
BITMAP
000000
300000
48f800
4b0600
340200
040100
080000
080000
080000
080000
080100
040100
040200
030600
00f800
000000
000000
000000
ENDCHAR
STARTCHAR 01-79
ENCODING 8559
SWIDTH 960 0
DWIDTH 18 0
BBX 18 18 0 -3
BITMAP
000000
080200
040400
040400
020800
011000
0ffe00
00a000
004000
0ffe00
004000
004000
004000
004000
004000
000000
000000
000000
ENDCHAR
STARTCHAR 01-80
ENCODING 8560
SWIDTH 960 0
DWIDTH 18 0
BBX 18 18 0 -3
BITMAP
008000
008000
01c000
02b000
049000
048000
048000
028000
01e000
009000
008800
088800
088800
049000
03e000
008000
008000
000000
ENDCHAR
STARTCHAR 01-81
ENCODING 8561
SWIDTH 960 0
DWIDTH 18 0
BBX 18 18 0 -3
BITMAP
000000
000000
004000
01e000
065000
049000
088000
088000
088000
050800
051000
03e000
020000
020000
000000
000000
000000
000000
ENDCHAR
STARTCHAR 01-82
ENCODING 8562
SWIDTH 960 0
DWIDTH 18 0
BBX 18 18 0 -3
BITMAP
000000
000000
00e000
011000
020800
020000
020000
0ff000
010000
008000
008000
0e8400
118200
108200
0f7c00
000000
000000
000000
ENDCHAR
STARTCHAR 01-83
ENCODING 8563
SWIDTH 960 0
DWIDTH 18 0
BBX 18 18 0 -3
BITMAP
000000
000400
0c0400
120800
211000
211000
122000
0c2000
004000
008c00
009200
012100
012100
021200
040c00
040000
080000
000000
ENDCHAR
STARTCHAR 01-84
ENCODING 8564
SWIDTH 960 0
DWIDTH 18 0
BBX 18 18 0 -3
BITMAP
000000
010800
010800
010800
010800
0ffe00
021000
021000
021000
021000
021000
1ffc00
042000
042000
042000
042000
000000
000000
ENDCHAR
STARTCHAR 01-85
ENCODING 8565
SWIDTH 960 0
DWIDTH 18 0
BBX 18 18 0 -3
BITMAP
000000
000000
038000
044000
082000
082000
044000
02c000
030000
048400
084400
102800
101000
082c00
07c300
000000
000000
000000
ENDCHAR
STARTCHAR 01-86
ENCODING 8566
SWIDTH 960 0
DWIDTH 18 0
BBX 18 18 0 -3
BITMAP
000000
000000
000000
008000
008000
088800
049000
02a000
01c000
02a000
049000
088800
008000
008000
000000
000000
000000
000000
ENDCHAR
STARTCHAR 01-87
ENCODING 8567
SWIDTH 960 0
DWIDTH 18 0
BBX 18 18 0 -3
BITMAP
000000
01e000
061800
080400
10d200
113200
221100
221100
241100
242100
242200
126400
11b900
080200
060c00
01f000
000000
000000
ENDCHAR
STARTCHAR 01-88
ENCODING 8568
SWIDTH 960 0
DWIDTH 18 0
BBX 18 18 0 -3
BITMAP
01c000
022000
041000
040000
020000
018000
024000
042000
041000
021000
012000
00c000
002000
001000
041000
022000
01c000
000000
ENDCHAR
STARTCHAR 01-89
ENCODING 8569
SWIDTH 960 0
DWIDTH 18 0
BBX 18 18 0 -3
BITMAP
008000
008000
014000
014000
022000
022000
fc1f80
400100
200200
100400
080800
088800
114400
122400
2c1a00
300600
200200
000000
ENDCHAR
STARTCHAR 01-90
ENCODING 8570
SWIDTH 960 0
DWIDTH 18 0
BBX 18 18 0 -3
BITMAP
008000
008000
01c000
01c000
03e000
03e000
ffff80
7fff00
3ffe00
1ffc00
0ff800
0ff800
1f7c00
1e3c00
1c1c00
300600
200200
000000
ENDCHAR
STARTCHAR 01-91
ENCODING 8571
SWIDTH 960 0
DWIDTH 18 0
BBX 18 18 0 -3
BITMAP
000000
01e000
061800
080400
100200
200100
200100
400080
400080
400080
400080
200100
200100
100200
080400
061800
01e000
000000
ENDCHAR
STARTCHAR 01-92
ENCODING 8572
SWIDTH 960 0
DWIDTH 18 0
BBX 18 18 0 -3
BITMAP
000000
01e000
07f800
0ffc00
1ffe00
3fff00
3fff00
7fff80
7fff80
7fff80
7fff80
3fff00
3fff00
1ffe00
0ffc00
07f800
01e000
000000
ENDCHAR
STARTCHAR 01-93
ENCODING 8573
SWIDTH 960 0
DWIDTH 18 0
BBX 18 18 0 -3
BITMAP
000000
01e000
061800
080400
10c200
233100
240900
440880
480480
480480
440880
240900
233100
10c200
080400
061800
01e000
000000
ENDCHAR
STARTCHAR 01-94
ENCODING 8574
SWIDTH 960 0
DWIDTH 18 0
BBX 18 18 0 -3
BITMAP
000000
008000
014000
022000
041000
080800
100400
200200
400100
400100
200200
100400
080800
041000
022000
014000
008000
000000
ENDCHAR
STARTCHAR 02-01
ENCODING 8737
SWIDTH 960 0
DWIDTH 18 0
BBX 18 18 0 -3
BITMAP
000000
008000
01c000
03e000
07f000
0ff800
1ffc00
3ffe00
7fff00
7fff00
3ffe00
1ffc00
0ff800
07f000
03e000
01c000
008000
000000
ENDCHAR
STARTCHAR 02-02
ENCODING 8738
SWIDTH 960 0
DWIDTH 18 0
BBX 18 18 0 -3
BITMAP
000000
7fff00
400100
400100
400100
400100
400100
400100
400100
400100
400100
400100
400100
400100
400100
7fff00
000000
000000
ENDCHAR
STARTCHAR 02-03
ENCODING 8739
SWIDTH 960 0
DWIDTH 18 0
BBX 18 18 0 -3
BITMAP
000000
7fff00
7fff00
7fff00
7fff00
7fff00
7fff00
7fff00
7fff00
7fff00
7fff00
7fff00
7fff00
7fff00
7fff00
7fff00
000000
000000
ENDCHAR
STARTCHAR 02-04
ENCODING 8740
SWIDTH 960 0
DWIDTH 18 0
BBX 18 18 0 -3
BITMAP
000000
00c000
00c000
012000
012000
021000
021000
040800
040800
080400
080400
100200
100200
200100
3fff00
000000
000000
000000
ENDCHAR
STARTCHAR 02-05
ENCODING 8741
SWIDTH 960 0
DWIDTH 18 0
BBX 18 18 0 -3
BITMAP
000000
00c000
00c000
01e000
01e000
03f000
03f000
07f800
07f800
0ffc00
0ffc00
1ffe00
1ffe00
3fff00
3fff00
000000
000000
000000
ENDCHAR
STARTCHAR 02-06
ENCODING 8742
SWIDTH 960 0
DWIDTH 18 0
BBX 18 18 0 -3
BITMAP
000000
000000
3fff00
200100
100200
100200
080400
080400
040800
040800
021000
021000
012000
012000
00c000
00c000
000000
000000
ENDCHAR
STARTCHAR 02-07
ENCODING 8743
SWIDTH 960 0
DWIDTH 18 0
BBX 18 18 0 -3
BITMAP
000000
000000
3fff00
3fff00
1ffe00
1ffe00
0ffc00
0ffc00
07f800
07f800
03f000
03f000
01e000
01e000
00c000
00c000
000000
000000
ENDCHAR
STARTCHAR 02-08
ENCODING 8744
SWIDTH 960 0
DWIDTH 18 0
BBX 18 18 0 -3
BITMAP
000000
000000
208200
11c400
088800
041000
022000
114400
388e00
114400
022000
041000
088800
11c400
208200
000000
000000
000000
ENDCHAR
STARTCHAR 02-09
ENCODING 8745
SWIDTH 960 0
DWIDTH 18 0
BBX 18 18 0 -3
BITMAP
000000
000000
3ffe00
000000
000000
000000
000000
3ffe00
008000
008000
008000
008000
008000
008000
008000
008000
000000
000000
ENDCHAR
STARTCHAR 02-10
ENCODING 8746
SWIDTH 960 0
DWIDTH 18 0
BBX 18 18 0 -3
BITMAP
000000
000000
000000
000000
000000
000400
000200
000300
7fff80
000300
000200
000400
000000
000000
000000
000000
000000
000000
ENDCHAR
STARTCHAR 02-11
ENCODING 8747
SWIDTH 960 0
DWIDTH 18 0
BBX 18 18 0 -3
BITMAP
000000
000000
000000
000000
000000
080000
100000
300000
7fff80
300000
100000
080000
000000
000000
000000
000000
000000
000000
ENDCHAR
STARTCHAR 02-12
ENCODING 8748
SWIDTH 960 0
DWIDTH 18 0
BBX 18 18 0 -3
BITMAP
000000
008000
01c000
03e000
049000
008000
008000
008000
008000
008000
008000
008000
008000
008000
008000
008000
008000
000000
ENDCHAR
STARTCHAR 02-13
ENCODING 8749
SWIDTH 960 0
DWIDTH 18 0
BBX 18 18 0 -3
BITMAP
000000
008000
008000
008000
008000
008000
008000
008000
008000
008000
008000
008000
008000
049000
03e000
01c000
008000
000000
ENDCHAR
STARTCHAR 02-14
ENCODING 8750
SWIDTH 960 0
DWIDTH 18 0
BBX 18 18 0 -3
BITMAP
000000
000000
000000
000000
000000
1ffe00
1ffe00
000000
000000
000000
1ffe00
1ffe00
000000
000000
000000
000000
000000
000000
ENDCHAR
STARTCHAR 02-26
ENCODING 8762
SWIDTH 960 0
DWIDTH 18 0
BBX 18 18 0 -3
BITMAP
000000
000000
07ff80
180000
200000
200000
400000
400000
7fff80
400000
400000
200000
200000
180000
07ff80
000000
000000
000000
ENDCHAR
STARTCHAR 02-27
ENCODING 8763
SWIDTH 960 0
DWIDTH 18 0
BBX 18 18 0 -3
BITMAP
000000
000000
7ff800
000600
000100
000100
000080
000080
7fff80
000080
000080
000100
000100
000600
7ff800
000000
000000
000000
ENDCHAR
STARTCHAR 02-28
ENCODING 8764
SWIDTH 960 0
DWIDTH 18 0
BBX 18 18 0 -3
BITMAP
000000
07ff80
180000
200000
200000
400000
400000
400000
200000
200000
180000
07ff80
000000
000000
7fff80
000000
000000
000000
ENDCHAR
STARTCHAR 02-29
ENCODING 8765
SWIDTH 960 0
DWIDTH 18 0
BBX 18 18 0 -3
BITMAP
000000
7ff800
000600
000100
000100
000080
000080
000080
000100
000100
000600
7ff800
000000
000000
7fff80
000000
000000
000000
ENDCHAR
STARTCHAR 02-30
ENCODING 8766
SWIDTH 960 0
DWIDTH 18 0
BBX 18 18 0 -3
BITMAP
000000
000000
03ff80
0c0000
100000
200000
200000
400000
400000
400000
200000
200000
100000
0c0000
03ff80
000000
000000
000000
ENDCHAR
STARTCHAR 02-31
ENCODING 8767
SWIDTH 960 0
DWIDTH 18 0
BBX 18 18 0 -3
BITMAP
000000
000000
7ff000
000c00
000200
000100
000100
000080
000080
000080
000100
000100
000200
000c00
7ff000
000000
000000
000000
ENDCHAR
STARTCHAR 02-32
ENCODING 8768
SWIDTH 960 0
DWIDTH 18 0
BBX 18 18 0 -3
BITMAP
100200
100200
100200
100200
100200
100200
100200
100200
100200
100200
100200
100200
080400
080400
061800
01e000
000000
000000
ENDCHAR
STARTCHAR 02-33
ENCODING 8769
SWIDTH 960 0
DWIDTH 18 0
BBX 18 18 0 -3
BITMAP
000000
01e000
061800
080400
080400
100200
100200
100200
100200
100200
100200
100200
100200
100200
100200
100200
100200
000000
ENDCHAR
STARTCHAR 02-42
ENCODING 8778
SWIDTH 960 0
DWIDTH 18 0
BBX 18 18 0 -3
BITMAP
008000
008000
014000
014000
022000
022000
041000
041000
080800
080800
100400
100400
200200
200200
400100
400100
000000
000000
ENDCHAR
STARTCHAR 02-43
ENCODING 8779
SWIDTH 960 0
DWIDTH 18 0
BBX 18 18 0 -3
BITMAP
000000
400100
400100
200200
200200
100400
100400
080800
080800
041000
041000
022000
022000
014000
014000
008000
008000
000000
ENDCHAR
STARTCHAR 02-44
ENCODING 8780
SWIDTH 960 0
DWIDTH 18 0
BBX 18 18 0 -3
BITMAP
000000
000000
000000
000000
000000
000000
000000
000000
000000
7fff80
000080
000080
000080
000080
000080
000080
000080
000000
ENDCHAR
STARTCHAR 02-45
ENCODING 8781
SWIDTH 960 0
DWIDTH 18 0
BBX 18 18 0 -3
BITMAP
000000
000000
000000
001000
000800
000400
fffe00
000100
000080
000100
fffe00
000400
000800
001000
000000
000000
000000
000000
ENDCHAR
STARTCHAR 02-46
ENCODING 8782
SWIDTH 960 0
DWIDTH 18 0
BBX 18 18 0 -3
BITMAP
000000
000000
000000
041000
080800
100400
3ffe00
400100
800080
400100
3ffe00
100400
080800
041000
000000
000000
000000
000000
ENDCHAR
STARTCHAR 02-47
ENCODING 8783
SWIDTH 960 0
DWIDTH 18 0
BBX 18 18 0 -3
BITMAP
000000
400100
400100
200200
200200
1ffc00
100400
080800
080800
041000
041000
022000
022000
014000
014000
008000
008000
000000
ENDCHAR
STARTCHAR 02-48
ENCODING 8784
SWIDTH 960 0
DWIDTH 18 0
BBX 18 18 0 -3
BITMAP
000000
000000
1ffc00
000400
000400
000400
000400
000400
1ffc00
000400
000400
000400
000400
000400
1ffc00
000000
000000
000000
ENDCHAR
STARTCHAR 02-60
ENCODING 8796
SWIDTH 960 0
DWIDTH 18 0
BBX 18 18 0 -3
BITMAP
000000
000100
000200
000400
000800
001000
002000
004000
008000
010000
020000
040000
080000
100000
200000
7fff00
000000
000000
ENDCHAR
STARTCHAR 02-61
ENCODING 8797
SWIDTH 960 0
DWIDTH 18 0
BBX 18 18 0 -3
BITMAP
000000
008000
008000
008000
008000
008000
008000
008000
008000
008000
008000
008000
008000
008000
008000
7fff00
000000
000000
ENDCHAR
STARTCHAR 02-62
ENCODING 8798
SWIDTH 960 0
DWIDTH 18 0
BBX 18 18 0 -3
BITMAP
000000
03f000
0c0c00
100200
200100
400080
400080
000000
000000
000000
000000
000000
000000
000000
000000
000000
000000
000000
ENDCHAR
STARTCHAR 02-63
ENCODING 8799
SWIDTH 960 0
DWIDTH 18 0
BBX 18 18 0 -3
BITMAP
000000
006000
019000
020800
000800
000800
000800
01c800
022800
041000
041000
081000
082000
082000
044000
038000
000000
000000
ENDCHAR
STARTCHAR 02-64
ENCODING 8800
SWIDTH 960 0
DWIDTH 18 0
BBX 18 18 0 -3
BITMAP
000000
7fff80
200100
200100
100200
100200
080400
080400
040800
040800
021000
021000
012000
012000
00c000
00c000
000000
000000
ENDCHAR
STARTCHAR 02-65
ENCODING 8801
SWIDTH 960 0
DWIDTH 18 0
BBX 18 18 0 -3
BITMAP
000000
000000
000000
000000
1ffe00
000000
000000
000000
1ffe00
000000
000000
000000
1ffe00
000000
000000
000000
000000
000000
ENDCHAR
STARTCHAR 02-66
ENCODING 8802
SWIDTH 960 0
DWIDTH 18 0
BBX 18 18 0 -3
BITMAP
000000
000000
0c0000
0c0000
000000
000000
3fff00
000000
000000
000000
3fff00
000000
000000
000c00
000c00
000000
000000
000000
ENDCHAR
STARTCHAR 02-67
ENCODING 8803
SWIDTH 960 0
DWIDTH 18 0
BBX 18 18 0 -3
BITMAP
000880
003100
004600
018800
023000
044000
198000
220000
440000
220000
198000
044000
023000
018800
004600
003100
000880
000000
ENDCHAR
STARTCHAR 02-68
ENCODING 8804
SWIDTH 960 0
DWIDTH 18 0
BBX 18 18 0 -3
BITMAP
440000
230000
188000
046000
031000
008800
006600
001100
000880
001100
006600
008800
031000
046000
188000
230000
440000
000000
ENDCHAR
STARTCHAR 02-69
ENCODING 8805
SWIDTH 960 0
DWIDTH 18 0
BBX 18 18 0 -3
BITMAP
00ffc0
008000
008000
008000
010000
010000
010000
020000
220000
220000
740000
540000
140000
180000
080000
080000
000000
000000
ENDCHAR
STARTCHAR 02-70
ENCODING 8806
SWIDTH 960 0
DWIDTH 18 0
BBX 18 18 0 -3
BITMAP
000000
000000
000000
000000
000000
1c1c00
202200
404100
408100
410100
220200
1c1c00
000000
000000
000000
000000
000000
000000
ENDCHAR
STARTCHAR 02-71
ENCODING 8807
SWIDTH 960 0
DWIDTH 18 0
BBX 18 18 0 -3
BITMAP
000000
000000
000000
000000
000000
1e0f00
211080
40a000
404000
40a000
211080
1e0f00
000000
000000
000000
000000
000000
000000
ENDCHAR
STARTCHAR 02-72
ENCODING 8808
SWIDTH 960 0
DWIDTH 18 0
BBX 18 18 0 -3
BITMAP
000000
000000
000000
000000
180600
180600
000000
000000
000000
000000
000000
000000
00c000
00c000
000000
000000
000000
000000
ENDCHAR
STARTCHAR 02-73
ENCODING 8809
SWIDTH 960 0
DWIDTH 18 0
BBX 18 18 0 -3
BITMAP
01c000
022000
022000
020000
020000
010000
010000
010000
008000
008000
004000
004000
004000
002000
002000
022000
022000
01c000
ENDCHAR
STARTCHAR 02-74
ENCODING 8810
SWIDTH 960 0
DWIDTH 18 0
BBX 18 18 0 -3
BITMAP
0e3800
114400
114400
104000
104000
082000
082000
082000
041000
041000
020800
020800
020800
010400
010400
114400
114400
0e3800
ENDCHAR
STARTCHAR 02-82
ENCODING 8818
SWIDTH 960 0
DWIDTH 18 0
BBX 18 18 0 -3
BITMAP
00c000
012000
012000
00c000
000000
00c000
00c000
012000
012000
021000
03f000
040800
040800
080400
080400
000000
000000
000000
ENDCHAR
STARTCHAR 02-83
ENCODING 8819
SWIDTH 960 0
DWIDTH 18 0
BBX 18 18 0 -3
BITMAP
002000
382000
444000
444000
448000
448000
450000
390000
020000
026300
049480
049480
089480
089480
106300
100000
200000
000000
ENDCHAR
STARTCHAR 02-84
ENCODING 8820
SWIDTH 960 0
DWIDTH 18 0
BBX 18 18 0 -3
BITMAP
001000
021000
021000
021000
021e00
03f000
1e1000
021000
021000
021000
021e00
03f000
1e1000
021000
021000
021000
020000
000000
ENDCHAR
STARTCHAR 02-85
ENCODING 8821
SWIDTH 960 0
DWIDTH 18 0
BBX 18 18 0 -3
BITMAP
000000
040000
040000
040000
040000
040000
040000
05c000
062000
041000
041000
041000
042000
044000
048000
070000
040000
000000
ENDCHAR
STARTCHAR 02-86
ENCODING 8822
SWIDTH 960 0
DWIDTH 18 0
BBX 18 18 0 -3
BITMAP
000000
004000
006000
007000
007000
005800
004c00
004600
004200
004200
004400
004800
07c000
0fc000
0f8000
070000
000000
000000
ENDCHAR
STARTCHAR 02-87
ENCODING 8823
SWIDTH 960 0
DWIDTH 18 0
BBX 18 18 0 -3
BITMAP
00c000
00c000
00c000
07f800
07f800
00c000
00c000
00c000
00c000
00c000
00c000
00c000
00c000
00c000
00c000
00c000
00c000
00c000
ENDCHAR
STARTCHAR 02-88
ENCODING 8824
SWIDTH 960 0
DWIDTH 18 0
BBX 18 18 0 -3
BITMAP
00c000
00c000
00c000
00c000
07f800
07f800
00c000
00c000
00c000
00c000
00c000
00c000
07f800
07f800
00c000
00c000
00c000
00c000
ENDCHAR
STARTCHAR 02-89
ENCODING 8825
SWIDTH 960 0
DWIDTH 18 0
BBX 18 18 0 -3
BITMAP
000000
07f000
0f1000
1f1000
1f1000
1f1000
0f1000
071000
011000
011000
011000
011000
011000
011000
011000
011000
000000
000000
ENDCHAR
STARTCHAR 02-94
ENCODING 8830
SWIDTH 960 0
DWIDTH 18 0
BBX 18 18 0 -3
BITMAP
03e000
0c1800
100400
200200
400100
400100
800080
800080
800080
800080
800080
400100
400100
200200
100400
0c1800
03e000
000000
ENDCHAR
STARTCHAR 03-16
ENCODING 9008
SWIDTH 960 0
DWIDTH 18 0
BBX 18 18 0 -3
BITMAP
000000
000000
01e000
021000
040800
040800
080400
080400
080400
080400
080400
040800
040800
021000
01e000
000000
000000
000000
ENDCHAR
STARTCHAR 03-17
ENCODING 9009
SWIDTH 960 0
DWIDTH 18 0
BBX 18 18 0 -3
BITMAP
000000
000000
004000
03c000
004000
004000
004000
004000
004000
004000
004000
004000
004000
004000
004000
000000
000000
000000
ENDCHAR
STARTCHAR 03-18
ENCODING 9010
SWIDTH 960 0
DWIDTH 18 0
BBX 18 18 0 -3
BITMAP
000000
000000
01e000
021800
040800
040400
000400
000800
001000
002000
004000
008000
010000
020000
07fc00
000000
000000
000000
ENDCHAR
STARTCHAR 03-19
ENCODING 9011
SWIDTH 960 0
DWIDTH 18 0
BBX 18 18 0 -3
BITMAP
000000
000000
03e000
041000
040800
000800
001000
00e000
001000
000800
000800
000800
041000
043000
03c000
000000
000000
000000
ENDCHAR
STARTCHAR 03-20
ENCODING 9012
SWIDTH 960 0
DWIDTH 18 0
BBX 18 18 0 -3
BITMAP
000000
000000
002000
006000
00a000
00a000
012000
022000
022000
042000
082000
1ff800
002000
002000
002000
000000
000000
000000
ENDCHAR
STARTCHAR 03-21
ENCODING 9013
SWIDTH 960 0
DWIDTH 18 0
BBX 18 18 0 -3
BITMAP
000000
000000
03f800
020000
020000
020000
020000
02f000
030800
000400
000400
000400
020800
021800
01e000
000000
000000
000000
ENDCHAR
STARTCHAR 03-22
ENCODING 9014
SWIDTH 960 0
DWIDTH 18 0
BBX 18 18 0 -3
BITMAP
000000
000000
00f000
010800
020000
020000
040000
04f000
050800
060400
040400
040400
020400
030800
00f000
000000
000000
000000
ENDCHAR
STARTCHAR 03-23
ENCODING 9015
SWIDTH 960 0
DWIDTH 18 0
BBX 18 18 0 -3
BITMAP
000000
000000
07fc00
000400
000400
000800
000800
001000
001000
002000
002000
002000
004000
004000
004000
000000
000000
000000
ENDCHAR
STARTCHAR 03-24
ENCODING 9016
SWIDTH 960 0
DWIDTH 18 0
BBX 18 18 0 -3
BITMAP
000000
000000
01e000
021000
040800
040800
040800
021000
01e000
061800
080400
080400
080400
040800
03f000
000000
000000
000000
ENDCHAR
STARTCHAR 03-25
ENCODING 9017
SWIDTH 960 0
DWIDTH 18 0
BBX 18 18 0 -3
BITMAP
000000
000000
01e000
021800
040800
040400
040400
040400
021c00
01e400
000400
000400
000800
021800
01e000
000000
000000
000000
ENDCHAR
STARTCHAR 03-33
ENCODING 9025
SWIDTH 960 0
DWIDTH 18 0
BBX 18 18 0 -3
BITMAP
000000
000000
008000
008000
014000
014000
022000
022000
041000
041000
07f000
080800
080800
100400
100400
000000
000000
000000
ENDCHAR
STARTCHAR 03-34
ENCODING 9026
SWIDTH 960 0
DWIDTH 18 0
BBX 18 18 0 -3
BITMAP
000000
000000
07f000
040800
040400
040400
040400
040800
07f800
040400
040200
040200
040200
040400
07f800
000000
000000
000000
ENDCHAR
STARTCHAR 03-35
ENCODING 9027
SWIDTH 960 0
DWIDTH 18 0
BBX 18 18 0 -3
BITMAP
000000
000000
01f000
060c00
080400
080200
100000
100000
100000
100000
100200
080200
080400
060c00
01f000
000000
000000
000000
ENDCHAR
STARTCHAR 03-36
ENCODING 9028
SWIDTH 960 0
DWIDTH 18 0
BBX 18 18 0 -3
BITMAP
000000
000000
0fc000
083000
080800
080400
080400
080200
080200
080200
080400
080400
080800
083000
0fc000
000000
000000
000000
ENDCHAR
STARTCHAR 03-37
ENCODING 9029
SWIDTH 960 0
DWIDTH 18 0
BBX 18 18 0 -3
BITMAP
000000
000000
0ffc00
080000
080000
080000
080000
080000
0ff800
080000
080000
080000
080000
080000
0ffc00
000000
000000
000000
ENDCHAR
STARTCHAR 03-38
ENCODING 9030
SWIDTH 960 0
DWIDTH 18 0
BBX 18 18 0 -3
BITMAP
000000
000000
0ffc00
080000
080000
080000
080000
080000
0ff800
080000
080000
080000
080000
080000
080000
000000
000000
000000
ENDCHAR
STARTCHAR 03-39
ENCODING 9031
SWIDTH 960 0
DWIDTH 18 0
BBX 18 18 0 -3
BITMAP
000000
000000
01f000
060c00
080200
080200
100000
100000
103e00
100200
100200
080200
080600
061a00
01e200
000000
000000
000000
ENDCHAR
STARTCHAR 03-40
ENCODING 9032
SWIDTH 960 0
DWIDTH 18 0
BBX 18 18 0 -3
BITMAP
000000
000000
080400
080400
080400
080400
080400
080400
0ffc00
080400
080400
080400
080400
080400
080400
000000
000000
000000
ENDCHAR
STARTCHAR 03-41
ENCODING 9033
SWIDTH 960 0
DWIDTH 18 0
BBX 18 18 0 -3
BITMAP
000000
000000
01c000
008000
008000
008000
008000
008000
008000
008000
008000
008000
008000
008000
01c000
000000
000000
000000
ENDCHAR
STARTCHAR 03-42
ENCODING 9034
SWIDTH 960 0
DWIDTH 18 0
BBX 18 18 0 -3
BITMAP
000000
000000
001000
001000
001000
001000
001000
001000
001000
001000
001000
001000
041000
041000
022000
01c000
000000
000000
ENDCHAR
STARTCHAR 03-43
ENCODING 9035
SWIDTH 960 0
DWIDTH 18 0
BBX 18 18 0 -3
BITMAP
000000
000000
040800
040800
041000
042000
044000
04c000
052000
062000
041000
040800
040800
040400
040400
000000
000000
000000
ENDCHAR
STARTCHAR 03-44
ENCODING 9036
SWIDTH 960 0
DWIDTH 18 0
BBX 18 18 0 -3
BITMAP
000000
000000
040000
040000
040000
040000
040000
040000
040000
040000
040000
040000
040000
040000
07fc00
000000
000000
000000
ENDCHAR
STARTCHAR 03-45
ENCODING 9037
SWIDTH 960 0
DWIDTH 18 0
BBX 18 18 0 -3
BITMAP
000000
000000
200200
300600
300600
280a00
280a00
241200
241200
222200
222200
214200
214200
208200
208200
000000
000000
000000
ENDCHAR
STARTCHAR 03-46
ENCODING 9038
SWIDTH 960 0
DWIDTH 18 0
BBX 18 18 0 -3
BITMAP
000000
000000
100400
180400
140400
120400
120400
110400
108400
104400
102400
102400
101400
100c00
100400
000000
000000
000000
ENDCHAR
STARTCHAR 03-47
ENCODING 9039
SWIDTH 960 0
DWIDTH 18 0
BBX 18 18 0 -3
BITMAP
000000
000000
01c000
063000
080800
100400
100400
200200
200200
200200
100400
100400
080800
063000
01c000
000000
000000
000000
ENDCHAR
STARTCHAR 03-48
ENCODING 9040
SWIDTH 960 0
DWIDTH 18 0
BBX 18 18 0 -3
BITMAP
000000
000000
07f000
040c00
040200
040200
040200
040c00
07f000
040000
040000
040000
040000
040000
040000
000000
000000
000000
ENDCHAR
STARTCHAR 03-49
ENCODING 9041
SWIDTH 960 0
DWIDTH 18 0
BBX 18 18 0 -3
BITMAP
000000
000000
01c000
063000
080800
100400
100400
200200
200200
200200
100400
104400
082800
063000
01c800
000400
000000
000000
ENDCHAR
STARTCHAR 03-50
ENCODING 9042
SWIDTH 960 0
DWIDTH 18 0
BBX 18 18 0 -3
BITMAP
000000
000000
0ff000
080800
080400
080400
080400
080800
0ff000
084000
082000
082000
081000
080800
080400
000000
000000
000000
ENDCHAR
STARTCHAR 03-51
ENCODING 9043
SWIDTH 960 0
DWIDTH 18 0
BBX 18 18 0 -3
BITMAP
000000
000000
03e000
041000
080800
080800
080000
060000
01e000
001800
000400
000400
080400
0c0800
03f000
000000
000000
000000
ENDCHAR
STARTCHAR 03-52
ENCODING 9044
SWIDTH 960 0
DWIDTH 18 0
BBX 18 18 0 -3
BITMAP
000000
000000
3ffe00
008000
008000
008000
008000
008000
008000
008000
008000
008000
008000
008000
008000
000000
000000
000000
ENDCHAR
STARTCHAR 03-53
ENCODING 9045
SWIDTH 960 0
DWIDTH 18 0
BBX 18 18 0 -3
BITMAP
000000
000000
080400
080400
080400
080400
080400
080400
080400
080400
080400
080400
040800
061800
01e000
000000
000000
000000
ENDCHAR
STARTCHAR 03-54
ENCODING 9046
SWIDTH 960 0
DWIDTH 18 0
BBX 18 18 0 -3
BITMAP
000000
000000
100200
100200
080400
080400
040800
040800
021000
021000
021000
012000
012000
00c000
00c000
000000
000000
000000
ENDCHAR
STARTCHAR 03-55
ENCODING 9047
SWIDTH 960 0
DWIDTH 18 0
BBX 18 18 0 -3
BITMAP
000000
000000
408100
408100
208200
208200
214200
114400
114400
122400
0a2800
0a2800
0a2800
041000
041000
000000
000000
000000
ENDCHAR
STARTCHAR 03-56
ENCODING 9048
SWIDTH 960 0
DWIDTH 18 0
BBX 18 18 0 -3
BITMAP
000000
000000
100400
100400
080800
041000
022000
014000
008000
014000
022000
041000
080800
100400
100400
000000
000000
000000
ENDCHAR
STARTCHAR 03-57
ENCODING 9049
SWIDTH 960 0
DWIDTH 18 0
BBX 18 18 0 -3
BITMAP
000000
000000
100400
080800
080800
041000
022000
022000
014000
008000
008000
008000
008000
008000
008000
000000
000000
000000
ENDCHAR
STARTCHAR 03-58
ENCODING 9050
SWIDTH 960 0
DWIDTH 18 0
BBX 18 18 0 -3
BITMAP
000000
000000
0ff800
000800
001000
002000
004000
004000
008000
010000
020000
020000
040000
080000
1ffc00
000000
000000
000000
ENDCHAR
STARTCHAR 03-65
ENCODING 9057
SWIDTH 960 0
DWIDTH 18 0
BBX 18 18 0 -3
BITMAP
000000
000000
000000
000000
000000
000000
01e000
021000
041000
00f000
031000
041000
041000
047000
039000
000000
000000
000000
ENDCHAR
STARTCHAR 03-66
ENCODING 9058
SWIDTH 960 0
DWIDTH 18 0
BBX 18 18 0 -3
BITMAP
000000
000000
020000
020000
020000
020000
02e000
031000
020800
020800
020800
020800
020800
031000
02e000
000000
000000
000000
ENDCHAR
STARTCHAR 03-67
ENCODING 9059
SWIDTH 960 0
DWIDTH 18 0
BBX 18 18 0 -3
BITMAP
000000
000000
000000
000000
000000
000000
01e000
061000
040800
080000
080000
080000
040800
061000
01e000
000000
000000
000000
ENDCHAR
STARTCHAR 03-68
ENCODING 9060
SWIDTH 960 0
DWIDTH 18 0
BBX 18 18 0 -3
BITMAP
000000
000000
002000
002000
002000
002000
03a000
046000
082000
082000
082000
082000
082000
046000
03a000
000000
000000
000000
ENDCHAR
STARTCHAR 03-69
ENCODING 9061
SWIDTH 960 0
DWIDTH 18 0
BBX 18 18 0 -3
BITMAP
000000
000000
000000
000000
000000
000000
01f000
020800
040400
07fc00
040000
040000
040400
020800
01f000
000000
000000
000000
ENDCHAR
STARTCHAR 03-70
ENCODING 9062
SWIDTH 960 0
DWIDTH 18 0
BBX 18 18 0 -3
BITMAP
000000
000000
007000
008800
008000
008000
07f000
008000
008000
008000
008000
008000
008000
008000
008000
000000
000000
000000
ENDCHAR
STARTCHAR 03-71
ENCODING 9063
SWIDTH 960 0
DWIDTH 18 0
BBX 18 18 0 -3
BITMAP
000000
000000
000000
000000
000000
000000
03ec00
041000
041000
041000
03e000
020000
01e000
061000
080800
080800
07f000
000000
ENDCHAR
STARTCHAR 03-72
ENCODING 9064
SWIDTH 960 0
DWIDTH 18 0
BBX 18 18 0 -3
BITMAP
000000
000000
020000
020000
020000
020000
02f000
030800
020400
020400
020400
020400
020400
020400
020400
000000
000000
000000
ENDCHAR
STARTCHAR 03-73
ENCODING 9065
SWIDTH 960 0
DWIDTH 18 0
BBX 18 18 0 -3
BITMAP
000000
000000
00c000
00c000
000000
000000
004000
004000
004000
004000
004000
004000
004000
004000
004000
000000
000000
000000
ENDCHAR
STARTCHAR 03-74
ENCODING 9066
SWIDTH 960 0
DWIDTH 18 0
BBX 18 18 0 -3
BITMAP
000000
000000
006000
006000
000000
000000
002000
002000
002000
002000
002000
002000
002000
002000
002000
042000
044000
038000
ENDCHAR
STARTCHAR 03-75
ENCODING 9067
SWIDTH 960 0
DWIDTH 18 0
BBX 18 18 0 -3
BITMAP
000000
000000
020000
020000
020000
020000
020800
021000
022000
024000
02a000
031000
021000
020800
020400
000000
000000
000000
ENDCHAR
STARTCHAR 03-76
ENCODING 9068
SWIDTH 960 0
DWIDTH 18 0
BBX 18 18 0 -3
BITMAP
000000
000000
018000
008000
008000
008000
008000
008000
008000
008000
008000
008000
008000
008000
008000
000000
000000
000000
ENDCHAR
STARTCHAR 03-77
ENCODING 9069
SWIDTH 960 0
DWIDTH 18 0
BBX 18 18 0 -3
BITMAP
000000
000000
000000
000000
000000
000000
0bdc00
0c6200
084200
084200
084200
084200
084200
084200
084200
000000
000000
000000
ENDCHAR
STARTCHAR 03-78
ENCODING 9070
SWIDTH 960 0
DWIDTH 18 0
BBX 18 18 0 -3
BITMAP
000000
000000
000000
000000
000000
000000
05e000
061000
040800
040800
040800
040800
040800
040800
040800
000000
000000
000000
ENDCHAR
STARTCHAR 03-79
ENCODING 9071
SWIDTH 960 0
DWIDTH 18 0
BBX 18 18 0 -3
BITMAP
000000
000000
000000
000000
000000
000000
03e000
041000
080800
080800
080800
080800
080800
041000
03e000
000000
000000
000000
ENDCHAR
STARTCHAR 03-80
ENCODING 9072
SWIDTH 960 0
DWIDTH 18 0
BBX 18 18 0 -3
BITMAP
000000
000000
000000
000000
000000
000000
02f000
030800
020400
020400
020400
020400
030800
02f000
020000
020000
020000
000000
ENDCHAR
STARTCHAR 03-81
ENCODING 9073
SWIDTH 960 0
DWIDTH 18 0
BBX 18 18 0 -3
BITMAP
000000
000000
000000
000000
000000
000000
03d000
043000
081000
081000
081000
081000
043000
03d000
001000
001000
001000
000000
ENDCHAR
STARTCHAR 03-82
ENCODING 9074
SWIDTH 960 0
DWIDTH 18 0
BBX 18 18 0 -3
BITMAP
000000
000000
000000
000000
000000
000000
027000
028800
030000
020000
020000
020000
020000
020000
020000
000000
000000
000000
ENDCHAR
STARTCHAR 03-83
ENCODING 9075
SWIDTH 960 0
DWIDTH 18 0
BBX 18 18 0 -3
BITMAP
000000
000000
000000
000000
000000
000000
01e000
021000
040800
030000
00e000
001000
040800
060800
01f000
000000
000000
000000
ENDCHAR
STARTCHAR 03-84
ENCODING 9076
SWIDTH 960 0
DWIDTH 18 0
BBX 18 18 0 -3
BITMAP
000000
000000
008000
008000
008000
07f000
008000
008000
008000
008000
008000
008000
008000
008000
006000
000000
000000
000000
ENDCHAR
STARTCHAR 03-85
ENCODING 9077
SWIDTH 960 0
DWIDTH 18 0
BBX 18 18 0 -3
BITMAP
000000
000000
000000
000000
000000
000000
041000
041000
041000
041000
041000
041000
041000
023000
01d000
000000
000000
000000
ENDCHAR
STARTCHAR 03-86
ENCODING 9078
SWIDTH 960 0
DWIDTH 18 0
BBX 18 18 0 -3
BITMAP
000000
000000
000000
000000
000000
000000
080800
080800
041000
041000
022000
022000
014000
014000
008000
000000
000000
000000
ENDCHAR
STARTCHAR 03-87
ENCODING 9079
SWIDTH 960 0
DWIDTH 18 0
BBX 18 18 0 -3
BITMAP
000000
000000
000000
000000
000000
000000
108400
108400
088800
094800
094800
055000
055000
022000
022000
000000
000000
000000
ENDCHAR
STARTCHAR 03-88
ENCODING 9080
SWIDTH 960 0
DWIDTH 18 0
BBX 18 18 0 -3
BITMAP
000000
000000
000000
000000
000000
000000
080800
041000
022000
014000
008000
014000
022000
041000
080800
000000
000000
000000
ENDCHAR
STARTCHAR 03-89
ENCODING 9081
SWIDTH 960 0
DWIDTH 18 0
BBX 18 18 0 -3
BITMAP
000000
000000
000000
000000
000000
000000
040800
040800
021000
021000
012000
012000
00c000
004000
008000
010000
060000
000000
ENDCHAR
STARTCHAR 03-90
ENCODING 9082
SWIDTH 960 0
DWIDTH 18 0
BBX 18 18 0 -3
BITMAP
000000
000000
000000
000000
000000
000000
07f800
001000
002000
004000
008000
010000
020000
040000
0ff800
000000
000000
000000
ENDCHAR
STARTCHAR 04-01
ENCODING 9249
SWIDTH 960 0
DWIDTH 18 0
BBX 18 18 0 -3
BITMAP
000000
000000
000000
000000
000000
010000
012000
0fc000
020000
022000
03f000
064800
0a4400
0a8400
098400
060800
003000
000000
ENDCHAR
STARTCHAR 04-02
ENCODING 9250
SWIDTH 960 0
DWIDTH 18 0
BBX 18 18 0 -3
BITMAP
000000
020000
020000
3ff000
040000
042000
042000
04f000
072c00
0c2200
124100
224100
228100
218100
230200
1d0c00
003000
000000
ENDCHAR
STARTCHAR 04-03
ENCODING 9251
SWIDTH 960 0
DWIDTH 18 0
BBX 18 18 0 -3
BITMAP
000000
000000
000000
000000
000000
000000
000000
080000
080800
080400
080400
080200
050200
050000
020000
000000
000000
000000
ENDCHAR
STARTCHAR 04-04
ENCODING 9252
SWIDTH 960 0
DWIDTH 18 0
BBX 18 18 0 -3
BITMAP
000000
000000
000000
200000
200800
200400
200200
200200
200100
200100
200100
200100
120000
120000
140000
0c0000
000000
000000
ENDCHAR
STARTCHAR 04-05
ENCODING 9253
SWIDTH 960 0
DWIDTH 18 0
BBX 18 18 0 -3
BITMAP
000000
000000
000000
000000
000000
038000
006000
000000
01c000
062000
001000
001000
002000
002000
004000
018000
000000
000000
ENDCHAR
STARTCHAR 04-06
ENCODING 9254
SWIDTH 960 0
DWIDTH 18 0
BBX 18 18 0 -3
BITMAP
000000
038000
007000
000000
000000
00f000
0f0800
000400
000400
000400
000400
000800
000800
001000
002000
004000
018000
000000
ENDCHAR
STARTCHAR 04-07
ENCODING 9255
SWIDTH 960 0
DWIDTH 18 0
BBX 18 18 0 -3
BITMAP
000000
000000
000000
000000
030000
00c000
000000
000000
07f000
004000
008000
00c000
014000
024000
044000
083c00
000000
000000
ENDCHAR
STARTCHAR 04-08
ENCODING 9256
SWIDTH 960 0
DWIDTH 18 0
BBX 18 18 0 -3
BITMAP
000000
038000
006000
000000
000000
00f800
1f1000
002000
004000
00e000
012000
022000
042000
082000
102000
201f00
000000
000000
ENDCHAR
STARTCHAR 04-09
ENCODING 9257
SWIDTH 960 0
DWIDTH 18 0
BBX 18 18 0 -3
BITMAP
000000
000000
000000
000000
000000
020000
020000
02ec00
0f0200
020000
02f000
070800
0a0400
120400
124800
0c3000
000000
000000
ENDCHAR
STARTCHAR 04-10
ENCODING 9258
SWIDTH 960 0
DWIDTH 18 0
BBX 18 18 0 -3
BITMAP
000000
020000
020000
020400
03e200
3e0100
020000
020000
020000
02fc00
070200
0a0100
120100
220100
224200
123c00
0c0000
000000
ENDCHAR
STARTCHAR 04-11
ENCODING 9259
SWIDTH 960 0
DWIDTH 18 0
BBX 18 18 0 -3
BITMAP
000000
020000
020000
020000
040800
07c400
3c2200
082200
082100
082100
102100
102000
102000
202000
204000
214000
008000
000000
ENDCHAR
STARTCHAR 04-12
ENCODING 9260
SWIDTH 960 0
DWIDTH 18 0
BBX 18 18 0 -3
BITMAP
000000
020100
020080
020200
040900
07c400
3c2200
082200
082100
082100
102100
102000
102000
202000
204000
214000
008000
000000
ENDCHAR
STARTCHAR 04-13
ENCODING 9261
SWIDTH 960 0
DWIDTH 18 0
BBX 18 18 0 -3
BITMAP
000000
008000
008000
00b800
0fc000
004000
004300
003c00
1fe000
001000
001000
03f800
040800
080000
080000
060000
01f000
000000
ENDCHAR
STARTCHAR 04-14
ENCODING 9262
SWIDTH 960 0
DWIDTH 18 0
BBX 18 18 0 -3
BITMAP
000100
008480
008200
00b800
0fc000
004000
004300
003c00
1fe000
001000
001000
03f800
040800
080000
080000
060000
01f000
000000
ENDCHAR
STARTCHAR 04-15
ENCODING 9263
SWIDTH 960 0
DWIDTH 18 0
BBX 18 18 0 -3
BITMAP
000000
001000
002000
004000
008000
010000
020000
040000
080000
040000
020000
010000
008000
004000
002000
001000
001000
000000
ENDCHAR
STARTCHAR 04-16
ENCODING 9264
SWIDTH 960 0
DWIDTH 18 0
BBX 18 18 0 -3
BITMAP
000000
001000
002000
004000
008400
010200
020800
040400
080000
040000
020000
010000
008000
004000
002000
001000
001000
000000
ENDCHAR
STARTCHAR 04-17
ENCODING 9265
SWIDTH 960 0
DWIDTH 18 0
BBX 18 18 0 -3
BITMAP
000000
000800
200800
200800
200f00
21f800
200800
200800
200800
200800
200800
200800
200800
280800
101000
101000
006000
000000
ENDCHAR
STARTCHAR 04-18
ENCODING 9266
SWIDTH 960 0
DWIDTH 18 0
BBX 18 18 0 -3
BITMAP
000100
000880
200a00
200900
200800
21ff00
200800
200800
200800
200800
200800
200800
200800
280800
101000
101000
006000
000000
ENDCHAR
STARTCHAR 04-19
ENCODING 9267
SWIDTH 960 0
DWIDTH 18 0
BBX 18 18 0 -3
BITMAP
000000
000000
000000
070000
00f800
000000
000000
000000
000000
000000
000000
100000
100000
100000
0c0000
03fe00
000000
000000
ENDCHAR
STARTCHAR 04-20
ENCODING 9268
SWIDTH 960 0
DWIDTH 18 0
BBX 18 18 0 -3
BITMAP
000000
000100
000480
070200
00f800
000000
000000
000000
000000
000000
000000
100000
100000
100000
0c0000
03fe00
000000
000000
ENDCHAR
STARTCHAR 04-21
ENCODING 9269
SWIDTH 960 0
DWIDTH 18 0
BBX 18 18 0 -3
BITMAP
000000
008000
008000
004000
005e00
1fe000
001000
001000
000800
01e400
061c00
080000
080000
080000
040000
070000
00f800
000000
ENDCHAR
STARTCHAR 04-22
ENCODING 9270
SWIDTH 960 0
DWIDTH 18 0
BBX 18 18 0 -3
BITMAP
000100
008080
008200
004100
005e00
1fe000
001000
001000
000800
01e400
061c00
080000
080000
080000
040000
070000
00f800
000000
ENDCHAR
STARTCHAR 04-23
ENCODING 9271
SWIDTH 960 0
DWIDTH 18 0
BBX 18 18 0 -3
BITMAP
000000
000000
040000
040000
040000
040000
040000
040000
040000
040000
040000
040000
040000
040200
040400
021800
01e000
000000
ENDCHAR
STARTCHAR 04-24
ENCODING 9272
SWIDTH 960 0
DWIDTH 18 0
BBX 18 18 0 -3
BITMAP
000000
000000
040000
040800
042400
041000
040000
040000
040000
040000
040000
040000
040000
040200
040400
021800
01e000
000000
ENDCHAR
STARTCHAR 04-25
ENCODING 9273
SWIDTH 960 0
DWIDTH 18 0
BBX 18 18 0 -3
BITMAP
000000
002000
002000
002000
3fff80
002000
002000
01e000
022000
022000
022000
01e000
002000
002000
004000
004000
018000
000000
ENDCHAR
STARTCHAR 04-26
ENCODING 9274
SWIDTH 960 0
DWIDTH 18 0
BBX 18 18 0 -3
BITMAP
000100
004480
004200
004000
7fff00
004000
004000
03c000
044000
044000
044000
03c000
004000
004000
008000
008000
030000
000000
ENDCHAR
STARTCHAR 04-27
ENCODING 9275
SWIDTH 960 0
DWIDTH 18 0
BBX 18 18 0 -3
BITMAP
000000
001000
041000
041000
041000
047f80
7f9000
041000
041000
041000
04e000
040000
040000
040000
020000
01fe00
000000
000000
ENDCHAR
STARTCHAR 04-28
ENCODING 9276
SWIDTH 960 0
DWIDTH 18 0
BBX 18 18 0 -3
BITMAP
000100
001080
041200
041100
041000
047f80
7f9000
041000
041000
041000
04e000
040000
040000
040000
020000
01fe00
000000
000000
ENDCHAR
STARTCHAR 04-29
ENCODING 9277
SWIDTH 960 0
DWIDTH 18 0
BBX 18 18 0 -3
BITMAP
000000
000000
07fc00
001000
006000
008000
030000
041f00
3ff000
004000
008000
008000
010000
010000
008000
00c000
003c00
000000
ENDCHAR
STARTCHAR 04-30
ENCODING 9278
SWIDTH 960 0
DWIDTH 18 0
BBX 18 18 0 -3
BITMAP
000000
000100
07fc80
001200
006100
008000
030000
041f00
3ff000
004000
008000
008000
010000
010000
008000
00c000
003c00
000000
ENDCHAR
STARTCHAR 04-31
ENCODING 9279
SWIDTH 960 0
DWIDTH 18 0
BBX 18 18 0 -3
BITMAP
000000
020000
020000
020000
3fe000
020000
020000
043f00
040000
040000
040000
080000
088000
088000
104000
103f00
100000
000000
ENDCHAR
STARTCHAR 04-32
ENCODING 9280
SWIDTH 960 0
DWIDTH 18 0
BBX 18 18 0 -3
BITMAP
000000
020200
020100
020400
3fe200
020000
020000
043f00
040000
040000
040000
080000
088000
088000
104000
103f00
100000
000000
ENDCHAR
STARTCHAR 04-33
ENCODING 9281
SWIDTH 960 0
DWIDTH 18 0
BBX 18 18 0 -3
BITMAP
000000
020000
020000
020000
3ff000
020000
040000
040000
047800
098400
0a0200
040200
000200
000200
000400
001800
03e000
000000
ENDCHAR
STARTCHAR 04-34
ENCODING 9282
SWIDTH 960 0
DWIDTH 18 0
BBX 18 18 0 -3
BITMAP
000000
020200
020100
020400
3ff200
020000
040000
040000
047800
098400
0a0200
040200
000200
000200
000400
001800
03e000
000000
ENDCHAR
STARTCHAR 04-35
ENCODING 9283
SWIDTH 960 0
DWIDTH 18 0
BBX 18 18 0 -3
BITMAP
000000
000000
000000
000000
000000
000000
000000
000000
00f000
1f0800
000400
000400
000400
000800
003000
01c000
000000
000000
ENDCHAR
STARTCHAR 04-36
ENCODING 9284
SWIDTH 960 0
DWIDTH 18 0
BBX 18 18 0 -3
BITMAP
000000
000000
000000
000000
03f800
7c0400
000200
000100
000100
000100
000200
000400
001800
03e000
000000
000000
000000
000000
ENDCHAR
STARTCHAR 04-37
ENCODING 9285
SWIDTH 960 0
DWIDTH 18 0
BBX 18 18 0 -3
BITMAP
000000
000100
000480
000200
03f800
7c0400
000200
000100
000100
000100
000200
000400
001800
03e000
000000
000000
000000
000000
ENDCHAR
STARTCHAR 04-38
ENCODING 9286
SWIDTH 960 0
DWIDTH 18 0
BBX 18 18 0 -3
BITMAP
000000
000000
007e00
7f9800
002000
004000
008000
008000
010000
010000
010000
010000
010000
008000
004000
003c00
000000
000000
ENDCHAR
STARTCHAR 04-39
ENCODING 9287
SWIDTH 960 0
DWIDTH 18 0
BBX 18 18 0 -3
BITMAP
000000
000000
007e00
7f9800
002000
004000
008200
008100
010400
010200
010000
010000
010000
008000
004000
003c00
000000
000000
ENDCHAR
STARTCHAR 04-40
ENCODING 9288
SWIDTH 960 0
DWIDTH 18 0
BBX 18 18 0 -3
BITMAP
000000
020000
020000
020000
020000
020000
011c00
016000
018000
020000
040000
080000
080000
080000
040000
03fc00
000000
000000
ENDCHAR
STARTCHAR 04-41
ENCODING 9289
SWIDTH 960 0
DWIDTH 18 0
BBX 18 18 0 -3
BITMAP
000000
020000
020200
020100
020400
020200
011c00
016000
018000
020000
040000
080000
080000
080000
040000
03fc00
000000
000000
ENDCHAR
STARTCHAR 04-42
ENCODING 9290
SWIDTH 960 0
DWIDTH 18 0
BBX 18 18 0 -3
BITMAP
000000
020000
020000
020000
3fcc00
040200
040100
081000
081000
101000
101000
201000
20f000
011c00
021200
023000
01c000
000000
ENDCHAR
STARTCHAR 04-43
ENCODING 9291
SWIDTH 960 0
DWIDTH 18 0
BBX 18 18 0 -3
BITMAP
000000
000000
100000
100000
10fe00
100000
100000
100000
100000
100000
100000
110000
110000
108000
147f00
080000
080000
000000
ENDCHAR
STARTCHAR 04-44
ENCODING 9292
SWIDTH 960 0
DWIDTH 18 0
BBX 18 18 0 -3
BITMAP
000000
004000
004000
104000
10f000
134c00
0c8200
088200
190100
150100
250100
260100
223d00
264200
194500
003880
000000
000000
ENDCHAR
STARTCHAR 04-45
ENCODING 9293
SWIDTH 960 0
DWIDTH 18 0
BBX 18 18 0 -3
BITMAP
000000
040000
040000
040000
053c00
7ec200
070200
060100
0c0100
0c0100
140100
140100
243d00
444200
044300
043c80
040000
000000
ENDCHAR
STARTCHAR 04-46
ENCODING 9294
SWIDTH 960 0
DWIDTH 18 0
BBX 18 18 0 -3
BITMAP
000000
000000
000000
01f000
064c00
084200
104200
108100
208100
208100
208100
210100
210200
120200
0c0c00
003000
000000
000000
ENDCHAR
STARTCHAR 04-47
ENCODING 9295
SWIDTH 960 0
DWIDTH 18 0
BBX 18 18 0 -3
BITMAP
000000
100800
100800
100800
100800
21ff00
200800
200800
200800
200800
200800
200800
200800
20f800
210e00
290900
10f000
000000
ENDCHAR
STARTCHAR 04-48
ENCODING 9296
SWIDTH 960 0
DWIDTH 18 0
BBX 18 18 0 -3
BITMAP
000100
100880
100a00
100900
100800
21ff00
200800
200800
200800
200800
200800
200800
200800
20f800
210e00
290900
10f000
000000
ENDCHAR
STARTCHAR 04-49
ENCODING 9297
SWIDTH 960 0
DWIDTH 18 0
BBX 18 18 0 -3
BITMAP
000180
100a40
100a40
100980
100800
21ff00
200800
200800
200800
200800
200800
200800
200800
20f800
210e00
290900
10f000
000000
ENDCHAR
STARTCHAR 04-50
ENCODING 9298
SWIDTH 960 0
DWIDTH 18 0
BBX 18 18 0 -3
BITMAP
000000
000000
021000
0e1000
340800
040800
080c00
080a00
080900
100800
100800
100800
101000
081000
0c2000
03c000
000000
000000
ENDCHAR
STARTCHAR 04-51
ENCODING 9299
SWIDTH 960 0
DWIDTH 18 0
BBX 18 18 0 -3
BITMAP
000000
000100
021480
0e1200
340800
040800
080c00
080a00
080900
100800
100800
100800
101000
081000
0c2000
03c000
000000
000000
ENDCHAR
STARTCHAR 04-52
ENCODING 9300
SWIDTH 960 0
DWIDTH 18 0
BBX 18 18 0 -3
BITMAP
000300
000480
021480
0e1300
340800
040800
080c00
080a00
080900
100800
100800
100800
101000
081000
0c2000
03c000
000000
000000
ENDCHAR
STARTCHAR 04-53
ENCODING 9301
SWIDTH 960 0
DWIDTH 18 0
BBX 18 18 0 -3
BITMAP
000000
000000
038000
007000
000000
000000
010000
010000
010000
008000
004400
042200
081100
101080
221000
222000
01c000
000000
ENDCHAR
STARTCHAR 04-54
ENCODING 9302
SWIDTH 960 0
DWIDTH 18 0
BBX 18 18 0 -3
BITMAP
000000
000000
038100
007480
000200
000000
010000
010000
010000
008000
004400
042200
081100
101080
221000
222000
01c000
000000
ENDCHAR
STARTCHAR 04-55
ENCODING 9303
SWIDTH 960 0
DWIDTH 18 0
BBX 18 18 0 -3
BITMAP
000000
000300
038480
007480
000300
000000
010000
010000
010000
008000
004400
042200
081100
101080
221000
222000
01c000
000000
ENDCHAR
STARTCHAR 04-56
ENCODING 9304
SWIDTH 960 0
DWIDTH 18 0
BBX 18 18 0 -3
BITMAP
000000
000000
000000
000000
018000
024000
042000
081000
100800
200400
000200
000100
000080
000000
000000
000000
000000
000000
ENDCHAR
STARTCHAR 04-57
ENCODING 9305
SWIDTH 960 0
DWIDTH 18 0
BBX 18 18 0 -3
BITMAP
000000
000200
000100
000800
018400
024000
042000
081000
100800
200400
000200
000100
000080
000000
000000
000000
000000
000000
ENDCHAR
STARTCHAR 04-58
ENCODING 9306
SWIDTH 960 0
DWIDTH 18 0
BBX 18 18 0 -3
BITMAP
000000
000000
000000
000600
018900
024900
042600
081000
100800
200400
000200
000100
000080
000000
000000
000000
000000
000000
ENDCHAR
STARTCHAR 04-59
ENCODING 9307
SWIDTH 960 0
DWIDTH 18 0
BBX 18 18 0 -3
BITMAP
000000
000000
11ff00
101000
100800
100800
21ff80
200800
200800
200800
200800
200800
200800
20f800
210e00
290980
10f000
000000
ENDCHAR
STARTCHAR 04-60
ENCODING 9308
SWIDTH 960 0
DWIDTH 18 0
BBX 18 18 0 -3
BITMAP
000000
000080
11fe40
101140
100900
100800
21ff80
200800
200800
200800
200800
200800
200800
20f800
210e00
290980
10f000
000000
ENDCHAR
STARTCHAR 04-61
ENCODING 9309
SWIDTH 960 0
DWIDTH 18 0
BBX 18 18 0 -3
BITMAP
000180
000240
11fe40
101180
100800
100800
21ff80
200800
200800
200800
200800
200800
200800
20f800
210e00
290980
10f000
000000
ENDCHAR
STARTCHAR 04-62
ENCODING 9310
SWIDTH 960 0
DWIDTH 18 0
BBX 18 18 0 -3
BITMAP
000000
004000
004000
004000
1ffe00
004000
004000
0c4000
03fc00
004000
004000
004000
07c000
087000
104c00
104200
0f8000
000000
ENDCHAR
STARTCHAR 04-63
ENCODING 9311
SWIDTH 960 0
DWIDTH 18 0
BBX 18 18 0 -3
BITMAP
000000
000000
000000
1fc000
004000
004000
008200
008200
010200
07f400
190e00
220500
420880
440800
381000
002000
004000
000000
ENDCHAR
STARTCHAR 04-64
ENCODING 9312
SWIDTH 960 0
DWIDTH 18 0
BBX 18 18 0 -3
BITMAP
000000
020000
020000
020000
3fe000
020400
020200
020100
1e0000
220000
220000
240400
1c0200
040200
040200
020400
01f800
000000
ENDCHAR
STARTCHAR 04-65
ENCODING 9313
SWIDTH 960 0
DWIDTH 18 0
BBX 18 18 0 -3
BITMAP
000000
002000
002000
102000
10f000
0b4c00
0c4200
144200
148100
228100
230100
210100
228200
140200
080400
003800
000000
000000
ENDCHAR
STARTCHAR 04-66
ENCODING 9314
SWIDTH 960 0
DWIDTH 18 0
BBX 18 18 0 -3
BITMAP
000000
010000
010000
010000
010000
1fe000
020000
020000
020000
1fe000
040200
040200
040200
040400
020400
031800
00e000
000000
ENDCHAR
STARTCHAR 04-67
ENCODING 9315
SWIDTH 960 0
DWIDTH 18 0
BBX 18 18 0 -3
BITMAP
000000
000000
000000
000000
000000
008000
088000
084000
047800
078400
3a0400
020800
017000
010000
010000
008000
008000
000000
ENDCHAR
STARTCHAR 04-68
ENCODING 9316
SWIDTH 960 0
DWIDTH 18 0
BBX 18 18 0 -3
BITMAP
000000
000000
082000
082000
043c00
04e300
030080
1e0080
620080
013100
010e00
010000
008000
008000
004000
004000
004000
000000
ENDCHAR
STARTCHAR 04-69
ENCODING 9317
SWIDTH 960 0
DWIDTH 18 0
BBX 18 18 0 -3
BITMAP
000000
000000
000000
000000
000000
004000
004000
084000
09f000
0a4800
0c4400
0c4400
084400
094800
00f000
008000
010000
000000
ENDCHAR
STARTCHAR 04-70
ENCODING 9318
SWIDTH 960 0
DWIDTH 18 0
BBX 18 18 0 -3
BITMAP
000000
004000
002000
102000
107c00
21a300
222100
242080
282080
282080
112100
10a600
107800
004000
004000
008000
010000
000000
ENDCHAR
STARTCHAR 04-71
ENCODING 9319
SWIDTH 960 0
DWIDTH 18 0
BBX 18 18 0 -3
BITMAP
000000
000000
000000
000000
000000
008000
008000
008000
00f800
008000
008000
008000
078000
08e000
089800
070000
000000
000000
ENDCHAR
STARTCHAR 04-72
ENCODING 9320
SWIDTH 960 0
DWIDTH 18 0
BBX 18 18 0 -3
BITMAP
000000
004000
004000
004000
004000
007e00
004000
004000
004000
004000
004000
004000
07c000
087000
104c00
108200
0f0000
000000
ENDCHAR
STARTCHAR 04-73
ENCODING 9321
SWIDTH 960 0
DWIDTH 18 0
BBX 18 18 0 -3
BITMAP
000000
030000
00e000
000000
000000
040000
040000
040000
087000
098c00
0a0400
0c0200
000200
000200
000400
000c00
01f000
000000
ENDCHAR
STARTCHAR 04-74
ENCODING 9322
SWIDTH 960 0
DWIDTH 18 0
BBX 18 18 0 -3
BITMAP
000000
001000
080800
080800
080800
080800
080800
080800
080800
0a0800
040800
001000
001000
002000
004000
008000
010000
000000
ENDCHAR
STARTCHAR 04-75
ENCODING 9323
SWIDTH 960 0
DWIDTH 18 0
BBX 18 18 0 -3
BITMAP
000000
000000
007800
079000
002000
004000
008000
010000
02f000
070c00
080200
100200
000200
01c200
022400
021800
01f000
000000
ENDCHAR
STARTCHAR 04-76
ENCODING 9324
SWIDTH 960 0
DWIDTH 18 0
BBX 18 18 0 -3
BITMAP
000000
040000
040000
040000
071800
3d6400
068400
050400
060400
0c0400
1c0400
240400
440400
040480
040500
040200
040000
000000
ENDCHAR
STARTCHAR 04-77
ENCODING 9325
SWIDTH 960 0
DWIDTH 18 0
BBX 18 18 0 -3
BITMAP
000000
000000
0ff000
002000
004000
008000
010000
02f000
070c00
0c0400
100200
000200
000200
000400
001800
03e000
000000
000000
ENDCHAR
STARTCHAR 04-78
ENCODING 9326
SWIDTH 960 0
DWIDTH 18 0
BBX 18 18 0 -3
BITMAP
000000
000000
000000
000000
000000
020000
020000
070000
1af800
070400
060200
0a0200
0a0200
120400
023800
020000
000000
000000
ENDCHAR
STARTCHAR 04-79
ENCODING 9327
SWIDTH 960 0
DWIDTH 18 0
BBX 18 18 0 -3
BITMAP
000000
020000
020000
020000
038000
3e8000
037c00
028300
070100
0e0080
0a0080
120080
220100
420100
020600
023800
020000
000000
ENDCHAR
STARTCHAR 04-80
ENCODING 9328
SWIDTH 960 0
DWIDTH 18 0
BBX 18 18 0 -3
BITMAP
000000
000000
01c000
0e4000
004000
004000
01f800
068600
088200
110100
210100
220100
223100
244a00
184600
003800
000000
000000
ENDCHAR
STARTCHAR 04-81
ENCODING 9329
SWIDTH 960 0
DWIDTH 18 0
BBX 18 18 0 -3
BITMAP
000000
000000
0fc000
010000
020000
07e000
0c1000
101000
031000
04a000
07c000
020000
061e00
196100
218100
410600
000000
000000
ENDCHAR
STARTCHAR 04-82
ENCODING 9330
SWIDTH 960 0
DWIDTH 18 0
BBX 18 18 0 -3
BITMAP
000000
010000
010000
010000
3ff000
020000
020000
05c000
0e2700
183800
206000
01a000
022000
040000
040000
020000
01fc00
000000
ENDCHAR
STARTCHAR 04-83
ENCODING 9331
SWIDTH 960 0
DWIDTH 18 0
BBX 18 18 0 -3
BITMAP
000000
000000
008000
008000
010000
010000
020000
020000
020000
05c000
062080
0c2080
082100
102100
102200
202400
201800
000000
ENDCHAR
STARTCHAR 04-84
ENCODING 9332
SWIDTH 960 0
DWIDTH 18 0
BBX 18 18 0 -3
BITMAP
000000
038000
007100
000480
000200
00f000
0f0800
000400
000400
000400
000400
000800
000800
001000
002000
004000
018000
000000
ENDCHAR
STARTCHAR 05-01
ENCODING 9505
SWIDTH 960 0
DWIDTH 18 0
BBX 18 18 0 -3
BITMAP
000000
000000
000000
000000
000000
000000
000000
0ffc00
000800
009000
00a000
008000
008000
010000
010000
020000
000000
000000
ENDCHAR
STARTCHAR 05-02
ENCODING 9506
SWIDTH 960 0
DWIDTH 18 0
BBX 18 18 0 -3
BITMAP
000000
000000
000000
3fff00
000100
000200
004400
004800
005000
004000
008000
008000
008000
010000
010000
020000
040000
000000
ENDCHAR
STARTCHAR 05-03
ENCODING 9507
SWIDTH 960 0
DWIDTH 18 0
BBX 18 18 0 -3
BITMAP
000000
000000
000000
000000
000000
000800
001000
002000
004000
00c000
034000
0c4000
004000
004000
004000
004000
000000
000000
ENDCHAR
STARTCHAR 05-04
ENCODING 9508
SWIDTH 960 0
DWIDTH 18 0
BBX 18 18 0 -3
BITMAP
000000
000400
000400
000800
001000
002000
004000
00c000
034000
0c4000
304000
004000
004000
004000
004000
004000
004000
000000
ENDCHAR
STARTCHAR 05-05
ENCODING 9509
SWIDTH 960 0
DWIDTH 18 0
BBX 18 18 0 -3
BITMAP
000000
000000
000000
000000
000000
004000
004000
07fc00
040400
040400
040400
000800
000800
001000
006000
018000
000000
000000
ENDCHAR
STARTCHAR 05-06
ENCODING 9510
SWIDTH 960 0
DWIDTH 18 0
BBX 18 18 0 -3
BITMAP
000000
004000
004000
004000
004000
1ffe00
100200
100200
100200
100200
000200
000400
000400
000800
001000
006000
038000
000000
ENDCHAR
STARTCHAR 05-07
ENCODING 9511
SWIDTH 960 0
DWIDTH 18 0
BBX 18 18 0 -3
BITMAP
000000
000000
000000
000000
000000
000000
000000
07f000
008000
008000
008000
008000
008000
008000
1ffc00
000000
000000
000000
ENDCHAR
STARTCHAR 05-08
ENCODING 9512
SWIDTH 960 0
DWIDTH 18 0
BBX 18 18 0 -3
BITMAP
000000
000000
000000
000000
1ffc00
008000
008000
008000
008000
008000
008000
008000
008000
008000
7fff00
000000
000000
000000
ENDCHAR
STARTCHAR 05-09
ENCODING 9513
SWIDTH 960 0
DWIDTH 18 0
BBX 18 18 0 -3
BITMAP
000000
000000
000000
000000
000000
002000
002000
002000
0ffe00
006000
006000
00a000
012000
022000
0c2000
00e000
000000
000000
ENDCHAR
STARTCHAR 05-10
ENCODING 9514
SWIDTH 960 0
DWIDTH 18 0
BBX 18 18 0 -3
BITMAP
000000
001000
001000
001000
001000
3fff80
003000
003000
005000
005000
009000
011000
021000
0c1000
301000
001000
007000
000000
ENDCHAR
STARTCHAR 05-11
ENCODING 9515
SWIDTH 960 0
DWIDTH 18 0
BBX 18 18 0 -3
BITMAP
000000
008000
008000
008000
008000
3ffe00
008200
008200
008200
010200
010200
010200
020200
020200
040400
080400
101800
000000
ENDCHAR
STARTCHAR 05-12
ENCODING 9516
SWIDTH 960 0
DWIDTH 18 0
BBX 18 18 0 -3
BITMAP
000000
008100
008080
008200
008100
3ffe00
008200
008200
008200
010200
010200
010200
020200
020200
040400
080400
101800
000000
ENDCHAR
STARTCHAR 05-13
ENCODING 9517
SWIDTH 960 0
DWIDTH 18 0
BBX 18 18 0 -3
BITMAP
000000
008000
008000
008000
00fc00
1f8000
004000
004000
004f00
01f000
3e2000
002000
002000
001000
001000
001000
001000
000000
ENDCHAR
STARTCHAR 05-14
ENCODING 9518
SWIDTH 960 0
DWIDTH 18 0
BBX 18 18 0 -3
BITMAP
000000
008100
008480
008200
00fc00
1f8000
004000
004000
004f00
01f000
3e2000
002000
002000
001000
001000
001000
001000
000000
ENDCHAR
STARTCHAR 05-15
ENCODING 9519
SWIDTH 960 0
DWIDTH 18 0
BBX 18 18 0 -3
BITMAP
000000
000000
010000
010000
01fc00
020400
020400
040400
080800
100800
001000
001000
002000
004000
008000
030000
0c0000
000000
ENDCHAR
STARTCHAR 05-16
ENCODING 9520
SWIDTH 960 0
DWIDTH 18 0
BBX 18 18 0 -3
BITMAP
000100
000080
010200
010100
01fc00
020400
020400
040400
080800
100800
001000
001000
002000
004000
008000
030000
0c0000
000000
ENDCHAR
STARTCHAR 05-17
ENCODING 9521
SWIDTH 960 0
DWIDTH 18 0
BBX 18 18 0 -3
BITMAP
000000
020000
020000
020000
040000
07ff00
041000
081000
081000
101000
201000
001000
002000
002000
004000
018000
060000
000000
ENDCHAR
STARTCHAR 05-18
ENCODING 9522
SWIDTH 960 0
DWIDTH 18 0
BBX 18 18 0 -3
BITMAP
000200
020900
020400
020000
040000
07ff00
041000
081000
081000
101000
201000
001000
002000
002000
004000
018000
060000
000000
ENDCHAR
STARTCHAR 05-19
ENCODING 9523
SWIDTH 960 0
DWIDTH 18 0
BBX 18 18 0 -3
BITMAP
000000
000000
000000
000000
1ffe00
000200
000200
000200
000200
000200
000200
000200
000200
000200
1ffe00
000200
000000
000000
ENDCHAR
STARTCHAR 05-20
ENCODING 9524
SWIDTH 960 0
DWIDTH 18 0
BBX 18 18 0 -3
BITMAP
000100
000080
000200
000100
1ffe00
000200
000200
000200
000200
000200
000200
000200
000200
000200
1ffe00
000200
000000
000000
ENDCHAR
STARTCHAR 05-21
ENCODING 9525
SWIDTH 960 0
DWIDTH 18 0
BBX 18 18 0 -3
BITMAP
000000
000000
040800
040800
040800
040800
7fff80
040800
040800
040800
040800
000800
001000
001000
002000
004000
018000
000000
ENDCHAR
STARTCHAR 05-22
ENCODING 9526
SWIDTH 960 0
DWIDTH 18 0
BBX 18 18 0 -3
BITMAP
000100
000080
040a00
040900
040800
040800
7fff80
040800
040800
040800
040800
000800
001000
001000
002000
004000
018000
000000
ENDCHAR
STARTCHAR 05-23
ENCODING 9527
SWIDTH 960 0
DWIDTH 18 0
BBX 18 18 0 -3
BITMAP
000000
000000
000000
0c0000
030000
000100
000100
180100
060200
000200
000400
000800
001000
002000
004000
018000
0e0000
000000
ENDCHAR
STARTCHAR 05-24
ENCODING 9528
SWIDTH 960 0
DWIDTH 18 0
BBX 18 18 0 -3
BITMAP
000000
000200
000900
0c0400
030000
000100
000100
180100
060200
000200
000400
000800
001000
002000
004000
018000
0e0000
000000
ENDCHAR
STARTCHAR 05-25
ENCODING 9529
SWIDTH 960 0
DWIDTH 18 0
BBX 18 18 0 -3
BITMAP
000000
000000
000000
1ff800
000800
000800
000800
000800
001000
001000
003000
004800
008400
010200
060100
380100
000000
000000
ENDCHAR
STARTCHAR 05-26
ENCODING 9530
SWIDTH 960 0
DWIDTH 18 0
BBX 18 18 0 -3
BITMAP
000000
000100
000480
1ffa00
000800
000800
000800
000800
001000
001000
003000
004800
008400
010200
060100
380100
000000
000000
ENDCHAR
STARTCHAR 05-27
ENCODING 9531
SWIDTH 960 0
DWIDTH 18 0
BBX 18 18 0 -3
BITMAP
000000
040000
040000
040000
040000
07fe00
7c0200
040400
040800
041000
040000
040000
040000
040000
020000
01fe00
000000
000000
ENDCHAR
STARTCHAR 05-28
ENCODING 9532
SWIDTH 960 0
DWIDTH 18 0
BBX 18 18 0 -3
BITMAP
000100
040480
040280
040200
040000
07fe00
7c0200
040400
040800
041000
040000
040000
040000
040000
020000
01fe00
000000
000000
ENDCHAR
STARTCHAR 05-29
ENCODING 9533
SWIDTH 960 0
DWIDTH 18 0
BBX 18 18 0 -3
BITMAP
000000
000000
000000
000200
080200
040200
020200
020400
000400
000400
000800
000800
001000
002000
004000
018000
060000
000000
ENDCHAR
STARTCHAR 05-30
ENCODING 9534
SWIDTH 960 0
DWIDTH 18 0
BBX 18 18 0 -3
BITMAP
000100
000080
000200
000100
080200
040200
020200
020400
000400
000400
000800
000800
001000
002000
004000
018000
060000
000000
ENDCHAR
STARTCHAR 05-31
ENCODING 9535
SWIDTH 960 0
DWIDTH 18 0
BBX 18 18 0 -3
BITMAP
000000
010000
010000
01fc00
020400
020400
040400
050400
08c800
102800
001000
001000
002000
004000
008000
030000
0c0000
000000
ENDCHAR
STARTCHAR 05-32
ENCODING 9536
SWIDTH 960 0
DWIDTH 18 0
BBX 18 18 0 -3
BITMAP
000100
010480
010200
01fc00
020400
020400
040400
050400
08c800
102800
001000
001000
002000
004000
008000
030000
0c0000
000000
ENDCHAR
STARTCHAR 05-33
ENCODING 9537
SWIDTH 960 0
DWIDTH 18 0
BBX 18 18 0 -3
BITMAP
000000
000c00
007000
0fa000
002000
002000
002000
3fff80
002000
002000
002000
002000
004000
004000
008000
010000
060000
000000
ENDCHAR
STARTCHAR 05-34
ENCODING 9538
SWIDTH 960 0
DWIDTH 18 0
BBX 18 18 0 -3
BITMAP
000100
000c80
007200
0fa100
002000
002000
002000
3fff80
002000
002000
002000
002000
004000
004000
008000
010000
060000
000000
ENDCHAR
STARTCHAR 05-35
ENCODING 9539
SWIDTH 960 0
DWIDTH 18 0
BBX 18 18 0 -3
BITMAP
000000
000000
000000
000000
000000
000000
000000
010400
088400
048400
040800
000800
001000
002000
004000
018000
000000
000000
ENDCHAR
STARTCHAR 05-36
ENCODING 9540
SWIDTH 960 0
DWIDTH 18 0
BBX 18 18 0 -3
BITMAP
000000
000000
000000
020200
210200
108200
088200
080400
000400
000400
000800
000800
001000
002000
004000
018000
060000
000000
ENDCHAR
STARTCHAR 05-37
ENCODING 9541
SWIDTH 960 0
DWIDTH 18 0
BBX 18 18 0 -3
BITMAP
000100
000480
000200
020000
210200
108200
088200
080400
000400
000400
000800
000800
001000
002000
004000
018000
060000
000000
ENDCHAR
STARTCHAR 05-38
ENCODING 9542
SWIDTH 960 0
DWIDTH 18 0
BBX 18 18 0 -3
BITMAP
000000
000000
000000
0ff800
000000
000000
000000
3fff00
004000
004000
004000
004000
004000
008000
008000
010000
060000
000000
ENDCHAR
STARTCHAR 05-39
ENCODING 9543
SWIDTH 960 0
DWIDTH 18 0
BBX 18 18 0 -3
BITMAP
000100
000080
000200
0ff900
000000
000000
000000
3fff00
004000
004000
004000
004000
004000
008000
008000
010000
060000
000000
ENDCHAR
STARTCHAR 05-40
ENCODING 9544
SWIDTH 960 0
DWIDTH 18 0
BBX 18 18 0 -3
BITMAP
000000
000000
010000
010000
010000
010000
010000
010000
01c000
013000
010800
010400
010000
010000
010000
010000
010000
000000
ENDCHAR
STARTCHAR 05-41
ENCODING 9545
SWIDTH 960 0
DWIDTH 18 0
BBX 18 18 0 -3
BITMAP
000000
000000
010400
010200
010800
010400
010000
010000
01c000
013000
010800
010400
010000
010000
010000
010000
010000
000000
ENDCHAR
STARTCHAR 05-42
ENCODING 9546
SWIDTH 960 0
DWIDTH 18 0
BBX 18 18 0 -3
BITMAP
000000
000000
004000
004000
004000
004000
3fff00
004000
004000
004000
004000
004000
004000
008000
008000
030000
0c0000
000000
ENDCHAR
STARTCHAR 05-43
ENCODING 9547
SWIDTH 960 0
DWIDTH 18 0
BBX 18 18 0 -3
BITMAP
000000
000000
000000
000000
000000
0ffc00
000000
000000
000000
000000
000000
000000
000000
000000
3fff00
000000
000000
000000
ENDCHAR
STARTCHAR 05-44
ENCODING 9548
SWIDTH 960 0
DWIDTH 18 0
BBX 18 18 0 -3
BITMAP
000000
000000
000000
1ffc00
000400
000400
000400
030800
008800
005000
002000
005000
008800
010400
020400
0c0000
300000
000000
ENDCHAR
STARTCHAR 05-45
ENCODING 9549
SWIDTH 960 0
DWIDTH 18 0
BBX 18 18 0 -3
BITMAP
000000
004000
004000
004000
0ff800
000800
001000
002000
004000
00d800
034400
0c4200
304100
004000
004000
004000
004000
000000
ENDCHAR
STARTCHAR 05-46
ENCODING 9550
SWIDTH 960 0
DWIDTH 18 0
BBX 18 18 0 -3
BITMAP
000000
000000
000000
000400
000400
000400
000800
000800
001000
001000
002000
004000
008000
010000
060000
180000
000000
000000
ENDCHAR
STARTCHAR 05-47
ENCODING 9551
SWIDTH 960 0
DWIDTH 18 0
BBX 18 18 0 -3
BITMAP
000000
000000
000000
000000
002000
021000
020800
020400
040400
040200
080200
080100
100100
200100
400100
000000
000000
000000
ENDCHAR
STARTCHAR 05-48
ENCODING 9552
SWIDTH 960 0
DWIDTH 18 0
BBX 18 18 0 -3
BITMAP
000000
000200
000100
000400
002200
021000
020800
020400
040400
040200
080200
080100
100100
200100
400100
000000
000000
000000
ENDCHAR
STARTCHAR 05-49
ENCODING 9553
SWIDTH 960 0
DWIDTH 18 0
BBX 18 18 0 -3
BITMAP
000000
000300
000480
000480
002300
021000
020800
020400
040400
040200
080200
080100
100100
200100
400100
000000
000000
000000
ENDCHAR
STARTCHAR 05-50
ENCODING 9554
SWIDTH 960 0
DWIDTH 18 0
BBX 18 18 0 -3
BITMAP
000000
000000
080000
080000
080000
080c00
087000
0f8000
080000
080000
080000
080000
080000
080000
040000
03fe00
000000
000000
ENDCHAR
STARTCHAR 05-51
ENCODING 9555
SWIDTH 960 0
DWIDTH 18 0
BBX 18 18 0 -3
BITMAP
000000
000100
080480
080200
080000
080c00
087000
0f8000
080000
080000
080000
080000
080000
080000
040000
03fe00
000000
000000
ENDCHAR
STARTCHAR 05-52
ENCODING 9556
SWIDTH 960 0
DWIDTH 18 0
BBX 18 18 0 -3
BITMAP
000300
000480
080480
080300
080000
080c00
087000
0f8000
080000
080000
080000
080000
080000
080000
040000
03fe00
000000
000000
ENDCHAR
STARTCHAR 05-53
ENCODING 9557
SWIDTH 960 0
DWIDTH 18 0
BBX 18 18 0 -3
BITMAP
000000
000000
000000
000000
1ffe00
000200
000200
000200
000200
000400
000400
000800
000800
001000
002000
00c000
070000
000000
ENDCHAR
STARTCHAR 05-54
ENCODING 9558
SWIDTH 960 0
DWIDTH 18 0
BBX 18 18 0 -3
BITMAP
000000
000100
000480
000200
1ffe00
000200
000200
000200
000200
000400
000400
000800
000800
001000
002000
00c000
070000
000000
ENDCHAR
STARTCHAR 05-55
ENCODING 9559
SWIDTH 960 0
DWIDTH 18 0
BBX 18 18 0 -3
BITMAP
000300
000480
000480
000300
1ffe00
000200
000200
000200
000200
000400
000400
000800
000800
001000
002000
00c000
070000
000000
ENDCHAR
STARTCHAR 05-56
ENCODING 9560
SWIDTH 960 0
DWIDTH 18 0
BBX 18 18 0 -3
BITMAP
000000
000000
000000
000000
000000
018000
024000
042000
081000
100800
200400
000200
000180
000000
000000
000000
000000
000000
ENDCHAR
STARTCHAR 05-57
ENCODING 9561
SWIDTH 960 0
DWIDTH 18 0
BBX 18 18 0 -3
BITMAP
000000
000000
000000
000400
001200
018800
024000
042000
081000
100800
200400
000200
000180
000000
000000
000000
000000
000000
ENDCHAR
STARTCHAR 05-58
ENCODING 9562
SWIDTH 960 0
DWIDTH 18 0
BBX 18 18 0 -3
BITMAP
000000
000000
000000
000600
000900
018900
024600
042000
081000
100800
200400
000200
000180
000000
000000
000000
000000
000000
ENDCHAR
STARTCHAR 05-59
ENCODING 9563
SWIDTH 960 0
DWIDTH 18 0
BBX 18 18 0 -3
BITMAP
000000
004000
004000
004000
004000
3fff80
004000
004000
044800
044400
084200
084100
104100
204000
004000
014000
00c000
000000
ENDCHAR
STARTCHAR 05-60
ENCODING 9564
SWIDTH 960 0
DWIDTH 18 0
BBX 18 18 0 -3
BITMAP
000000
004100
004480
004200
004000
3fff80
004000
004000
044800
044400
084200
084100
104100
204000
004000
014000
00c000
000000
ENDCHAR
STARTCHAR 05-61
ENCODING 9565
SWIDTH 960 0
DWIDTH 18 0
BBX 18 18 0 -3
BITMAP
000300
004480
004480
004300
004000
3fff80
004000
004000
044800
044400
084200
084100
104100
204000
004000
014000
00c000
000000
ENDCHAR
STARTCHAR 05-62
ENCODING 9566
SWIDTH 960 0
DWIDTH 18 0
BBX 18 18 0 -3
BITMAP
000000
000000
000000
000000
3ffe00
000200
000400
000400
000800
061000
012000
00c000
004000
002000
001000
001000
000000
000000
ENDCHAR
STARTCHAR 05-63
ENCODING 9567
SWIDTH 960 0
DWIDTH 18 0
BBX 18 18 0 -3
BITMAP
000000
000000
0f0000
00e000
001800
000000
000000
0f0000
00e000
001000
000000
000000
1e0000
01c000
003000
000c00
000000
000000
ENDCHAR
STARTCHAR 05-64
ENCODING 9568
SWIDTH 960 0
DWIDTH 18 0
BBX 18 18 0 -3
BITMAP
000000
000000
008000
008000
008000
008000
010000
010000
010800
020400
020400
040200
041e00
09e100
3e0100
000100
000000
000000
ENDCHAR
STARTCHAR 05-65
ENCODING 9569
SWIDTH 960 0
DWIDTH 18 0
BBX 18 18 0 -3
BITMAP
000000
000000
000400
000400
000400
000400
000800
000800
030800
00d000
003000
002800
004400
008200
010000
060000
180000
000000
ENDCHAR
STARTCHAR 05-66
ENCODING 9570
SWIDTH 960 0
DWIDTH 18 0
BBX 18 18 0 -3
BITMAP
000000
000000
000000
1ffc00
010000
010000
010000
010000
7fff00
010000
010000
010000
010000
010000
008000
007e00
000000
000000
ENDCHAR
STARTCHAR 05-67
ENCODING 9571
SWIDTH 960 0
DWIDTH 18 0
BBX 18 18 0 -3
BITMAP
000000
000000
000000
000000
000000
010000
010000
017c00
0f8400
008800
009000
008000
008000
004000
004000
004000
000000
000000
ENDCHAR
STARTCHAR 05-68
ENCODING 9572
SWIDTH 960 0
DWIDTH 18 0
BBX 18 18 0 -3
BITMAP
000000
020000
020000
020000
020f00
017100
078200
790400
010800
009000
008000
008000
008000
004000
004000
004000
004000
000000
ENDCHAR
STARTCHAR 05-69
ENCODING 9573
SWIDTH 960 0
DWIDTH 18 0
BBX 18 18 0 -3
BITMAP
000000
000000
000000
000000
000000
000000
000000
07f000
001000
001000
001000
001000
001000
1ffe00
000000
000000
000000
000000
ENDCHAR
STARTCHAR 05-70
ENCODING 9574
SWIDTH 960 0
DWIDTH 18 0
BBX 18 18 0 -3
BITMAP
000000
000000
000000
000000
0ff000
001000
001000
001000
001000
001000
001000
001000
001000
001000
3fff00
000000
000000
000000
ENDCHAR
STARTCHAR 05-71
ENCODING 9575
SWIDTH 960 0
DWIDTH 18 0
BBX 18 18 0 -3
BITMAP
000000
000000
000000
000000
000000
000000
07f800
000800
000800
000800
03f800
000800
000800
000800
07f800
000800
000000
000000
ENDCHAR
STARTCHAR 05-72
ENCODING 9576
SWIDTH 960 0
DWIDTH 18 0
BBX 18 18 0 -3
BITMAP
000000
000000
000000
1ffc00
000400
000400
000400
000400
0ffc00
000400
000400
000400
000400
000400
1ffc00
000400
000000
000000
ENDCHAR
STARTCHAR 05-73
ENCODING 9577
SWIDTH 960 0
DWIDTH 18 0
BBX 18 18 0 -3
BITMAP
000000
000000
07f800
000000
000000
000000
1ffe00
000200
000200
000200
000400
000400
000800
001000
006000
078000
000000
000000
ENDCHAR
STARTCHAR 05-74
ENCODING 9578
SWIDTH 960 0
DWIDTH 18 0
BBX 18 18 0 -3
BITMAP
000000
000800
040800
040800
040800
040800
040800
040800
040800
040800
000800
000800
001000
001000
002000
004000
018000
000000
ENDCHAR
STARTCHAR 05-75
ENCODING 9579
SWIDTH 960 0
DWIDTH 18 0
BBX 18 18 0 -3
BITMAP
000000
000000
004000
004000
044000
044000
044000
044000
044000
044100
044100
084200
084200
104400
104800
205000
406000
000000
ENDCHAR
STARTCHAR 05-76
ENCODING 9580
SWIDTH 960 0
DWIDTH 18 0
BBX 18 18 0 -3
BITMAP
000000
000000
040000
040000
040000
040000
040000
040000
040000
040200
040200
040400
040800
041000
046000
058000
060000
000000
ENDCHAR
STARTCHAR 05-77
ENCODING 9581
SWIDTH 960 0
DWIDTH 18 0
BBX 18 18 0 -3
BITMAP
000000
000000
000000
000000
1ffc00
100400
100400
100400
100400
100400
100400
100400
100400
100400
1ffc00
100400
000000
000000
ENDCHAR
STARTCHAR 05-78
ENCODING 9582
SWIDTH 960 0
DWIDTH 18 0
BBX 18 18 0 -3
BITMAP
000000
000000
000000
000000
000000
000000
000000
07f800
040800
040800
040800
001000
001000
002000
004000
018000
000000
000000
ENDCHAR
STARTCHAR 05-79
ENCODING 9583
SWIDTH 960 0
DWIDTH 18 0
BBX 18 18 0 -3
BITMAP
000000
000000
000000
1ffe00
100200
100200
100200
100200
100200
000200
000400
000400
000800
000800
001000
006000
038000
000000
ENDCHAR
STARTCHAR 05-80
ENCODING 9584
SWIDTH 960 0
DWIDTH 18 0
BBX 18 18 0 -3
BITMAP
000000
002000
002000
002000
002000
1ffe00
042000
042000
042000
042000
042000
3fff80
002000
002000
002000
002000
002000
000000
ENDCHAR
STARTCHAR 05-81
ENCODING 9585
SWIDTH 960 0
DWIDTH 18 0
BBX 18 18 0 -3
BITMAP
000000
000000
000000
000000
1ffc00
000400
000800
009000
00a000
008000
008000
008000
008000
008000
7fff00
000000
000000
000000
ENDCHAR
STARTCHAR 05-82
ENCODING 9586
SWIDTH 960 0
DWIDTH 18 0
BBX 18 18 0 -3
BITMAP
000000
000000
000000
1ffc00
000400
000400
000400
0ffc00
000400
000400
000800
000800
001000
002000
004000
018000
060000
000000
ENDCHAR
STARTCHAR 05-83
ENCODING 9587
SWIDTH 960 0
DWIDTH 18 0
BBX 18 18 0 -3
BITMAP
000000
000000
000000
100000
0c0000
030000
000100
000100
000200
000200
000400
000800
001000
006000
018000
1e0000
000000
000000
ENDCHAR
STARTCHAR 05-84
ENCODING 9588
SWIDTH 960 0
DWIDTH 18 0
BBX 18 18 0 -3
BITMAP
000000
004100
004080
004200
004100
1ffe00
100200
100200
100200
100200
000200
000400
000400
000800
001000
006000
038000
000000
ENDCHAR
STARTCHAR 05-85
ENCODING 9589
SWIDTH 960 0
DWIDTH 18 0
BBX 18 18 0 -3
BITMAP
000000
000000
000000
000000
000000
008000
008000
008000
0ff800
008800
008800
010800
010800
020800
020800
043000
000000
000000
ENDCHAR
STARTCHAR 05-86
ENCODING 9590
SWIDTH 960 0
DWIDTH 18 0
BBX 18 18 0 -3
BITMAP
000000
000000
000000
000000
000000
010000
010000
010000
03fc00
022000
042000
082000
004000
004000
008000
030000
000000
000000
ENDCHAR
STARTCHAR 06-01
ENCODING 9761
SWIDTH 960 0
DWIDTH 18 0
BBX 18 18 0 -3
BITMAP
000000
008000
008000
014000
014000
022000
022000
041000
041000
080800
0ff800
100400
100400
200200
200200
000000
000000
000000
ENDCHAR
STARTCHAR 06-02
ENCODING 9762
SWIDTH 960 0
DWIDTH 18 0
BBX 18 18 0 -3
BITMAP
000000
0fe000
081000
080800
080800
080800
081000
0ff000
080800
080400
080400
080400
080400
080800
0ff000
000000
000000
000000
ENDCHAR
STARTCHAR 06-03
ENCODING 9763
SWIDTH 960 0
DWIDTH 18 0
BBX 18 18 0 -3
BITMAP
000000
07fc00
040000
040000
040000
040000
040000
040000
040000
040000
040000
040000
040000
040000
040000
000000
000000
000000
ENDCHAR
STARTCHAR 06-04
ENCODING 9764
SWIDTH 960 0
DWIDTH 18 0
BBX 18 18 0 -3
BITMAP
000000
008000
008000
014000
014000
022000
022000
041000
041000
080800
080800
100400
100400
200200
3ffe00
000000
000000
000000
ENDCHAR
STARTCHAR 06-05
ENCODING 9765
SWIDTH 960 0
DWIDTH 18 0
BBX 18 18 0 -3
BITMAP
000000
0ffc00
080000
080000
080000
080000
080000
0fe000
080000
080000
080000
080000
080000
080000
0ffc00
000000
000000
000000
ENDCHAR
STARTCHAR 06-06
ENCODING 9766
SWIDTH 960 0
DWIDTH 18 0
BBX 18 18 0 -3
BITMAP
000000
0ffe00
000400
000800
001000
002000
002000
004000
008000
010000
010000
020000
040000
080000
1ffe00
000000
000000
000000
ENDCHAR
STARTCHAR 06-07
ENCODING 9767
SWIDTH 960 0
DWIDTH 18 0
BBX 18 18 0 -3
BITMAP
000000
100400
100400
100400
100400
100400
100400
1ffc00
100400
100400
100400
100400
100400
100400
100400
000000
000000
000000
ENDCHAR
STARTCHAR 06-08
ENCODING 9768
SWIDTH 960 0
DWIDTH 18 0
BBX 18 18 0 -3
BITMAP
000000
01c000
063000
080800
100400
100400
200200
23e200
200200
200200
100400
100400
080800
063000
01c000
000000
000000
000000
ENDCHAR
STARTCHAR 06-09
ENCODING 9769
SWIDTH 960 0
DWIDTH 18 0
BBX 18 18 0 -3
BITMAP
000000
01c000
008000
008000
008000
008000
008000
008000
008000
008000
008000
008000
008000
008000
01c000
000000
000000
000000
ENDCHAR
STARTCHAR 06-10
ENCODING 9770
SWIDTH 960 0
DWIDTH 18 0
BBX 18 18 0 -3
BITMAP
000000
040400
040800
041000
042000
044000
048000
050000
068000
048000
044000
042000
041000
040800
040400
000000
000000
000000
ENDCHAR
STARTCHAR 06-11
ENCODING 9771
SWIDTH 960 0
DWIDTH 18 0
BBX 18 18 0 -3
BITMAP
000000
008000
008000
014000
014000
022000
022000
041000
041000
080800
080800
100400
100400
200200
200200
000000
000000
000000
ENDCHAR
STARTCHAR 06-12
ENCODING 9772
SWIDTH 960 0
DWIDTH 18 0
BBX 18 18 0 -3
BITMAP
000000
400100
600300
500500
500500
480900
480900
441100
441100
422100
422100
414100
414100
408100
408100
000000
000000
000000
ENDCHAR
STARTCHAR 06-13
ENCODING 9773
SWIDTH 960 0
DWIDTH 18 0
BBX 18 18 0 -3
BITMAP
000000
100200
180200
140200
120200
110200
110200
108200
104200
102200
102200
101200
100a00
100600
100200
000000
000000
000000
ENDCHAR
STARTCHAR 06-14
ENCODING 9774
SWIDTH 960 0
DWIDTH 18 0
BBX 18 18 0 -3
BITMAP
000000
1ffe00
000000
000000
000000
000000
000000
03f000
000000
000000
000000
000000
000000
000000
1ffe00
000000
000000
000000
ENDCHAR
STARTCHAR 06-15
ENCODING 9775
SWIDTH 960 0
DWIDTH 18 0
BBX 18 18 0 -3
BITMAP
000000
01c000
063000
080800
100400
100400
200200
200200
200200
200200
100400
100400
080800
063000
01c000
000000
000000
000000
ENDCHAR
STARTCHAR 06-16
ENCODING 9776
SWIDTH 960 0
DWIDTH 18 0
BBX 18 18 0 -3
BITMAP
000000
0ffc00
080400
080400
080400
080400
080400
080400
080400
080400
080400
080400
080400
080400
080400
000000
000000
000000
ENDCHAR
STARTCHAR 06-17
ENCODING 9777
SWIDTH 960 0
DWIDTH 18 0
BBX 18 18 0 -3
BITMAP
000000
0ff000
080800
080400
080400
080400
080800
0ff000
080000
080000
080000
080000
080000
080000
080000
000000
000000
000000
ENDCHAR
STARTCHAR 06-18
ENCODING 9778
SWIDTH 960 0
DWIDTH 18 0
BBX 18 18 0 -3
BITMAP
000000
1ffe00
080000
040000
020000
010000
008000
004000
004000
008000
010000
020000
040000
080000
1ffe00
000000
000000
000000
ENDCHAR
STARTCHAR 06-19
ENCODING 9779
SWIDTH 960 0
DWIDTH 18 0
BBX 18 18 0 -3
BITMAP
000000
3ffe00
008000
008000
008000
008000
008000
008000
008000
008000
008000
008000
008000
008000
008000
000000
000000
000000
ENDCHAR
STARTCHAR 06-20
ENCODING 9780
SWIDTH 960 0
DWIDTH 18 0
BBX 18 18 0 -3
BITMAP
000000
063000
194c00
208200
208200
408100
408100
008000
008000
008000
008000
008000
008000
008000
008000
000000
000000
000000
ENDCHAR
STARTCHAR 06-21
ENCODING 9781
SWIDTH 960 0
DWIDTH 18 0
BBX 18 18 0 -3
BITMAP
000000
008000
008000
03e000
0c9800
108400
208200
208200
208200
108400
0c9800
03e000
008000
008000
008000
000000
000000
000000
ENDCHAR
STARTCHAR 06-22
ENCODING 9782
SWIDTH 960 0
DWIDTH 18 0
BBX 18 18 0 -3
BITMAP
000000
100200
080400
040800
021000
021000
012000
00c000
00c000
012000
021000
021000
040800
080400
100200
000000
000000
000000
ENDCHAR
STARTCHAR 06-23
ENCODING 9783
SWIDTH 960 0
DWIDTH 18 0
BBX 18 18 0 -3
BITMAP
000000
008000
108400
108400
108400
108400
108400
108400
088800
0c9800
03e000
008000
008000
008000
008000
000000
000000
000000
ENDCHAR
STARTCHAR 06-24
ENCODING 9784
SWIDTH 960 0
DWIDTH 18 0
BBX 18 18 0 -3
BITMAP
000000
03f000
0c0c00
100200
100200
200100
200100
200100
200100
100200
080400
040800
033000
012000
3f3f00
000000
000000
000000
ENDCHAR
STARTCHAR 06-33
ENCODING 9793
SWIDTH 960 0
DWIDTH 18 0
BBX 18 18 0 -3
BITMAP
000000
000000
000000
000000
000000
000000
01c400
022400
042800
042800
083000
082000
082400
045400
038800
000000
000000
000000
ENDCHAR
STARTCHAR 06-34
ENCODING 9794
SWIDTH 960 0
DWIDTH 18 0
BBX 18 18 0 -3
BITMAP
000000
003800
004400
008200
008200
010400
016800
011000
020800
020400
020400
020400
020400
050800
04f000
040000
040000
040000
ENDCHAR
STARTCHAR 06-35
ENCODING 9795
SWIDTH 960 0
DWIDTH 18 0
BBX 18 18 0 -3
BITMAP
000000
000000
000000
000000
000000
000000
000000
018400
024800
045000
002000
006000
004000
004000
008000
008000
008000
000000
ENDCHAR
STARTCHAR 06-36
ENCODING 9796
SWIDTH 960 0
DWIDTH 18 0
BBX 18 18 0 -3
BITMAP
000000
006000
009800
008400
008000
004000
01e000
021000
041000
040800
080800
081000
081000
042000
03c000
000000
000000
000000
ENDCHAR
STARTCHAR 06-37
ENCODING 9797
SWIDTH 960 0
DWIDTH 18 0
BBX 18 18 0 -3
BITMAP
000000
000000
000000
000000
000000
000000
00f000
010800
020000
020000
03c000
040000
040800
021000
01e000
000000
000000
000000
ENDCHAR
STARTCHAR 06-38
ENCODING 9798
SWIDTH 960 0
DWIDTH 18 0
BBX 18 18 0 -3
BITMAP
000000
020000
041800
043000
03c000
008000
010000
020000
020000
040000
040000
040000
020000
01c000
003000
000800
018800
007000
ENDCHAR
STARTCHAR 06-39
ENCODING 9799
SWIDTH 960 0
DWIDTH 18 0
BBX 18 18 0 -3
BITMAP
000000
000000
000000
000000
000000
000000
063000
094800
018400
010400
020800
020800
020800
041000
041000
001000
002000
002000
ENDCHAR
STARTCHAR 06-40
ENCODING 9800
SWIDTH 960 0
DWIDTH 18 0
BBX 18 18 0 -3
BITMAP
000000
007000
008800
010800
010400
020400
020400
03f800
040800
040800
040800
041000
021000
022000
01c000
000000
000000
000000
ENDCHAR
STARTCHAR 06-41
ENCODING 9801
SWIDTH 960 0
DWIDTH 18 0
BBX 18 18 0 -3
BITMAP
000000
000000
000000
000000
000000
000000
010000
010000
010000
020000
020000
020800
021000
022000
01c000
000000
000000
000000
ENDCHAR
STARTCHAR 06-42
ENCODING 9802
SWIDTH 960 0
DWIDTH 18 0
BBX 18 18 0 -3
BITMAP
000000
000000
000000
000000
000000
000000
010c00
011000
012000
024000
038000
024000
042400
042800
041000
000000
000000
000000
ENDCHAR
STARTCHAR 06-43
ENCODING 9803
SWIDTH 960 0
DWIDTH 18 0
BBX 18 18 0 -3
BITMAP
000000
00c000
002000
002000
002000
002000
002000
006000
00a000
00a000
012000
012000
021000
021000
040c00
000000
000000
000000
ENDCHAR
STARTCHAR 06-44
ENCODING 9804
SWIDTH 960 0
DWIDTH 18 0
BBX 18 18 0 -3
BITMAP
000000
000000
000000
000000
000000
000000
010800
010800
010800
021000
021000
021000
062000
052400
04d800
040000
080000
080000
ENDCHAR
STARTCHAR 06-45
ENCODING 9805
SWIDTH 960 0
DWIDTH 18 0
BBX 18 18 0 -3
BITMAP
000000
000000
000000
000000
000000
000000
080800
040800
040800
021000
021000
022000
024000
028000
030000
000000
000000
000000
ENDCHAR
STARTCHAR 06-46
ENCODING 9806
SWIDTH 960 0
DWIDTH 18 0
BBX 18 18 0 -3
BITMAP
000000
00f000
010000
008000
01f800
020000
040000
020000
01f000
060000
080000
080000
040000
038000
006000
001000
041000
03e000
ENDCHAR
STARTCHAR 06-47
ENCODING 9807
SWIDTH 960 0
DWIDTH 18 0
BBX 18 18 0 -3
BITMAP
000000
000000
000000
000000
000000
000000
00e000
031000
040800
040800
080800
081000
081000
046000
038000
000000
000000
000000
ENDCHAR
STARTCHAR 06-48
ENCODING 9808
SWIDTH 960 0
DWIDTH 18 0
BBX 18 18 0 -3
BITMAP
000000
000000
000000
000000
000000
000400
0ff800
112000
012000
022000
022000
042000
042400
082800
101000
000000
000000
000000
ENDCHAR
STARTCHAR 06-49
ENCODING 9809
SWIDTH 960 0
DWIDTH 18 0
BBX 18 18 0 -3
BITMAP
000000
000000
000000
000000
000000
000000
007000
008800
010400
010400
020400
020800
020800
051000
04e000
040000
040000
040000
ENDCHAR
STARTCHAR 06-50
ENCODING 9810
SWIDTH 960 0
DWIDTH 18 0
BBX 18 18 0 -3
BITMAP
000000
000000
000000
000000
000000
000000
00fe00
011000
020800
040800
040800
041000
041000
022000
01c000
000000
000000
000000
ENDCHAR
STARTCHAR 06-51
ENCODING 9811
SWIDTH 960 0
DWIDTH 18 0
BBX 18 18 0 -3
BITMAP
000000
000000
000000
000000
000000
000400
07f800
088000
008000
008000
010000
010000
010800
013000
00c000
000000
000000
000000
ENDCHAR
STARTCHAR 06-52
ENCODING 9812
SWIDTH 960 0
DWIDTH 18 0
BBX 18 18 0 -3
BITMAP
000000
000000
000000
000000
000000
000000
040800
020400
020400
020400
020800
020800
021000
022000
01c000
000000
000000
000000
ENDCHAR
STARTCHAR 06-53
ENCODING 9813
SWIDTH 960 0
DWIDTH 18 0
BBX 18 18 0 -3
BITMAP
000000
002000
002000
002000
002000
004000
01f000
024800
044400
084400
088400
088800
049000
03e000
008000
010000
010000
010000
ENDCHAR
STARTCHAR 06-54
ENCODING 9814
SWIDTH 960 0
DWIDTH 18 0
BBX 18 18 0 -3
BITMAP
000000
000000
000000
000000
000000
000000
038400
044800
005000
006000
004000
00c000
014400
022400
041800
000000
000000
000000
ENDCHAR
STARTCHAR 06-55
ENCODING 9815
SWIDTH 960 0
DWIDTH 18 0
BBX 18 18 0 -3
BITMAP
000000
002000
002000
002000
004000
004000
024800
044400
044400
088400
088800
088800
049000
03e000
010000
010000
010000
010000
ENDCHAR
STARTCHAR 06-56
ENCODING 9816
SWIDTH 960 0
DWIDTH 18 0
BBX 18 18 0 -3
BITMAP
000000
000000
000000
000000
000000
000000
060800
080400
104400
104200
208200
208400
218400
124800
0c3000
000000
000000
000000
ENDCHAR
STARTCHAR 07-01
ENCODING 10017
SWIDTH 960 0
DWIDTH 18 0
BBX 18 18 0 -3
BITMAP
000000
008000
008000
014000
014000
022000
022000
041000
041000
080800
0ff800
100400
100400
200200
200200
000000
000000
000000
ENDCHAR
STARTCHAR 07-02
ENCODING 10018
SWIDTH 960 0
DWIDTH 18 0
BBX 18 18 0 -3
BITMAP
000000
0ff800
080000
080000
080000
080000
080000
0ff000
080800
080400
080400
080400
080400
080800
0ff000
000000
000000
000000
ENDCHAR
STARTCHAR 07-03
ENCODING 10019
SWIDTH 960 0
DWIDTH 18 0
BBX 18 18 0 -3
BITMAP
000000
0fe000
081000
080800
080800
080800
081000
0ff000
080800
080400
080400
080400
080400
080800
0ff000
000000
000000
000000
ENDCHAR
STARTCHAR 07-04
ENCODING 10020
SWIDTH 960 0
DWIDTH 18 0
BBX 18 18 0 -3
BITMAP
000000
07fc00
040400
040400
040000
040000
040000
040000
040000
040000
040000
040000
040000
040000
040000
000000
000000
000000
ENDCHAR
STARTCHAR 07-05
ENCODING 10021
SWIDTH 960 0
DWIDTH 18 0
BBX 18 18 0 -3
BITMAP
000000
01fc00
010400
010400
010400
010400
020400
020400
020400
040400
040400
080400
080400
100400
3ffe00
200200
200200
000000
ENDCHAR
STARTCHAR 07-06
ENCODING 10022
SWIDTH 960 0
DWIDTH 18 0
BBX 18 18 0 -3
BITMAP
000000
0ffc00
080000
080000
080000
080000
080000
0fe000
080000
080000
080000
080000
080000
080000
0ffc00
000000
000000
000000
ENDCHAR
STARTCHAR 07-07
ENCODING 10023
SWIDTH 960 0
DWIDTH 18 0
BBX 18 18 0 -3
BITMAP
063000
063000
000000
0ffc00
080000
080000
080000
080000
0fc000
080000
080000
080000
080000
080000
0ffc00
000000
000000
000000
ENDCHAR
STARTCHAR 07-08
ENCODING 10024
SWIDTH 960 0
DWIDTH 18 0
BBX 18 18 0 -3
BITMAP
000000
308600
488900
088800
049000
049000
02a000
01c000
02a000
02a000
049000
049000
088800
108400
608300
000000
000000
000000
ENDCHAR
STARTCHAR 07-09
ENCODING 10025
SWIDTH 960 0
DWIDTH 18 0
BBX 18 18 0 -3
BITMAP
000000
07e000
081800
100800
100400
000400
001800
01e000
001800
000400
000400
100400
100800
081800
07e000
000000
000000
000000
ENDCHAR
STARTCHAR 07-10
ENCODING 10026
SWIDTH 960 0
DWIDTH 18 0
BBX 18 18 0 -3
BITMAP
000000
100600
100a00
100a00
101200
102200
104200
104200
108200
110200
120200
120200
140200
180200
100200
000000
000000
000000
ENDCHAR
STARTCHAR 07-11
ENCODING 10027
SWIDTH 960 0
DWIDTH 18 0
BBX 18 18 0 -3
BITMAP
022000
022000
11c200
100600
100a00
101200
102200
104200
104200
108200
110200
120200
140200
180200
100200
000000
000000
000000
ENDCHAR
STARTCHAR 07-12
ENCODING 10028
SWIDTH 960 0
DWIDTH 18 0
BBX 18 18 0 -3
BITMAP
000000
101800
102600
104000
104000
108000
110000
1e0000
110000
108000
104000
102000
101000
100800
100600
000000
000000
000000
ENDCHAR
STARTCHAR 07-13
ENCODING 10029
SWIDTH 960 0
DWIDTH 18 0
BBX 18 18 0 -3
BITMAP
000000
01fe00
010200
010200
010200
010200
010200
010200
010200
010200
020200
020200
020200
040200
380200
000000
000000
000000
ENDCHAR
STARTCHAR 07-14
ENCODING 10030
SWIDTH 960 0
DWIDTH 18 0
BBX 18 18 0 -3
BITMAP
000000
100400
100400
180c00
180c00
141400
241200
222200
222200
214200
214200
408100
408100
408100
400100
000000
000000
000000
ENDCHAR
STARTCHAR 07-15
ENCODING 10031
SWIDTH 960 0
DWIDTH 18 0
BBX 18 18 0 -3
BITMAP
000000
100400
100400
100400
100400
100400
100400
100400
1ffc00
100400
100400
100400
100400
100400
100400
000000
000000
000000
ENDCHAR
STARTCHAR 07-16
ENCODING 10032
SWIDTH 960 0
DWIDTH 18 0
BBX 18 18 0 -3
BITMAP
000000
01c000
063000
080800
100400
100400
200200
200200
200200
200200
100400
100400
080800
063000
01c000
000000
000000
000000
ENDCHAR
STARTCHAR 07-17
ENCODING 10033
SWIDTH 960 0
DWIDTH 18 0
BBX 18 18 0 -3
BITMAP
000000
1ffc00
100400
100400
100400
100400
100400
100400
100400
100400
100400
100400
100400
100400
100400
000000
000000
000000
ENDCHAR
STARTCHAR 07-18
ENCODING 10034
SWIDTH 960 0
DWIDTH 18 0
BBX 18 18 0 -3
BITMAP
000000
0ff000
080800
080400
080400
080400
080400
080800
0ff000
080000
080000
080000
080000
080000
080000
000000
000000
000000
ENDCHAR
STARTCHAR 07-19
ENCODING 10035
SWIDTH 960 0
DWIDTH 18 0
BBX 18 18 0 -3
BITMAP
000000
01f800
020400
040200
080100
080100
100000
100000
100000
100000
080000
080100
040200
020c00
01f000
000000
000000
000000
ENDCHAR
STARTCHAR 07-20
ENCODING 10036
SWIDTH 960 0
DWIDTH 18 0
BBX 18 18 0 -3
BITMAP
000000
3ffe00
008000
008000
008000
008000
008000
008000
008000
008000
008000
008000
008000
008000
008000
000000
000000
000000
ENDCHAR
STARTCHAR 07-21
ENCODING 10037
SWIDTH 960 0
DWIDTH 18 0
BBX 18 18 0 -3
BITMAP
000000
100200
100200
080400
040400
040800
020800
011000
012000
00a000
004000
004000
008000
008000
010000
1e0000
000000
000000
ENDCHAR
STARTCHAR 07-22
ENCODING 10038
SWIDTH 960 0
DWIDTH 18 0
BBX 18 18 0 -3
BITMAP
000000
008000
008000
03e000
0c9800
108400
208200
208200
208200
108400
0c9800
03e000
008000
008000
008000
000000
000000
000000
ENDCHAR
STARTCHAR 07-23
ENCODING 10039
SWIDTH 960 0
DWIDTH 18 0
BBX 18 18 0 -3
BITMAP
000000
080400
080400
040800
021000
012000
012000
00c000
00c000
012000
012000
021000
040800
080400
080400
000000
000000
000000
ENDCHAR
STARTCHAR 07-24
ENCODING 10040
SWIDTH 960 0
DWIDTH 18 0
BBX 18 18 0 -3
BITMAP
000000
080800
080800
080800
080800
080800
080800
080800
080800
080800
080800
080800
080800
080800
0ffe00
000200
000200
000000
ENDCHAR
STARTCHAR 07-25
ENCODING 10041
SWIDTH 960 0
DWIDTH 18 0
BBX 18 18 0 -3
BITMAP
000000
080400
080400
080400
080400
080400
080400
080400
080400
041c00
03e400
000400
000400
000400
000400
000400
000000
000000
ENDCHAR
STARTCHAR 07-26
ENCODING 10042
SWIDTH 960 0
DWIDTH 18 0
BBX 18 18 0 -3
BITMAP
000000
208200
208200
208200
208200
208200
208200
208200
208200
208200
208200
208200
208200
208200
3ffe00
000000
000000
000000
ENDCHAR
STARTCHAR 07-27
ENCODING 10043
SWIDTH 960 0
DWIDTH 18 0
BBX 18 18 0 -3
BITMAP
000000
208200
208200
208200
208200
208200
208200
208200
208200
208200
208200
208200
208200
208200
3fff80
000080
000080
000000
ENDCHAR
STARTCHAR 07-28
ENCODING 10044
SWIDTH 960 0
DWIDTH 18 0
BBX 18 18 0 -3
BITMAP
000000
3e0000
220000
220000
020000
020000
020000
03fc00
020200
020100
020100
020100
020100
020200
03fc00
000000
000000
000000
ENDCHAR
STARTCHAR 07-29
ENCODING 10045
SWIDTH 960 0
DWIDTH 18 0
BBX 18 18 0 -3
BITMAP
000000
200200
200200
200200
200200
200200
200200
3f8200
204200
202200
202200
202200
202200
204200
3f8200
000000
000000
000000
ENDCHAR
STARTCHAR 07-30
ENCODING 10046
SWIDTH 960 0
DWIDTH 18 0
BBX 18 18 0 -3
BITMAP
000000
080000
080000
080000
080000
080000
080000
0ff000
080800
080400
080400
080400
080400
081800
0fe000
000000
000000
000000
ENDCHAR
STARTCHAR 07-31
ENCODING 10047
SWIDTH 960 0
DWIDTH 18 0
BBX 18 18 0 -3
BITMAP
000000
03e000
0c1800
100400
000400
000200
038200
044e00
003200
000200
000200
000400
100400
0c1800
03e000
000000
000000
000000
ENDCHAR
STARTCHAR 07-32
ENCODING 10048
SWIDTH 960 0
DWIDTH 18 0
BBX 18 18 0 -3
BITMAP
000000
407800
408400
410200
410200
420100
420100
7e0100
420100
420100
420100
410200
410200
408400
407800
000000
000000
000000
ENDCHAR
STARTCHAR 07-33
ENCODING 10049
SWIDTH 960 0
DWIDTH 18 0
BBX 18 18 0 -3
BITMAP
000000
03fe00
040200
080200
080200
080200
040200
03fe00
008200
010200
010200
020200
040200
080200
300200
000000
000000
000000
ENDCHAR
STARTCHAR 07-49
ENCODING 10065
SWIDTH 960 0
DWIDTH 18 0
BBX 18 18 0 -3
BITMAP
000000
000000
000000
000000
000000
000000
01c000
022000
041000
007000
039000
041000
041000
047400
039800
000000
000000
000000
ENDCHAR
STARTCHAR 07-50
ENCODING 10066
SWIDTH 960 0
DWIDTH 18 0
BBX 18 18 0 -3
BITMAP
000000
000800
007000
038000
040000
040000
09e000
0e1000
081000
080800
080800
080800
041000
063000
01c000
000000
000000
000000
ENDCHAR
STARTCHAR 07-51
ENCODING 10067
SWIDTH 960 0
DWIDTH 18 0
BBX 18 18 0 -3
BITMAP
000000
000000
000000
000000
000000
000000
03e000
021000
020800
021000
03e000
021000
020800
021000
03e000
000000
000000
000000
ENDCHAR
STARTCHAR 07-52
ENCODING 10068
SWIDTH 960 0
DWIDTH 18 0
BBX 18 18 0 -3
BITMAP
000000
000000
000000
000000
000000
000000
03f800
020000
020000
020000
020000
020000
020000
020000
020000
000000
000000
000000
ENDCHAR
STARTCHAR 07-53
ENCODING 10069
SWIDTH 960 0
DWIDTH 18 0
BBX 18 18 0 -3
BITMAP
000000
000000
000000
000000
000000
000000
03f800
020800
020800
020800
040800
040800
040800
080800
0ffc00
100400
100400
000000
ENDCHAR
STARTCHAR 07-54
ENCODING 10070
SWIDTH 960 0
DWIDTH 18 0
BBX 18 18 0 -3
BITMAP
000000
000000
000000
000000
000000
000000
01e000
021000
040800
07f800
040000
040000
040800
021000
01e000
000000
000000
000000
ENDCHAR
STARTCHAR 07-55
ENCODING 10071
SWIDTH 960 0
DWIDTH 18 0
BBX 18 18 0 -3
BITMAP
000000
000000
033000
033000
000000
000000
01e000
021000
040800
07f800
040000
040000
040800
021000
01e000
000000
000000
000000
ENDCHAR
STARTCHAR 07-56
ENCODING 10072
SWIDTH 960 0
DWIDTH 18 0
BBX 18 18 0 -3
BITMAP
000000
000000
000000
000000
000000
000000
188c00
249200
02a000
02a000
01c000
02a000
049000
088800
308600
000000
000000
000000
ENDCHAR
STARTCHAR 07-57
ENCODING 10073
SWIDTH 960 0
DWIDTH 18 0
BBX 18 18 0 -3
BITMAP
000000
000000
000000
000000
000000
000000
01f000
020800
041800
006000
001000
000800
040800
021000
01e000
000000
000000
000000
ENDCHAR
STARTCHAR 07-58
ENCODING 10074
SWIDTH 960 0
DWIDTH 18 0
BBX 18 18 0 -3
BITMAP
000000
000000
000000
000000
000000
000000
080800
081800
082800
084800
088800
090800
0a0800
0c0800
080800
000000
000000
000000
ENDCHAR
STARTCHAR 07-59
ENCODING 10075
SWIDTH 960 0
DWIDTH 18 0
BBX 18 18 0 -3
BITMAP
000000
000000
000000
041000
03e000
000000
080800
081800
082800
084800
088800
090800
0a0800
0c0800
080800
000000
000000
000000
ENDCHAR
STARTCHAR 07-60
ENCODING 10076
SWIDTH 960 0
DWIDTH 18 0
BBX 18 18 0 -3
BITMAP
000000
000000
000000
000000
000000
000000
041800
042400
044000
048000
070000
048000
044000
042000
041800
000000
000000
000000
ENDCHAR
STARTCHAR 07-61
ENCODING 10077
SWIDTH 960 0
DWIDTH 18 0
BBX 18 18 0 -3
BITMAP
000000
000000
000000
000000
000000
000000
00f800
008800
008800
008800
008800
010800
010800
020800
1c0800
000000
000000
000000
ENDCHAR
STARTCHAR 07-62
ENCODING 10078
SWIDTH 960 0
DWIDTH 18 0
BBX 18 18 0 -3
BITMAP
000000
000000
000000
000000
000000
000000
041000
041000
041000
0a2800
094800
114400
108400
208200
200200
000000
000000
000000
ENDCHAR
STARTCHAR 07-63
ENCODING 10079
SWIDTH 960 0
DWIDTH 18 0
BBX 18 18 0 -3
BITMAP
000000
000000
000000
000000
000000
000000
080800
080800
080800
080800
0ff800
080800
080800
080800
080800
000000
000000
000000
ENDCHAR
STARTCHAR 07-64
ENCODING 10080
SWIDTH 960 0
DWIDTH 18 0
BBX 18 18 0 -3
BITMAP
000000
000000
000000
000000
000000
000000
01e000
021000
040800
040800
040800
040800
040800
021000
01e000
000000
000000
000000
ENDCHAR
STARTCHAR 07-65
ENCODING 10081
SWIDTH 960 0
DWIDTH 18 0
BBX 18 18 0 -3
BITMAP
000000
000000
000000
000000
000000
000000
0ff800
080800
080800
080800
080800
080800
080800
080800
080800
000000
000000
000000
ENDCHAR
STARTCHAR 07-66
ENCODING 10082
SWIDTH 960 0
DWIDTH 18 0
BBX 18 18 0 -3
BITMAP
000000
000000
000000
000000
000000
000000
05e000
061000
040800
040400
040400
040400
040800
061000
05e000
040000
040000
040000
ENDCHAR
STARTCHAR 07-67
ENCODING 10083
SWIDTH 960 0
DWIDTH 18 0
BBX 18 18 0 -3
BITMAP
000000
000000
000000
000000
000000
000000
01e000
021000
040800
040800
040000
040000
040800
021000
01e000
000000
000000
000000
ENDCHAR
STARTCHAR 07-68
ENCODING 10084
SWIDTH 960 0
DWIDTH 18 0
BBX 18 18 0 -3
BITMAP
000000
000000
000000
000000
000000
000000
0ff800
008000
008000
008000
008000
008000
008000
008000
008000
000000
000000
000000
ENDCHAR
STARTCHAR 07-69
ENCODING 10085
SWIDTH 960 0
DWIDTH 18 0
BBX 18 18 0 -3
BITMAP
000000
000000
000000
000000
000000
000000
040400
020400
020800
010800
009000
009000
006000
002000
004000
004000
088000
070000
ENDCHAR
STARTCHAR 07-70
ENCODING 10086
SWIDTH 960 0
DWIDTH 18 0
BBX 18 18 0 -3
BITMAP
000000
008000
008000
008000
008000
008000
06b000
09c800
108400
108400
108400
108400
09c800
06b000
008000
008000
008000
008000
ENDCHAR
STARTCHAR 07-71
ENCODING 10087
SWIDTH 960 0
DWIDTH 18 0
BBX 18 18 0 -3
BITMAP
000000
000000
000000
000000
000000
000000
080400
040800
021000
012000
00c000
012000
021000
040800
080400
000000
000000
000000
ENDCHAR
STARTCHAR 07-72
ENCODING 10088
SWIDTH 960 0
DWIDTH 18 0
BBX 18 18 0 -3
BITMAP
000000
000000
000000
000000
000000
000000
040800
040800
040800
040800
040800
040800
040800
040800
07fe00
000200
000200
000000
ENDCHAR
STARTCHAR 07-73
ENCODING 10089
SWIDTH 960 0
DWIDTH 18 0
BBX 18 18 0 -3
BITMAP
000000
000000
000000
000000
000000
000000
040800
040800
040800
040800
040800
041800
03e800
000800
000800
000800
000000
000000
ENDCHAR
STARTCHAR 07-74
ENCODING 10090
SWIDTH 960 0
DWIDTH 18 0
BBX 18 18 0 -3
BITMAP
000000
000000
000000
000000
000000
000000
108400
108400
108400
108400
108400
108400
108400
108400
1fff00
000000
000000
000000
ENDCHAR
STARTCHAR 07-75
ENCODING 10091
SWIDTH 960 0
DWIDTH 18 0
BBX 18 18 0 -3
BITMAP
000000
000000
000000
000000
000000
000000
108400
108400
108400
108400
108400
108400
108400
108400
1fff00
000100
000100
000000
ENDCHAR
STARTCHAR 07-76
ENCODING 10092
SWIDTH 960 0
DWIDTH 18 0
BBX 18 18 0 -3
BITMAP
000000
000000
000000
000000
000000
000000
1f0000
010000
010000
01f800
010400
010200
010200
010400
01f800
000000
000000
000000
ENDCHAR
STARTCHAR 07-77
ENCODING 10093
SWIDTH 960 0
DWIDTH 18 0
BBX 18 18 0 -3
BITMAP
000000
000000
000000
000000
000000
000000
100400
100400
100400
1f8400
104400
104400
104400
104400
1f8400
000000
000000
000000
ENDCHAR
STARTCHAR 07-78
ENCODING 10094
SWIDTH 960 0
DWIDTH 18 0
BBX 18 18 0 -3
BITMAP
000000
000000
000000
000000
000000
000000
040000
040000
040000
07e000
041000
040800
040800
041000
07e000
000000
000000
000000
ENDCHAR
STARTCHAR 07-79
ENCODING 10095
SWIDTH 960 0
DWIDTH 18 0
BBX 18 18 0 -3
BITMAP
000000
000000
000000
000000
000000
000000
03e000
041000
000800
00c800
013800
000800
000800
041000
03e000
000000
000000
000000
ENDCHAR
STARTCHAR 07-80
ENCODING 10096
SWIDTH 960 0
DWIDTH 18 0
BBX 18 18 0 -3
BITMAP
000000
000000
000000
000000
000000
000000
10f000
110800
110800
120400
1e0400
120400
110800
110800
10f000
000000
000000
000000
ENDCHAR
STARTCHAR 07-81
ENCODING 10097
SWIDTH 960 0
DWIDTH 18 0
BBX 18 18 0 -3
BITMAP
000000
000000
000000
000000
000000
000000
03f800
040800
040800
040800
03f800
010800
020800
040800
180800
000000
000000
000000
ENDCHAR
STARTCHAR 08-01
ENCODING 10273
SWIDTH 960 0
DWIDTH 18 0
BBX 18 18 0 -3
BITMAP
000000
000000
000000
000000
000000
000000
000000
000000
ffffc0
000000
000000
000000
000000
000000
000000
000000
000000
000000
ENDCHAR
STARTCHAR 08-02
ENCODING 10274
SWIDTH 960 0
DWIDTH 18 0
BBX 18 18 0 -3
BITMAP
008000
008000
008000
008000
008000
008000
008000
008000
008000
008000
008000
008000
008000
008000
008000
008000
008000
008000
ENDCHAR
STARTCHAR 08-03
ENCODING 10275
SWIDTH 960 0
DWIDTH 18 0
BBX 18 18 0 -3
BITMAP
000000
000000
000000
000000
000000
000000
000000
000000
00ffc0
008000
008000
008000
008000
008000
008000
008000
008000
008000
ENDCHAR
STARTCHAR 08-04
ENCODING 10276
SWIDTH 960 0
DWIDTH 18 0
BBX 18 18 0 -3
BITMAP
000000
000000
000000
000000
000000
000000
000000
000000
ff8000
008000
008000
008000
008000
008000
008000
008000
008000
008000
ENDCHAR
STARTCHAR 08-05
ENCODING 10277
SWIDTH 960 0
DWIDTH 18 0
BBX 18 18 0 -3
BITMAP
008000
008000
008000
008000
008000
008000
008000
008000
ff8000
000000
000000
000000
000000
000000
000000
000000
000000
000000
ENDCHAR
STARTCHAR 08-06
ENCODING 10278
SWIDTH 960 0
DWIDTH 18 0
BBX 18 18 0 -3
BITMAP
008000
008000
008000
008000
008000
008000
008000
008000
00ffc0
000000
000000
000000
000000
000000
000000
000000
000000
000000
ENDCHAR
STARTCHAR 08-07
ENCODING 10279
SWIDTH 960 0
DWIDTH 18 0
BBX 18 18 0 -3
BITMAP
008000
008000
008000
008000
008000
008000
008000
008000
00ffc0
008000
008000
008000
008000
008000
008000
008000
008000
008000
ENDCHAR
STARTCHAR 08-08
ENCODING 10280
SWIDTH 960 0
DWIDTH 18 0
BBX 18 18 0 -3
BITMAP
000000
000000
000000
000000
000000
000000
000000
000000
ffffc0
008000
008000
008000
008000
008000
008000
008000
008000
008000
ENDCHAR
STARTCHAR 08-09
ENCODING 10281
SWIDTH 960 0
DWIDTH 18 0
BBX 18 18 0 -3
BITMAP
008000
008000
008000
008000
008000
008000
008000
008000
ff8000
008000
008000
008000
008000
008000
008000
008000
008000
008000
ENDCHAR
STARTCHAR 08-10
ENCODING 10282
SWIDTH 960 0
DWIDTH 18 0
BBX 18 18 0 -3
BITMAP
008000
008000
008000
008000
008000
008000
008000
008000
ffffc0
000000
000000
000000
000000
000000
000000
000000
000000
000000
ENDCHAR
STARTCHAR 08-11
ENCODING 10283
SWIDTH 960 0
DWIDTH 18 0
BBX 18 18 0 -3
BITMAP
008000
008000
008000
008000
008000
008000
008000
008000
ffffc0
008000
008000
008000
008000
008000
008000
008000
008000
008000
ENDCHAR
STARTCHAR 08-12
ENCODING 10284
SWIDTH 960 0
DWIDTH 18 0
BBX 18 18 0 -3
BITMAP
000000
000000
000000
000000
000000
000000
000000
000000
ffffc0
ffffc0
000000
000000
000000
000000
000000
000000
000000
000000
ENDCHAR
STARTCHAR 08-13
ENCODING 10285
SWIDTH 960 0
DWIDTH 18 0
BBX 18 18 0 -3
BITMAP
00c000
00c000
00c000
00c000
00c000
00c000
00c000
00c000
00c000
00c000
00c000
00c000
00c000
00c000
00c000
00c000
00c000
00c000
ENDCHAR
STARTCHAR 08-14
ENCODING 10286
SWIDTH 960 0
DWIDTH 18 0
BBX 18 18 0 -3
BITMAP
000000
000000
000000
000000
000000
000000
000000
000000
00ffc0
00ffc0
00c000
00c000
00c000
00c000
00c000
00c000
00c000
00c000
ENDCHAR
STARTCHAR 08-15
ENCODING 10287
SWIDTH 960 0
DWIDTH 18 0
BBX 18 18 0 -3
BITMAP
000000
000000
000000
000000
000000
000000
000000
000000
ffc000
ffc000
00c000
00c000
00c000
00c000
00c000
00c000
00c000
00c000
ENDCHAR
STARTCHAR 08-16
ENCODING 10288
SWIDTH 960 0
DWIDTH 18 0
BBX 18 18 0 -3
BITMAP
00c000
00c000
00c000
00c000
00c000
00c000
00c000
00c000
ffc000
ffc000
000000
000000
000000
000000
000000
000000
000000
000000
ENDCHAR
STARTCHAR 08-17
ENCODING 10289
SWIDTH 960 0
DWIDTH 18 0
BBX 18 18 0 -3
BITMAP
00c000
00c000
00c000
00c000
00c000
00c000
00c000
00c000
00ffc0
00ffc0
000000
000000
000000
000000
000000
000000
000000
000000
ENDCHAR
STARTCHAR 08-18
ENCODING 10290
SWIDTH 960 0
DWIDTH 18 0
BBX 18 18 0 -3
BITMAP
00c000
00c000
00c000
00c000
00c000
00c000
00c000
00c000
00ffc0
00ffc0
00c000
00c000
00c000
00c000
00c000
00c000
00c000
00c000
ENDCHAR
STARTCHAR 08-19
ENCODING 10291
SWIDTH 960 0
DWIDTH 18 0
BBX 18 18 0 -3
BITMAP
000000
000000
000000
000000
000000
000000
000000
000000
ffffc0
ffffc0
00c000
00c000
00c000
00c000
00c000
00c000
00c000
00c000
ENDCHAR
STARTCHAR 08-20
ENCODING 10292
SWIDTH 960 0
DWIDTH 18 0
BBX 18 18 0 -3
BITMAP
00c000
00c000
00c000
00c000
00c000
00c000
00c000
00c000
ffc000
ffc000
00c000
00c000
00c000
00c000
00c000
00c000
00c000
00c000
ENDCHAR
STARTCHAR 08-21
ENCODING 10293
SWIDTH 960 0
DWIDTH 18 0
BBX 18 18 0 -3
BITMAP
00c000
00c000
00c000
00c000
00c000
00c000
00c000
00c000
ffffc0
ffffc0
000000
000000
000000
000000
000000
000000
000000
000000
ENDCHAR
STARTCHAR 08-22
ENCODING 10294
SWIDTH 960 0
DWIDTH 18 0
BBX 18 18 0 -3
BITMAP
00c000
00c000
00c000
00c000
00c000
00c000
00c000
00c000
ffffc0
ffffc0
00c000
00c000
00c000
00c000
00c000
00c000
00c000
00c000
ENDCHAR
STARTCHAR 08-23
ENCODING 10295
SWIDTH 960 0
DWIDTH 18 0
BBX 18 18 0 -3
BITMAP
00c000
00c000
00c000
00c000
00c000
00c000
00c000
00c000
00ffc0
00c000
00c000
00c000
00c000
00c000
00c000
00c000
00c000
00c000
ENDCHAR
STARTCHAR 08-24
ENCODING 10296
SWIDTH 960 0
DWIDTH 18 0
BBX 18 18 0 -3
BITMAP
000000
000000
000000
000000
000000
000000
000000
000000
ffffc0
ffffc0
008000
008000
008000
008000
008000
008000
008000
008000
ENDCHAR
STARTCHAR 08-25
ENCODING 10297
SWIDTH 960 0
DWIDTH 18 0
BBX 18 18 0 -3
BITMAP
00c000
00c000
00c000
00c000
00c000
00c000
00c000
00c000
ffc000
00c000
00c000
00c000
00c000
00c000
00c000
00c000
00c000
00c000
ENDCHAR
STARTCHAR 08-26
ENCODING 10298
SWIDTH 960 0
DWIDTH 18 0
BBX 18 18 0 -3
BITMAP
008000
008000
008000
008000
008000
008000
008000
008000
ffffc0
ffffc0
000000
000000
000000
000000
000000
000000
000000
000000
ENDCHAR
STARTCHAR 08-27
ENCODING 10299
SWIDTH 960 0
DWIDTH 18 0
BBX 18 18 0 -3
BITMAP
008000
008000
008000
008000
008000
008000
008000
008000
ffffc0
ffffc0
008000
008000
008000
008000
008000
008000
008000
008000
ENDCHAR
STARTCHAR 08-28
ENCODING 10300
SWIDTH 960 0
DWIDTH 18 0
BBX 18 18 0 -3
BITMAP
008000
008000
008000
008000
008000
008000
008000
008000
00ffc0
00ffc0
008000
008000
008000
008000
008000
008000
008000
008000
ENDCHAR
STARTCHAR 08-29
ENCODING 10301
SWIDTH 960 0
DWIDTH 18 0
BBX 18 18 0 -3
BITMAP
000000
000000
000000
000000
000000
000000
000000
000000
ffffc0
00c000
00c000
00c000
00c000
00c000
00c000
00c000
00c000
00c000
ENDCHAR
STARTCHAR 08-30
ENCODING 10302
SWIDTH 960 0
DWIDTH 18 0
BBX 18 18 0 -3
BITMAP
008000
008000
008000
008000
008000
008000
008000
008000
ff8000
ff8000
008000
008000
008000
008000
008000
008000
008000
008000
ENDCHAR
STARTCHAR 08-31
ENCODING 10303
SWIDTH 960 0
DWIDTH 18 0
BBX 18 18 0 -3
BITMAP
00c000
00c000
00c000
00c000
00c000
00c000
00c000
00c000
ffffc0
000000
000000
000000
000000
000000
000000
000000
000000
000000
ENDCHAR
STARTCHAR 08-32
ENCODING 10304
SWIDTH 960 0
DWIDTH 18 0
BBX 18 18 0 -3
BITMAP
00c000
00c000
00c000
00c000
00c000
00c000
00c000
00c000
ffffc0
00c000
00c000
00c000
00c000
00c000
00c000
00c000
00c000
00c000
ENDCHAR
STARTCHAR 13-01
ENCODING 11553
SWIDTH 960 0
DWIDTH 18 0
BBX 18 18 0 -3
BITMAP
03e000
0c1800
100400
208200
438100
408100
808080
808080
808080
808080
808080
408100
408100
208200
100400
0c1800
03e000
000000
ENDCHAR
STARTCHAR 13-02
ENCODING 11554
SWIDTH 960 0
DWIDTH 18 0
BBX 18 18 0 -3
BITMAP
03e000
0c1800
100400
21c200
422100
441100
841080
802080
802080
804080
808080
410100
420100
27f200
100400
0c1800
03e000
000000
ENDCHAR
STARTCHAR 13-03
ENCODING 11555
SWIDTH 960 0
DWIDTH 18 0
BBX 18 18 0 -3
BITMAP
03e000
0c1800
100400
23e200
441100
441100
802080
80c080
802080
801080
841080
441100
422100
21c200
100400
0c1800
03e000
000000
ENDCHAR
STARTCHAR 13-04
ENCODING 11556
SWIDTH 960 0
DWIDTH 18 0
BBX 18 18 0 -3
BITMAP
03e000
0c1800
100400
204200
40c100
414100
814080
824080
844080
844080
8ff880
404100
404100
204200
100400
0c1800
03e000
000000
ENDCHAR
STARTCHAR 13-05
ENCODING 11557
SWIDTH 960 0
DWIDTH 18 0
BBX 18 18 0 -3
BITMAP
03e000
0c1800
100400
23f200
420100
420100
840080
87c080
842080
801080
801080
441100
442100
23c200
100400
0c1800
03e000
000000
ENDCHAR
STARTCHAR 13-06
ENCODING 11558
SWIDTH 960 0
DWIDTH 18 0
BBX 18 18 0 -3
BITMAP
03e000
0c1800
100400
21c200
422100
441100
840080
85c080
862080
841080
841080
441100
422100
21c200
100400
0c1800
03e000
000000
ENDCHAR
STARTCHAR 13-07
ENCODING 11559
SWIDTH 960 0
DWIDTH 18 0
BBX 18 18 0 -3
BITMAP
03e000
0c1800
100400
27f200
401100
402100
802080
804080
804080
804080
808080
408100
408100
208200
100400
0c1800
03e000
000000
ENDCHAR
STARTCHAR 13-08
ENCODING 11560
SWIDTH 960 0
DWIDTH 18 0
BBX 18 18 0 -3
BITMAP
03e000
0c1800
100400
21c200
422100
441100
822080
81c080
822080
841080
841080
441100
422100
21c200
100400
0c1800
03e000
000000
ENDCHAR
STARTCHAR 13-09
ENCODING 11561
SWIDTH 960 0
DWIDTH 18 0
BBX 18 18 0 -3
BITMAP
03e000
0c1800
100400
21c200
422100
441100
841080
841080
823080
81d080
801080
441100
422100
21c200
100400
0c1800
03e000
000000
ENDCHAR
STARTCHAR 13-10
ENCODING 11562
SWIDTH 960 0
DWIDTH 18 0
BBX 18 18 0 -3
BITMAP
03e000
0c1800
100400
247200
4c8900
448900
848880
848880
848880
848880
848880
448900
448900
247200
100400
0c1800
03e000
000000
ENDCHAR
STARTCHAR 13-11
ENCODING 11563
SWIDTH 960 0
DWIDTH 18 0
BBX 18 18 0 -3
BITMAP
03e000
0c1800
100400
221200
4e7100
421100
821080
821080
821080
821080
821080
421100
421100
221200
100400
0c1800
03e000
000000
ENDCHAR
STARTCHAR 13-12
ENCODING 11564
SWIDTH 960 0
DWIDTH 18 0
BBX 18 18 0 -3
BITMAP
03e000
0c1800
100400
247200
5c8900
448900
848880
841080
841080
842080
842080
444100
448100
24fa00
100400
0c1800
03e000
000000
ENDCHAR
STARTCHAR 13-13
ENCODING 11565
SWIDTH 960 0
DWIDTH 18 0
BBX 18 18 0 -3
BITMAP
03e000
0c1800
100400
247200
5c8900
448900
840880
847080
840880
840880
850880
450900
449100
246200
100400
0c1800
03e000
000000
ENDCHAR
STARTCHAR 13-14
ENCODING 11566
SWIDTH 960 0
DWIDTH 18 0
BBX 18 18 0 -3
BITMAP
03e000
0c1800
100400
241200
5c3100
443100
845080
845080
849080
849080
85fc80
441100
441100
241200
100400
0c1800
03e000
000000
ENDCHAR
STARTCHAR 13-15
ENCODING 11567
SWIDTH 960 0
DWIDTH 18 0
BBX 18 18 0 -3
BITMAP
03e000
0c1800
100400
24fa00
5c8100
448100
848080
84e080
849080
840880
840880
448900
449100
246200
100400
0c1800
03e000
000000
ENDCHAR
STARTCHAR 13-16
ENCODING 11568
SWIDTH 960 0
DWIDTH 18 0
BBX 18 18 0 -3
BITMAP
03e000
0c1800
100400
243200
5c4900
448100
848080
84b080
84c880
848880
848880
448900
448900
247200
100400
0c1800
03e000
000000
ENDCHAR
STARTCHAR 13-17
ENCODING 11569
SWIDTH 960 0
DWIDTH 18 0
BBX 18 18 0 -3
BITMAP
03e000
0c1800
100400
24fa00
5c0900
440900
841080
841080
841080
842080
842080
442100
442100
242200
100400
0c1800
03e000
000000
ENDCHAR
STARTCHAR 13-18
ENCODING 11570
SWIDTH 960 0
DWIDTH 18 0
BBX 18 18 0 -3
BITMAP
03e000
0c1800
100400
247200
5c8900
448900
848880
847080
848880
848880
848880
448900
448900
247200
100400
0c1800
03e000
000000
ENDCHAR
STARTCHAR 13-19
ENCODING 11571
SWIDTH 960 0
DWIDTH 18 0
BBX 18 18 0 -3
BITMAP
03e000
0c1800
100400
247200
5c8900
448900
848880
848880
849880
846880
840880
448900
449100
246200
100400
0c1800
03e000
000000
ENDCHAR
STARTCHAR 13-20
ENCODING 11572
SWIDTH 960 0
DWIDTH 18 0
BBX 18 18 0 -3
BITMAP
03e000
0c1800
100400
271a00
48a500
48a500
88a480
812480
812480
822480
842480
442500
482500
2f9a00
100400
0c1800
03e000
000000
ENDCHAR
STARTCHAR 13-21
ENCODING 11573
SWIDTH 960 0
DWIDTH 18 0
BBX 18 18 0 -3
BITMAP
000000
03e000
008000
008000
008000
008000
008000
008000
008000
008000
008000
008000
008000
008000
03e000
000000
000000
000000
ENDCHAR
STARTCHAR 13-22
ENCODING 11574
SWIDTH 960 0
DWIDTH 18 0
BBX 18 18 0 -3
BITMAP
000000
0ffc00
021000
021000
021000
021000
021000
021000
021000
021000
021000
021000
021000
021000
0ffc00
000000
000000
000000
ENDCHAR
STARTCHAR 13-23
ENCODING 11575
SWIDTH 960 0
DWIDTH 18 0
BBX 18 18 0 -3
BITMAP
000000
3ffe00
088800
088800
088800
088800
088800
088800
088800
088800
088800
088800
088800
088800
3ffe00
000000
000000
000000
ENDCHAR
STARTCHAR 13-24
ENCODING 11576
SWIDTH 960 0
DWIDTH 18 0
BBX 18 18 0 -3
BITMAP
000000
3fff00
090400
090400
090400
088800
088800
088800
088800
085000
085000
085000
082000
082000
3e2000
000000
000000
000000
ENDCHAR
STARTCHAR 13-25
ENCODING 11577
SWIDTH 960 0
DWIDTH 18 0
BBX 18 18 0 -3
BITMAP
000000
3e3e00
080800
080800
080800
041000
041000
041000
022000
022000
022000
014000
014000
008000
008000
000000
000000
000000
ENDCHAR
STARTCHAR 13-26
ENCODING 11578
SWIDTH 960 0
DWIDTH 18 0
BBX 18 18 0 -3
BITMAP
000000
7ffe00
104800
104800
104800
088800
088800
088800
088800
050800
050800
050800
020800
020800
023e00
000000
000000
000000
ENDCHAR
STARTCHAR 13-27
ENCODING 11579
SWIDTH 960 0
DWIDTH 18 0
BBX 18 18 0 -3
BITMAP
000000
ffff80
209200
209200
209200
111200
111200
111200
111200
0a1200
0a1200
0a1200
041200
041200
047f80
000000
000000
000000
ENDCHAR
STARTCHAR 13-28
ENCODING 11580
SWIDTH 960 0
DWIDTH 18 0
BBX 18 18 0 -3
BITMAP
000000
ffff80
20aa00
20aa00
20aa00
112a00
112a00
112a00
112a00
0a2a00
0a2a00
0a2a00
042a00
042a00
04ff80
000000
000000
000000
ENDCHAR
STARTCHAR 13-29
ENCODING 11581
SWIDTH 960 0
DWIDTH 18 0
BBX 18 18 0 -3
BITMAP
000000
7f0780
120200
110400
108800
108800
105000
102000
102000
105000
108800
108800
110400
120200
7f0780
000000
000000
000000
ENDCHAR
STARTCHAR 13-30
ENCODING 11582
SWIDTH 960 0
DWIDTH 18 0
BBX 18 18 0 -3
BITMAP
000000
3e1f00
080400
040800
021000
021000
012000
00c000
00c000
012000
021000
021000
040800
080400
3e1f00
000000
000000
000000
ENDCHAR
STARTCHAR 13-32
ENCODING 11584
SWIDTH 960 0
DWIDTH 18 0
BBX 18 18 0 -3
BITMAP
000000
780000
060000
000000
780000
060000
000000
780100
072100
002100
002100
002100
002100
000100
000200
000200
000400
000000
ENDCHAR
STARTCHAR 13-33
ENCODING 11585
SWIDTH 960 0
DWIDTH 18 0
BBX 18 18 0 -3
BITMAP
000000
080000
0f0000
780000
080000
078000
7c0000
040000
040000
040000
003f00
002100
002100
002100
002100
002100
003f00
000000
ENDCHAR
STARTCHAR 13-34
ENCODING 11586
SWIDTH 960 0
DWIDTH 18 0
BBX 18 18 0 -3
BITMAP
200000
206000
2f1100
f20100
240200
200400
201800
1f6000
000000
070000
3c0000
040000
7f8000
040000
080000
080000
100000
000000
ENDCHAR
STARTCHAR 13-35
ENCODING 11587
SWIDTH 960 0
DWIDTH 18 0
BBX 18 18 0 -3
BITMAP
020000
020000
040000
340000
087f00
140000
220000
c00000
000000
102400
102400
102400
182400
142480
124500
104600
108400
000000
ENDCHAR
STARTCHAR 13-36
ENCODING 11588
SWIDTH 960 0
DWIDTH 18 0
BBX 18 18 0 -3
BITMAP
114000
115f00
3e0000
223f80
420080
840100
080100
100600
601800
000000
080000
080000
080000
110000
108000
278000
788000
000000
ENDCHAR
STARTCHAR 13-37
ENCODING 11589
SWIDTH 960 0
DWIDTH 18 0
BBX 18 18 0 -3
BITMAP
100000
100000
100000
100000
1c0000
120000
110000
100000
100000
006000
001080
000080
000100
000200
000400
001800
006000
000000
ENDCHAR
STARTCHAR 13-38
ENCODING 11590
SWIDTH 960 0
DWIDTH 18 0
BBX 18 18 0 -3
BITMAP
7f8000
008000
090000
0e0000
083f80
080000
100000
600000
000000
120000
120000
120000
120000
124000
228000
230000
420000
000000
ENDCHAR
STARTCHAR 13-39
ENCODING 11591
SWIDTH 960 0
DWIDTH 18 0
BBX 18 18 0 -3
BITMAP
000400
000400
180f80
241080
422100
010200
008400
001800
000000
200a00
3c0a00
240a00
55ea00
8c0a80
081280
101300
602200
000000
ENDCHAR
STARTCHAR 13-40
ENCODING 11592
SWIDTH 960 0
DWIDTH 18 0
BBX 18 18 0 -3
BITMAP
220000
220000
220000
222a00
222a00
040200
040400
081800
000000
202400
202400
202400
382400
242480
224500
204600
208400
000000
ENDCHAR
STARTCHAR 13-41
ENCODING 11593
SWIDTH 960 0
DWIDTH 18 0
BBX 18 18 0 -3
BITMAP
000000
7f0000
410000
412a00
012a00
020200
040400
181800
000000
100000
100000
100000
1c0000
120000
110000
100000
100000
000000
ENDCHAR
STARTCHAR 13-42
ENCODING 11594
SWIDTH 960 0
DWIDTH 18 0
BBX 18 18 0 -3
BITMAP
080000
080000
7f3f00
092100
112100
112100
212100
463f00
000000
220000
220000
220000
227f00
220000
040000
040000
080000
000000
ENDCHAR
STARTCHAR 13-43
ENCODING 11595
SWIDTH 960 0
DWIDTH 18 0
BBX 18 18 0 -3
BITMAP
110000
108000
120000
110000
1c0000
120000
110000
100000
100000
002400
002400
002400
002400
002480
004500
004600
008400
000000
ENDCHAR
STARTCHAR 13-44
ENCODING 11596
SWIDTH 960 0
DWIDTH 18 0
BBX 18 18 0 -3
BITMAP
200000
206000
2f1100
f20100
240200
200400
201800
1f6000
000000
100000
100000
100000
1c0000
120000
110000
100000
100000
000000
ENDCHAR
STARTCHAR 13-45
ENCODING 11597
SWIDTH 960 0
DWIDTH 18 0
BBX 18 18 0 -3
BITMAP
008000
254000
248000
220000
223f80
410000
410000
810000
000000
400400
418400
5c5400
e41600
482500
402480
404400
3d8400
000000
ENDCHAR
STARTCHAR 13-46
ENCODING 11598
SWIDTH 960 0
DWIDTH 18 0
BBX 18 18 0 -3
BITMAP
782200
062200
002200
382200
062200
000400
780400
070800
000000
050000
050a00
280a00
280a00
25ca00
441280
421300
822200
000000
ENDCHAR
STARTCHAR 13-47
ENCODING 11599
SWIDTH 960 0
DWIDTH 18 0
BBX 18 18 0 -3
BITMAP
010000
028000
190000
240000
423f80
010000
00c000
000000
000000
314000
094000
600000
108000
010000
020000
0c0000
300000
000000
ENDCHAR
STARTCHAR 13-48
ENCODING 11600
SWIDTH 960 0
DWIDTH 18 0
BBX 18 18 0 -3
BITMAP
000000
000000
000000
000000
000000
000000
562b00
693480
492480
492480
492480
492480
492480
492480
492480
000000
000000
000000
ENDCHAR
STARTCHAR 13-49
ENCODING 11601
SWIDTH 960 0
DWIDTH 18 0
BBX 18 18 0 -3
BITMAP
000000
000000
000000
000000
000000
000000
3c5600
426900
824900
804900
804900
804900
814900
424900
3c4900
000000
000000
000000
ENDCHAR
STARTCHAR 13-50
ENCODING 11602
SWIDTH 960 0
DWIDTH 18 0
BBX 18 18 0 -3
BITMAP
000000
400000
400000
400000
400000
400000
425600
446900
484900
504900
684900
444900
444900
424900
424900
000000
000000
000000
ENDCHAR
STARTCHAR 13-51
ENCODING 11603
SWIDTH 960 0
DWIDTH 18 0
BBX 18 18 0 -3
BITMAP
000000
000000
000000
000000
000000
000180
561f00
692100
492100
492100
491e00
491000
491e00
492100
494080
004080
004080
003f00
ENDCHAR
STARTCHAR 13-52
ENCODING 11604
SWIDTH 960 0
DWIDTH 18 0
BBX 18 18 0 -3
BITMAP
000000
200000
200000
200000
200000
200180
211f00
222100
242100
282100
341e00
241000
221e00
212100
214080
004080
004080
003f00
ENDCHAR
STARTCHAR 13-53
ENCODING 11605
SWIDTH 960 0
DWIDTH 18 0
BBX 18 18 0 -3
BITMAP
000000
000000
000000
000000
000000
000000
3c1e00
422100
824100
804000
804000
804000
814080
422100
3c1e00
000000
000000
000000
ENDCHAR
STARTCHAR 13-54
ENCODING 11606
SWIDTH 960 0
DWIDTH 18 0
BBX 18 18 0 -3
BITMAP
000300
000480
000080
000300
000400
000780
2e7000
318800
210800
210800
210800
210800
210800
210800
210800
000000
000000
000000
ENDCHAR
STARTCHAR 13-63
ENCODING 11615
SWIDTH 960 0
DWIDTH 18 0
BBX 18 18 0 -3
BITMAP
000500
7f0480
080480
4a0400
2a7f80
2a4400
2a4400
0a4480
0c7a80
ffca80
084b00
084b00
084a00
084a00
085a80
084580
088580
088880
ENDCHAR
STARTCHAR 13-64
ENCODING 11616
SWIDTH 960 0
DWIDTH 18 0
BBX 18 18 0 -3
BITMAP
000000
000d80
000900
001b00
001200
000000
000000
000000
000000
000000
000000
000000
000000
000000
000000
000000
000000
000000
ENDCHAR
STARTCHAR 13-65
ENCODING 11617
SWIDTH 960 0
DWIDTH 18 0
BBX 18 18 0 -3
BITMAP
000000
000000
000000
000000
000000
000000
000000
000000
000000
000000
000000
000000
000000
360000
240000
6c0000
480000
000000
ENDCHAR
STARTCHAR 13-66
ENCODING 11618
SWIDTH 960 0
DWIDTH 18 0
BBX 18 18 0 -3
BITMAP
000000
410000
410000
610000
610000
510000
510000
493800
494400
454400
454400
434400
434400
414580
413980
000000
000000
000000
ENDCHAR
STARTCHAR 13-67
ENCODING 11619
SWIDTH 960 0
DWIDTH 18 0
BBX 18 18 0 -3
BITMAP
000000
442200
442200
442200
482400
482400
502800
502800
683400
482400
482400
442400
442200
45a2c0
45a2c0
000000
000000
000000
ENDCHAR
STARTCHAR 13-68
ENCODING 11620
SWIDTH 960 0
DWIDTH 18 0
BBX 18 18 0 -3
BITMAP
000000
fe0000
100000
100000
100000
100000
13e800
120800
120800
120800
13c800
120800
120800
120800
13ef80
000000
000000
000000
ENDCHAR
STARTCHAR 13-69
ENCODING 11621
SWIDTH 960 0
DWIDTH 18 0
BBX 18 18 0 -3
BITMAP
03e000
0c1800
100400
208200
408100
408100
808080
80f880
808080
808080
808080
408100
5ffd00
200200
100400
0c1800
03e000
000000
ENDCHAR
STARTCHAR 13-70
ENCODING 11622
SWIDTH 960 0
DWIDTH 18 0
BBX 18 18 0 -3
BITMAP
03e000
0c1800
100400
208200
408100
4ff900
888880
888880
888880
8ff880
808080
408100
408100
208200
100400
0c1800
03e000
000000
ENDCHAR
STARTCHAR 13-71
ENCODING 11623
SWIDTH 960 0
DWIDTH 18 0
BBX 18 18 0 -3
BITMAP
03e000
0c1800
100400
200200
5ffd00
408100
808080
80c080
80a080
809080
808080
408100
408100
208200
100400
0c1800
03e000
000000
ENDCHAR
STARTCHAR 13-72
ENCODING 11624
SWIDTH 960 0
DWIDTH 18 0
BBX 18 18 0 -3
BITMAP
03e000
0c1800
100400
210200
410100
5ffd00
810080
820080
83f880
844080
884080
504100
404100
27fa00
100400
0c1800
03e000
000000
ENDCHAR
STARTCHAR 13-73
ENCODING 11625
SWIDTH 960 0
DWIDTH 18 0
BBX 18 18 0 -3
BITMAP
03e000
0c1800
100400
210200
410100
5ffd00
810080
820080
820080
87f880
8a0880
520900
420900
23fa00
100400
0c1800
03e000
000000
ENDCHAR
STARTCHAR 13-74
ENCODING 11626
SWIDTH 960 0
DWIDTH 18 0
BBX 18 18 0 -3
BITMAP
200200
482100
48a100
48a100
88fc80
bea080
892080
8c2080
9bfe80
9a7080
a8a880
a8a880
892480
492500
4a2300
482100
200200
000000
ENDCHAR
STARTCHAR 13-75
ENCODING 11627
SWIDTH 960 0
DWIDTH 18 0
BBX 18 18 0 -3
BITMAP
200200
410100
410100
5ffd00
820080
820080
87f080
841080
8c1080
8ff080
941080
841080
87f080
441100
441100
443100
200200
000000
ENDCHAR
STARTCHAR 13-76
ENCODING 11628
SWIDTH 960 0
DWIDTH 18 0
BBX 18 18 0 -3
BITMAP
200200
445100
444900
444900
884080
8bfc80
984080
984080
a82080
882080
882080
882080
881480
481500
480d00
480500
200200
000000
ENDCHAR
STARTCHAR 13-77
ENCODING 11629
SWIDTH 960 0
DWIDTH 18 0
BBX 18 18 0 -3
BITMAP
004200
0f2200
e92200
a90400
a94400
af2500
e92880
a91f80
a90080
a90000
af2f80
e92880
892880
092880
094880
114880
114f80
234000
ENDCHAR
STARTCHAR 13-78
ENCODING 11630
SWIDTH 960 0
DWIDTH 18 0
BBX 18 18 0 -3
BITMAP
080000
087f80
080400
080400
080400
080400
ff8400
082400
082780
082400
142400
142400
142400
222400
222400
412400
412400
80ff80
ENDCHAR
STARTCHAR 13-79
ENCODING 11631
SWIDTH 960 0
DWIDTH 18 0
BBX 18 18 0 -3
BITMAP
001800
1ff000
e49000
a49780
a49480
a4fc80
a89480
e89480
b1bc80
a03c80
af3480
a95480
a95480
e95480
899780
091000
0f1000
001000
ENDCHAR
STARTCHAR 13-80
ENCODING 11632
SWIDTH 960 0
DWIDTH 18 0
BBX 18 18 0 -3
BITMAP
000000
000000
0c0000
0c0000
000000
000000
3fff00
000000
000000
000000
3fff00
000000
000000
000c00
000c00
000000
000000
000000
ENDCHAR
STARTCHAR 13-81
ENCODING 11633
SWIDTH 960 0
DWIDTH 18 0
BBX 18 18 0 -3
BITMAP
000000
000000
000000
000000
1ffe00
000000
000000
000000
1ffe00
000000
000000
000000
1ffe00
000000
000000
000000
000000
000000
ENDCHAR
STARTCHAR 13-82
ENCODING 11634
SWIDTH 960 0
DWIDTH 18 0
BBX 18 18 0 -3
BITMAP
01c000
022000
022000
020000
020000
010000
010000
010000
008000
008000
004000
004000
004000
002000
002000
022000
022000
01c000
ENDCHAR
STARTCHAR 13-83
ENCODING 11635
SWIDTH 960 0
DWIDTH 18 0
BBX 18 18 0 -3
BITMAP
01c000
022000
022000
020000
020000
010000
01c000
032000
049000
049000
026000
01c000
004000
002000
002000
022000
022000
01c000
ENDCHAR
STARTCHAR 13-84
ENCODING 11636
SWIDTH 960 0
DWIDTH 18 0
BBX 18 18 0 -3
BITMAP
000000
1ffe00
080000
040000
020000
010000
008000
004000
004000
008000
010000
020000
040000
080000
1ffe00
000000
000000
000000
ENDCHAR
STARTCHAR 13-85
ENCODING 11637
SWIDTH 960 0
DWIDTH 18 0
BBX 18 18 0 -3
BITMAP
00ffc0
008000
008000
008000
010000
010000
010000
020000
220000
220000
740000
540000
140000
180000
080000
080000
000000
000000
ENDCHAR
STARTCHAR 13-86
ENCODING 11638
SWIDTH 960 0
DWIDTH 18 0
BBX 18 18 0 -3
BITMAP
000000
008000
008000
008000
008000
008000
008000
008000
008000
008000
008000
008000
008000
008000
008000
7fff00
000000
000000
ENDCHAR
STARTCHAR 13-87
ENCODING 11639
SWIDTH 960 0
DWIDTH 18 0
BBX 18 18 0 -3
BITMAP
000000
000100
000200
000400
000800
001000
002000
004000
008000
010000
020000
040000
080000
100000
200000
7fff00
000000
000000
ENDCHAR
STARTCHAR 13-88
ENCODING 11640
SWIDTH 960 0
DWIDTH 18 0
BBX 18 18 0 -3
BITMAP
000000
200000
200000
200000
200000
200000
200000
200000
200000
200000
200000
200000
200000
200000
200000
3fff00
000000
000000
ENDCHAR
STARTCHAR 13-89
ENCODING 11641
SWIDTH 960 0
DWIDTH 18 0
BBX 18 18 0 -3
BITMAP
000000
000100
000300
000500
000900
001100
002100
004100
008100
010100
020100
040100
080100
100100
200100
7fff00
000000
000000
ENDCHAR
STARTCHAR 13-90
ENCODING 11642
SWIDTH 960 0
DWIDTH 18 0
BBX 18 18 0 -3
BITMAP
000000
000000
000000
000000
180600
180600
000000
000000
000000
000000
000000
000000
00c000
00c000
000000
000000
000000
000000
ENDCHAR
STARTCHAR 13-91
ENCODING 11643
SWIDTH 960 0
DWIDTH 18 0
BBX 18 18 0 -3
BITMAP
000000
01e000
061800
080400
080400
100200
100200
100200
100200
100200
100200
100200
100200
100200
100200
100200
100200
000000
ENDCHAR
STARTCHAR 13-92
ENCODING 11644
SWIDTH 960 0
DWIDTH 18 0
BBX 18 18 0 -3
BITMAP
100200
100200
100200
100200
100200
100200
100200
100200
100200
100200
100200
100200
080400
080400
061800
01e000
000000
000000
ENDCHAR
STARTCHAR 16-01
ENCODING 12321
SWIDTH 960 0
DWIDTH 18 0
BBX 18 18 0 -3
BITMAP
000000
7fff00
042000
042000
042000
3ffc00
242400
242400
242400
242400
242400
3ffc00
042000
042000
042000
042000
ffff80
000000
ENDCHAR
STARTCHAR 16-02
ENCODING 12322
SWIDTH 960 0
DWIDTH 18 0
BBX 18 18 0 -3
BITMAP
000000
03ff80
004800
784800
484800
4bff00
4a4900
4a4900
4a4900
4a4900
4a4900
4bff00
484800
784800
404800
004800
07ff80
000000
ENDCHAR
STARTCHAR 16-03
ENCODING 12323
SWIDTH 960 0
DWIDTH 18 0
BBX 18 18 0 -3
BITMAP
101000
101000
101000
10ff00
fc1000
241000
241000
25ff80
240000
441000
481000
681000
99ff00
081000
141000
201000
43ff80
800000
ENDCHAR
STARTCHAR 16-04
ENCODING 12324
SWIDTH 960 0
DWIDTH 18 0
BBX 18 18 0 -3
BITMAP
000000
000000
fbff80
880200
900200
900200
a1f200
911200
911200
891200
891200
891200
89f200
890200
b00200
800200
800200
800600
ENDCHAR
STARTCHAR 16-05
ENCODING 12325
SWIDTH 960 0
DWIDTH 18 0
BBX 18 18 0 -3
BITMAP
008000
008000
008000
7fff80
000000
000000
0ffc00
080400
080400
080400
0ffc00
024000
044300
1c2c00
641000
040800
07c600
3c0180
ENDCHAR
STARTCHAR 16-06
ENCODING 12326
SWIDTH 960 0
DWIDTH 18 0
BBX 18 18 0 -3
BITMAP
000000
003f00
3fc400
110400
088800
ffff80
808480
a44280
240a00
43f800
020000
07fc00
0c0800
131000
60e000
01b000
0e0c00
f00380
ENDCHAR
STARTCHAR 16-07
ENCODING 12327
SWIDTH 960 0
DWIDTH 18 0
BBX 18 18 0 -3
BITMAP
102000
102000
104400
104200
f88d00
13f100
100000
108000
14ff00
191000
321000
d01000
17ff80
101000
102800
104400
118200
360180
ENDCHAR
STARTCHAR 16-08
ENCODING 12328
SWIDTH 960 0
DWIDTH 18 0
BBX 18 18 0 -3
BITMAP
101000
101000
102800
102800
fc4400
244400
248200
250100
26fe80
440000
480000
680000
98fe00
088200
148200
248200
40fe00
800000
ENDCHAR
STARTCHAR 16-09
ENCODING 12329
SWIDTH 960 0
DWIDTH 18 0
BBX 18 18 0 -3
BITMAP
004000
404000
207c00
108400
114800
063000
006800
f18600
161180
11fe00
101000
11fe00
101000
17ff00
101000
281000
460000
81ff80
ENDCHAR
STARTCHAR 16-10
ENCODING 12330
SWIDTH 960 0
DWIDTH 18 0
BBX 18 18 0 -3
BITMAP
080800
080800
ffff80
080800
088800
3f8400
014500
222900
141200
1bec00
e08380
008000
3ffe00
014000
022000
041000
180c00
e00380
ENDCHAR
STARTCHAR 16-11
ENCODING 12331
SWIDTH 960 0
DWIDTH 18 0
BBX 18 18 0 -3
BITMAP
041000
041000
041000
ffff80
041000
041000
ffff80
024000
024000
3ffe00
224200
224200
244200
283e00
300200
200200
3ffe00
000000
ENDCHAR
STARTCHAR 16-12
ENCODING 12332
SWIDTH 960 0
DWIDTH 18 0
BBX 18 18 0 -3
BITMAP
0c4000
307c00
d08800
111000
13fe00
fd2200
11fe00
312200
39fe00
542000
53ff00
522100
93ff00
922100
13ff00
102080
102080
101f80
ENDCHAR
STARTCHAR 16-13
ENCODING 12333
SWIDTH 960 0
DWIDTH 18 0
BBX 18 18 0 -3
BITMAP
000000
7fff00
022000
022000
1ffc00
122400
122400
1ffc00
022000
022000
022000
ffff80
000000
148400
144200
244900
440900
03f800
ENDCHAR
STARTCHAR 16-14
ENCODING 12334
SWIDTH 960 0
DWIDTH 18 0
BBX 18 18 0 -3
BITMAP
100000
13ff00
120100
120100
13ff00
fe0000
12ff00
121000
122400
1a4200
32fd00
d21100
121000
15ff00
141000
141000
15ff80
300000
ENDCHAR
STARTCHAR 16-15
ENCODING 12335
SWIDTH 960 0
DWIDTH 18 0
BBX 18 18 0 -3
BITMAP
200000
13ff00
0a0100
0a0100
83ff00
420000
22ff00
021000
022400
0a4200
0afd00
121100
141000
25ff00
241000
481000
4bff80
480000
ENDCHAR
STARTCHAR 16-16
ENCODING 12336
SWIDTH 960 0
DWIDTH 18 0
BBX 18 18 0 -3
BITMAP
100000
100000
107e00
104200
104200
7e4200
124200
127e00
124200
124200
124200
124200
127e00
124000
120080
220080
21ff80
400000
ENDCHAR
STARTCHAR 16-17
ENCODING 12337
SWIDTH 960 0
DWIDTH 18 0
BBX 18 18 0 -3
BITMAP
081000
081000
ffff80
081000
020000
3ffc00
040400
ffff80
000000
1ffc00
100400
1ffc00
004000
3ffe00
084000
ffff80
004000
004000
ENDCHAR
STARTCHAR 16-18
ENCODING 12338
SWIDTH 960 0
DWIDTH 18 0
BBX 18 18 0 -3
BITMAP
041000
041000
ffff80
041000
000000
7fff00
000000
000000
1ffc00
100400
100400
100400
1ffc00
100000
200000
200000
400000
800000
ENDCHAR
STARTCHAR 16-19
ENCODING 12339
SWIDTH 960 0
DWIDTH 18 0
BBX 18 18 0 -3
BITMAP
202000
204400
388200
4bfd00
501100
fc1000
57ff80
542400
7c4200
548900
571080
546200
7c0400
001880
aae100
aa0600
a81800
83e000
ENDCHAR
STARTCHAR 16-20
ENCODING 12340
SWIDTH 960 0
DWIDTH 18 0
BBX 18 18 0 -3
BITMAP
101000
101000
101000
13ff00
fc8400
104400
304400
300800
5bff80
541000
541000
501000
91ff00
901000
101000
101000
101000
101000
ENDCHAR
STARTCHAR 16-21
ENCODING 12341
SWIDTH 960 0
DWIDTH 18 0
BBX 18 18 0 -3
BITMAP
000000
1fff80
100000
100000
102000
102000
102000
102000
102000
27ff00
202000
202000
202000
202000
402000
402000
9fff80
000000
ENDCHAR
STARTCHAR 16-22
ENCODING 12342
SWIDTH 960 0
DWIDTH 18 0
BBX 18 18 0 -3
BITMAP
080800
080800
081400
ff1200
082100
7e4080
428400
422400
7e1400
421400
428400
7e4400
084400
080780
ff7c00
080400
080400
080400
ENDCHAR
STARTCHAR 16-23
ENCODING 12343
SWIDTH 960 0
DWIDTH 18 0
BBX 18 18 0 -3
BITMAP
100000
17fc00
104400
104400
104400
fc4800
10af00
10a100
10a100
149100
191100
310a00
d10a00
120400
120c00
141200
146100
398080
ENDCHAR
STARTCHAR 16-24
ENCODING 12344
SWIDTH 960 0
DWIDTH 18 0
BBX 18 18 0 -3
BITMAP
008000
008000
008000
ffff80
800080
880080
080000
1f7e00
114200
214200
424200
b24200
0c4200
044600
084000
104080
204080
c03f80
ENDCHAR
STARTCHAR 16-25
ENCODING 12345
SWIDTH 960 0
DWIDTH 18 0
BBX 18 18 0 -3
BITMAP
100000
107e00
104200
104200
fe4200
124200
127e00
224200
224200
244200
444200
444200
687e00
984200
144200
224200
404200
81ff80
ENDCHAR
STARTCHAR 16-26
ENCODING 12346
SWIDTH 960 0
DWIDTH 18 0
BBX 18 18 0 -3
BITMAP
081000
081000
081000
081000
7e1000
4aff80
4a4000
4a4000
4a4000
4a4000
7e4000
084000
084000
0a4000
094000
1f4000
e13f00
000000
ENDCHAR
STARTCHAR 16-27
ENCODING 12347
SWIDTH 960 0
DWIDTH 18 0
BBX 18 18 0 -3
BITMAP
080800
080800
140800
121000
291000
492200
be2100
224e80
3ef080
220000
220000
3e7f00
204100
244100
224100
2d4100
317f00
c00000
ENDCHAR
STARTCHAR 16-28
ENCODING 12348
SWIDTH 960 0
DWIDTH 18 0
BBX 18 18 0 -3
BITMAP
082000
082000
102000
124000
627f80
148080
088080
123c80
222480
7d2480
093c80
282480
2a2480
292480
293c80
480100
080100
080600
ENDCHAR
STARTCHAR 16-29
ENCODING 12349
SWIDTH 960 0
DWIDTH 18 0
BBX 18 18 0 -3
BITMAP
101000
101000
20ff00
241000
c41000
29ff80
102400
242400
444480
fc8380
152000
503e00
544200
54a400
551800
901400
106200
138180
ENDCHAR
STARTCHAR 16-30
ENCODING 12350
SWIDTH 960 0
DWIDTH 18 0
BBX 18 18 0 -3
BITMAP
100800
100800
3e0800
220800
440800
bf0f80
290800
290800
3f0800
297f00
294100
294100
3f4100
004100
554100
554100
557f00
400000
ENDCHAR
STARTCHAR 16-31
ENCODING 12351
SWIDTH 960 0
DWIDTH 18 0
BBX 18 18 0 -3
BITMAP
002400
002200
002200
002000
ffff80
002000
002200
3f2200
212200
211200
211400
3f1400
200800
018800
061400
386480
c18280
0e0180
ENDCHAR
STARTCHAR 16-32
ENCODING 12352
SWIDTH 960 0
DWIDTH 18 0
BBX 18 18 0 -3
BITMAP
000000
ffff80
041000
041000
7fff00
441100
441100
7fff00
000000
188800
049000
ffff80
01a000
029000
048800
188600
e08180
008000
ENDCHAR
STARTCHAR 16-33
ENCODING 12353
SWIDTH 960 0
DWIDTH 18 0
BBX 18 18 0 -3
BITMAP
101000
101000
102800
102800
fc4400
044400
088200
090100
16fe80
340000
580000
940000
12fe00
128200
108200
108200
10fe00
100000
ENDCHAR
STARTCHAR 16-34
ENCODING 12354
SWIDTH 960 0
DWIDTH 18 0
BBX 18 18 0 -3
BITMAP
008000
008000
008000
ffff80
800080
820080
020000
020000
ffff80
040800
041000
081000
1c2000
134000
00e000
031800
1c0400
e00200
ENDCHAR
STARTCHAR 16-35
ENCODING 12355
SWIDTH 960 0
DWIDTH 18 0
BBX 18 18 0 -3
BITMAP
004000
004000
3fff80
208000
208000
3fff00
211000
224800
244400
2ffe00
344580
27fc00
244400
27fc00
404000
404080
804080
003f80
ENDCHAR
STARTCHAR 16-36
ENCODING 12356
SWIDTH 960 0
DWIDTH 18 0
BBX 18 18 0 -3
BITMAP
101000
101000
101000
13ff80
120080
fa2080
102000
102000
13ff80
184400
304400
d08400
108800
11c800
103000
104c00
118200
360100
ENDCHAR
STARTCHAR 16-37
ENCODING 12357
SWIDTH 960 0
DWIDTH 18 0
BBX 18 18 0 -3
BITMAP
001000
001000
f9ff00
880400
888400
884400
884800
fbff80
880000
880000
88fe00
888200
888200
f8fe00
808200
008200
008200
00fe00
ENDCHAR
STARTCHAR 16-38
ENCODING 12358
SWIDTH 960 0
DWIDTH 18 0
BBX 18 18 0 -3
BITMAP
008000
008000
ffff80
800080
820080
7fff00
041000
082000
1f4000
01e000
0e1800
f08600
008000
ffff80
01a000
0e9800
f08780
008000
ENDCHAR
STARTCHAR 16-39
ENCODING 12359
SWIDTH 960 0
DWIDTH 18 0
BBX 18 18 0 -3
BITMAP
000000
7e3f00
422100
422100
7e3f00
422100
7e3f00
408100
4ff900
422100
422100
5ffd00
400100
47f100
441100
47f100
441100
47f300
ENDCHAR
STARTCHAR 16-40
ENCODING 12360
SWIDTH 960 0
DWIDTH 18 0
BBX 18 18 0 -3
BITMAP
240800
240800
240800
feff80
248080
3c8880
080800
081000
7eff80
4a1200
4a1200
7e2200
082400
085400
ff0c00
081200
086100
098100
ENDCHAR
STARTCHAR 16-41
ENCODING 12361
SWIDTH 960 0
DWIDTH 18 0
BBX 18 18 0 -3
BITMAP
008000
008000
008000
008000
ffff80
01c000
02a000
0c9800
308600
c08180
008000
000000
0ff800
080800
080800
080800
080800
0ff800
ENDCHAR
STARTCHAR 16-42
ENCODING 12362
SWIDTH 960 0
DWIDTH 18 0
BBX 18 18 0 -3
BITMAP
000000
100400
100400
100400
120400
110400
108400
104400
104400
100400
100400
100a00
100a00
131100
1c2100
304080
c18080
0e0080
ENDCHAR
STARTCHAR 16-43
ENCODING 12363
SWIDTH 960 0
DWIDTH 18 0
BBX 18 18 0 -3
BITMAP
080000
080000
0bfe00
102200
102200
302200
37ff80
502200
502200
902200
102200
13fe00
102000
104000
104000
108000
110000
160000
ENDCHAR
STARTCHAR 16-44
ENCODING 12364
SWIDTH 960 0
DWIDTH 18 0
BBX 18 18 0 -3
BITMAP
082000
082000
082000
102000
102000
33ff00
300000
520400
510400
910400
108400
108400
108400
108800
100800
100800
17ff80
100000
ENDCHAR
STARTCHAR 16-45
ENCODING 12365
SWIDTH 960 0
DWIDTH 18 0
BBX 18 18 0 -3
BITMAP
081000
081000
081000
101000
17ff80
302000
305080
505100
509200
919400
128800
148800
188800
108400
108400
10b200
11c100
160080
ENDCHAR
STARTCHAR 16-46
ENCODING 12366
SWIDTH 960 0
DWIDTH 18 0
BBX 18 18 0 -3
BITMAP
082000
082000
09fc00
104400
104400
37ff80
300000
51fe00
510200
910200
11fe00
100800
11ff00
108800
108800
17ff80
100800
100800
ENDCHAR
STARTCHAR 16-47
ENCODING 12367
SWIDTH 960 0
DWIDTH 18 0
BBX 18 18 0 -3
BITMAP
000000
7fff00
400100
422100
422100
422100
5ffd00
422100
422100
422100
5ffd00
442100
442100
482100
502100
400100
7fff00
000000
ENDCHAR
STARTCHAR 16-48
ENCODING 12368
SWIDTH 960 0
DWIDTH 18 0
BBX 18 18 0 -3
BITMAP
008000
008000
7fff80
008000
008000
3ffe00
008200
1ffe00
108000
208000
3fff00
214100
014100
022600
041000
080800
300600
c00180
ENDCHAR
STARTCHAR 16-49
ENCODING 12369
SWIDTH 960 0
DWIDTH 18 0
BBX 18 18 0 -3
BITMAP
007c00
1f8000
008000
008000
ffff80
01c000
02a000
0c9800
308600
c20180
020000
ffff80
041000
082000
1fc000
013000
0e0c00
f00200
ENDCHAR
STARTCHAR 16-50
ENCODING 12370
SWIDTH 960 0
DWIDTH 18 0
BBX 18 18 0 -3
BITMAP
002400
002200
002000
3fff80
202000
2fa000
202100
241100
241100
3f9100
248a00
288a00
290400
5d0400
430a80
449280
882180
30c080
ENDCHAR
STARTCHAR 16-51
ENCODING 12371
SWIDTH 960 0
DWIDTH 18 0
BBX 18 18 0 -3
BITMAP
000200
3fc200
204200
204200
3fc200
203f80
200200
2f8200
202200
201200
3fca00
220a00
2a8200
4a8200
4a4200
524200
820200
060600
ENDCHAR
STARTCHAR 16-52
ENCODING 12372
SWIDTH 960 0
DWIDTH 18 0
BBX 18 18 0 -3
BITMAP
104000
104400
104400
108800
18ff80
558800
558800
528800
94ff00
908800
108800
108800
10ff00
108800
108800
108800
10ff80
100000
ENDCHAR
STARTCHAR 16-53
ENCODING 12373
SWIDTH 960 0
DWIDTH 18 0
BBX 18 18 0 -3
BITMAP
008000
008000
3ffe00
080800
041000
ffff80
000000
0ff800
080800
0ff800
080800
080800
0ff800
008000
284200
484900
880900
07f800
ENDCHAR
STARTCHAR 16-54
ENCODING 12374
SWIDTH 960 0
DWIDTH 18 0
BBX 18 18 0 -3
BITMAP
000200
3f8200
208200
3f8200
203f80
2f8200
201200
5fca00
420a00
4a8200
924200
224200
060600
008000
284200
482100
880500
07fc00
ENDCHAR
STARTCHAR 16-55
ENCODING 12375
SWIDTH 960 0
DWIDTH 18 0
BBX 18 18 0 -3
BITMAP
000000
0ffc00
080400
080400
0ffc00
080400
080400
0ffc00
020000
020000
07ff00
088900
310900
c21100
0c2100
30c200
030200
000c00
ENDCHAR
STARTCHAR 16-56
ENCODING 12376
SWIDTH 960 0
DWIDTH 18 0
BBX 18 18 0 -3
BITMAP
101000
101000
101000
13ff00
103000
fccc00
330200
300000
5bff80
540200
540200
51f200
911200
911200
11f200
100200
100200
100600
ENDCHAR
STARTCHAR 16-57
ENCODING 12377
SWIDTH 960 0
DWIDTH 18 0
BBX 18 18 0 -3
BITMAP
088000
048000
048000
008000
3ff800
010800
020800
03fc00
040400
040400
080400
1fff00
200100
c49100
124900
224a00
400200
000c00
ENDCHAR
STARTCHAR 16-58
ENCODING 12378
SWIDTH 960 0
DWIDTH 18 0
BBX 18 18 0 -3
BITMAP
000000
1ffc00
108400
108400
1ffc00
108400
108400
1ffc00
000000
000000
ffff80
108000
108100
104200
102400
119800
1e0600
f00180
ENDCHAR
STARTCHAR 16-59
ENCODING 12379
SWIDTH 960 0
DWIDTH 18 0
BBX 18 18 0 -3
BITMAP
000000
1ffc00
108400
1ffc00
108400
108400
1ffc00
000000
041000
041000
7fff00
041000
041000
ffff80
020000
043000
180c00
600200
ENDCHAR
STARTCHAR 16-60
ENCODING 12380
SWIDTH 960 0
DWIDTH 18 0
BBX 18 18 0 -3
BITMAP
061000
181f00
681100
082200
085200
7e8c00
080800
181400
186780
2d8880
2a0880
2a1100
282900
48c600
480400
080800
083000
09c000
ENDCHAR
STARTCHAR 16-61
ENCODING 12381
SWIDTH 960 0
DWIDTH 18 0
BBX 18 18 0 -3
BITMAP
102200
102200
202200
244400
c47f80
28c400
10c400
254400
447f00
fa4400
124400
504400
547f00
524400
924400
904400
107f80
100000
ENDCHAR
STARTCHAR 16-62
ENCODING 12382
SWIDTH 960 0
DWIDTH 18 0
BBX 18 18 0 -3
BITMAP
101000
101000
20fc00
242400
c42400
29ff80
100000
247e00
444200
fa4200
127e00
500800
54ff00
524800
924800
91ff80
100800
100800
ENDCHAR
STARTCHAR 16-63
ENCODING 12383
SWIDTH 960 0
DWIDTH 18 0
BBX 18 18 0 -3
BITMAP
000000
3ffe00
208200
3ffe00
208200
208200
3ffe00
000000
0ffc00
080400
080400
0ffc00
080400
080400
0ffc00
080400
080400
081c00
ENDCHAR
STARTCHAR 16-64
ENCODING 12384
SWIDTH 960 0
DWIDTH 18 0
BBX 18 18 0 -3
BITMAP
080800
080800
ffff80
080800
007000
1f8000
008000
ffff80
02a000
0c9800
f08780
010000
ffff80
040800
1e3000
01c000
073800
780600
ENDCHAR
STARTCHAR 16-65
ENCODING 12385
SWIDTH 960 0
DWIDTH 18 0
BBX 18 18 0 -3
BITMAP
008000
008000
008000
008000
ffff80
014000
024000
044000
082300
182400
282800
c81000
081000
080800
080800
09c400
0e0200
700180
ENDCHAR
STARTCHAR 16-66
ENCODING 12386
SWIDTH 960 0
DWIDTH 18 0
BBX 18 18 0 -3
BITMAP
000000
3dff80
010880
01ff80
7d0880
010880
01ff80
3c0000
00ff00
3c8100
008100
00ff00
7c8100
448100
44ff00
7c8100
408100
008300
ENDCHAR
STARTCHAR 16-67
ENCODING 12387
SWIDTH 960 0
DWIDTH 18 0
BBX 18 18 0 -3
BITMAP
004000
404000
23fc00
108400
108400
07ff80
000000
f1fe00
110200
110200
11fe00
100800
11ff00
110800
17ff80
280800
440800
83ff80
ENDCHAR
STARTCHAR 16-68
ENCODING 12388
SWIDTH 960 0
DWIDTH 18 0
BBX 18 18 0 -3
BITMAP
002000
43fe00
222200
13fe00
102000
0fff80
000000
f3fe00
120200
13fe00
120200
13fe00
120200
13fe00
10c800
2b0700
440000
83ff80
ENDCHAR
STARTCHAR 16-69
ENCODING 12389
SWIDTH 960 0
DWIDTH 18 0
BBX 18 18 0 -3
BITMAP
000000
7fff80
400000
440000
440000
47fc00
484000
404000
4ffe00
404000
40a000
409000
410800
420400
4c0400
400000
7fff80
000000
ENDCHAR
STARTCHAR 16-70
ENCODING 12390
SWIDTH 960 0
DWIDTH 18 0
BBX 18 18 0 -3
BITMAP
041000
041000
041000
041000
041000
7fff00
041000
041000
041000
041000
041000
ffff80
041000
041000
081000
081000
101000
201000
ENDCHAR
STARTCHAR 16-71
ENCODING 12391
SWIDTH 960 0
DWIDTH 18 0
BBX 18 18 0 -3
BITMAP
008000
008000
008000
008000
ffff80
008000
011000
021000
0c2200
044200
028400
010800
021000
0c2000
705800
018400
060200
780100
ENDCHAR
STARTCHAR 16-72
ENCODING 12392
SWIDTH 960 0
DWIDTH 18 0
BBX 18 18 0 -3
BITMAP
200a00
200900
200900
200800
27ff80
f80800
200900
27c900
244900
244900
244a00
27c600
280400
306400
c38a00
0c1280
006180
018080
ENDCHAR
STARTCHAR 16-73
ENCODING 12393
SWIDTH 960 0
DWIDTH 18 0
BBX 18 18 0 -3
BITMAP
008000
008000
ffff80
020800
0c0400
3ffa00
000200
000000
0ffc00
080400
080400
0ffc00
080400
080400
0ffc00
080400
080400
081c00
ENDCHAR
STARTCHAR 16-74
ENCODING 12394
SWIDTH 960 0
DWIDTH 18 0
BBX 18 18 0 -3
BITMAP
080000
081f80
081100
ffd200
101200
101400
1f9200
309200
309100
3f9100
509080
509080
909080
1f9080
109700
109000
109000
119000
ENDCHAR
STARTCHAR 16-75
ENCODING 12395
SWIDTH 960 0
DWIDTH 18 0
BBX 18 18 0 -3
BITMAP
009200
789200
111400
165d00
129500
211200
225400
7fdf80
685480
681200
abff80
2a1100
2b1200
3a8c00
224800
041480
046280
098180
ENDCHAR
STARTCHAR 16-76
ENCODING 12396
SWIDTH 960 0
DWIDTH 18 0
BBX 18 18 0 -3
BITMAP
000000
000000
000000
000000
000000
000000
000000
000000
ffff80
000000
000000
000000
000000
000000
000000
000000
000000
000000
ENDCHAR
STARTCHAR 16-77
ENCODING 12397
SWIDTH 960 0
DWIDTH 18 0
BBX 18 18 0 -3
BITMAP
008000
008000
ffff80
008000
008000
3ffe00
000000
000000
ffff80
800080
880080
080000
087800
0f8000
080000
080200
080200
07fe00
ENDCHAR
STARTCHAR 16-78
ENCODING 12398
SWIDTH 960 0
DWIDTH 18 0
BBX 18 18 0 -3
BITMAP
210200
108200
088400
080800
87ff80
408400
208400
210200
020100
0c0080
000000
13fe00
125200
225200
225200
425200
4fff80
400000
ENDCHAR
STARTCHAR 16-79
ENCODING 12399
SWIDTH 960 0
DWIDTH 18 0
BBX 18 18 0 -3
BITMAP
008000
408000
20fc00
110400
120800
07fe00
022200
f22200
122200
13fe00
104800
104800
108800
110800
160900
280700
460000
81ff80
ENDCHAR
STARTCHAR 16-80
ENCODING 12400
SWIDTH 960 0
DWIDTH 18 0
BBX 18 18 0 -3
BITMAP
0c0780
31f800
d00100
112100
109200
fc9200
100400
310000
393f00
552100
552100
512100
513f00
912100
912100
112100
113f00
110000
ENDCHAR
STARTCHAR 16-81
ENCODING 12401
SWIDTH 960 0
DWIDTH 18 0
BBX 18 18 0 -3
BITMAP
080800
080800
ffff80
080800
080800
008000
608000
11ff00
092100
022200
042400
002000
005000
045000
188800
610400
020200
0c0180
ENDCHAR
STARTCHAR 16-82
ENCODING 12402
SWIDTH 960 0
DWIDTH 18 0
BBX 18 18 0 -3
BITMAP
041000
041000
041000
ffff80
041000
041000
000000
3ffe00
008000
008000
008000
ffff80
008000
008000
008000
008000
008000
038000
ENDCHAR
STARTCHAR 16-83
ENCODING 12403
SWIDTH 960 0
DWIDTH 18 0
BBX 18 18 0 -3
BITMAP
200000
20f780
381080
481080
50f780
fc8400
548400
54f780
7c1080
541080
549480
545280
7c1080
005280
aa9480
aa1080
aa1080
803180
ENDCHAR
STARTCHAR 16-84
ENCODING 12404
SWIDTH 960 0
DWIDTH 18 0
BBX 18 18 0 -3
BITMAP
020000
020000
040800
040400
080200
107e00
7fa100
042100
042000
042000
042000
042000
042000
042000
082000
082080
102080
601f80
ENDCHAR
STARTCHAR 16-85
ENCODING 12405
SWIDTH 960 0
DWIDTH 18 0
BBX 18 18 0 -3
BITMAP
000000
018000
060000
383f00
202100
202100
202100
202100
3f2100
202100
202100
202100
202100
202100
3f2700
202000
002000
002000
ENDCHAR
STARTCHAR 16-86
ENCODING 12406
SWIDTH 960 0
DWIDTH 18 0
BBX 18 18 0 -3
BITMAP
000000
01ff80
010080
7d0880
450880
450880
457e80
450880
450880
450880
451480
451480
7d2280
412280
014280
010080
01ff80
000000
ENDCHAR
STARTCHAR 16-87
ENCODING 12407
SWIDTH 960 0
DWIDTH 18 0
BBX 18 18 0 -3
BITMAP
000000
0ff800
080800
080800
0ff800
000000
1ffc00
100400
1ffc00
100400
100400
1ffc00
100400
100400
1ffc00
040000
181c00
e00300
ENDCHAR
STARTCHAR 16-88
ENCODING 12408
SWIDTH 960 0
DWIDTH 18 0
BBX 18 18 0 -3
BITMAP
000000
7fff00
400100
408100
408100
408100
5ffd00
408100
408100
414100
414100
422100
421100
440900
580500
400100
7fff00
000000
ENDCHAR
STARTCHAR 16-89
ENCODING 12409
SWIDTH 960 0
DWIDTH 18 0
BBX 18 18 0 -3
BITMAP
080000
08ff80
088080
088880
088880
7e8880
12be80
128880
128880
128880
249480
349480
48a280
0ca280
12c280
128080
20ff80
400000
ENDCHAR
STARTCHAR 16-90
ENCODING 12410
SWIDTH 960 0
DWIDTH 18 0
BBX 18 18 0 -3
BITMAP
000200
3fc200
004200
004200
004200
1fc200
100200
100200
100200
100200
3fc200
204200
004200
004200
008200
008200
010200
0e0200
ENDCHAR
STARTCHAR 16-91
ENCODING 12411
SWIDTH 960 0
DWIDTH 18 0
BBX 18 18 0 -3
BITMAP
082000
082000
142000
122000
297f80
484880
be8900
230900
3e0800
220800
221400
3e1400
201400
241400
222200
2d2200
314100
c08080
ENDCHAR
STARTCHAR 16-92
ENCODING 12412
SWIDTH 960 0
DWIDTH 18 0
BBX 18 18 0 -3
BITMAP
200700
13f800
080100
0a2100
811200
411200
200000
201f00
01f000
081000
081000
17ff80
101000
201000
201000
401000
43ff00
400000
ENDCHAR
STARTCHAR 16-93
ENCODING 12413
SWIDTH 960 0
DWIDTH 18 0
BBX 18 18 0 -3
BITMAP
108200
108200
110200
122200
164200
119200
121200
1fea00
100a00
100200
17f200
141200
27f200
241200
27f200
441280
441280
843180
ENDCHAR
STARTCHAR 16-94
ENCODING 12414
SWIDTH 960 0
DWIDTH 18 0
BBX 18 18 0 -3
BITMAP
041000
041000
ffff80
041000
001000
7c3800
444400
48ba00
530180
487c00
440400
440800
45ff00
440000
5bff80
404200
408d00
43f080
ENDCHAR
STARTCHAR 17-01
ENCODING 12577
SWIDTH 960 0
DWIDTH 18 0
BBX 18 18 0 -3
BITMAP
001000
f81000
881000
97ff80
940080
a40080
91fe00
900000
880000
880000
8bff80
884400
884400
888400
b08400
810480
820480
8c0380
ENDCHAR
STARTCHAR 17-02
ENCODING 12578
SWIDTH 960 0
DWIDTH 18 0
BBX 18 18 0 -3
BITMAP
001000
7c2800
444400
488200
490100
52fe80
480000
48fe00
440200
440400
440800
45fe00
440000
5bff80
404400
408200
411d00
43e100
ENDCHAR
STARTCHAR 17-03
ENCODING 12579
SWIDTH 960 0
DWIDTH 18 0
BBX 18 18 0 -3
BITMAP
000000
7c0f00
45f000
492200
489400
509400
480000
49fe00
440200
45fe00
440200
45fe00
440000
44a200
5a9100
428480
448400
407c00
ENDCHAR
STARTCHAR 17-04
ENCODING 12580
SWIDTH 960 0
DWIDTH 18 0
BBX 18 18 0 -3
BITMAP
040000
043f80
042080
7fa080
213f80
110000
123f80
7fa080
003f80
002080
3f3f80
212080
212080
3f3f80
210800
210900
3f1080
006080
ENDCHAR
STARTCHAR 17-05
ENCODING 12581
SWIDTH 960 0
DWIDTH 18 0
BBX 18 18 0 -3
BITMAP
000400
000400
780400
480400
480400
4bff80
480400
480400
488400
484400
482400
482400
480400
780400
400400
000400
000400
001c00
ENDCHAR
STARTCHAR 17-06
ENCODING 12582
SWIDTH 960 0
DWIDTH 18 0
BBX 18 18 0 -3
BITMAP
010000
010000
010000
010000
020000
ffff80
040000
040000
080000
080000
1ffc00
280400
c80400
080400
080400
080400
0ffc00
000000
ENDCHAR
STARTCHAR 17-07
ENCODING 12583
SWIDTH 960 0
DWIDTH 18 0
BBX 18 18 0 -3
BITMAP
008000
008000
008000
ffff80
800080
800080
0ffc00
008000
008000
008000
008000
7fff00
008000
008000
008000
008000
008000
038000
ENDCHAR
STARTCHAR 17-08
ENCODING 12584
SWIDTH 960 0
DWIDTH 18 0
BBX 18 18 0 -3
BITMAP
010000
010000
020000
1ff800
100800
100800
1ff800
100000
100000
1fff00
100000
100000
1fff00
000100
289100
444900
844a00
000600
ENDCHAR
STARTCHAR 17-09
ENCODING 12585
SWIDTH 960 0
DWIDTH 18 0
BBX 18 18 0 -3
BITMAP
000000
7f3f80
010080
010080
010080
211080
110880
090480
010080
030180
050280
050280
090480
110880
613080
010080
010080
030180
ENDCHAR
STARTCHAR 17-10
ENCODING 12586
SWIDTH 960 0
DWIDTH 18 0
BBX 18 18 0 -3
BITMAP
000000
400000
23ff00
101000
101000
001000
001000
f7ff80
101000
101000
101000
101000
101000
101000
107000
280000
460000
81ff80
ENDCHAR
STARTCHAR 17-11
ENCODING 12587
SWIDTH 960 0
DWIDTH 18 0
BBX 18 18 0 -3
BITMAP
000000
ffff80
008000
008000
008000
7fff00
408100
50a100
489100
448900
408100
50a100
489100
448900
448900
408100
408100
408700
ENDCHAR
STARTCHAR 17-12
ENCODING 12588
SWIDTH 960 0
DWIDTH 18 0
BBX 18 18 0 -3
BITMAP
010000
020000
0c0000
303f00
222100
222100
222100
222100
222100
222100
222100
2e2100
722100
042100
042700
082000
102000
602000
ENDCHAR
STARTCHAR 17-13
ENCODING 12589
SWIDTH 960 0
DWIDTH 18 0
BBX 18 18 0 -3
BITMAP
441000
241000
247e00
084200
fe7e00
124200
124200
fe7e00
904000
fe7f80
124000
324000
327f80
520080
56aa80
90aa80
112080
100300
ENDCHAR
STARTCHAR 17-14
ENCODING 12590
SWIDTH 960 0
DWIDTH 18 0
BBX 18 18 0 -3
BITMAP
008000
008000
ffff80
842080
882280
f03e00
080000
087e00
7e4200
087e00
084200
ff7e00
084200
144200
127e00
212400
404480
818380
ENDCHAR
STARTCHAR 17-15
ENCODING 12591
SWIDTH 960 0
DWIDTH 18 0
BBX 18 18 0 -3
BITMAP
000000
000000
7ff800
020800
020800
020800
020800
040800
ffff80
040800
040800
040800
080800
080800
080800
080800
ffff80
000000
ENDCHAR
STARTCHAR 17-16
ENCODING 12592
SWIDTH 960 0
DWIDTH 18 0
BBX 18 18 0 -3
BITMAP
002000
002200
fe2200
104400
107f80
10c400
3cc400
254400
267f00
644400
644400
a44400
247f00
244400
3c4400
004400
007f80
000000
ENDCHAR
STARTCHAR 17-17
ENCODING 12593
SWIDTH 960 0
DWIDTH 18 0
BBX 18 18 0 -3
BITMAP
010000
020000
0c0000
303e00
200200
200200
200200
200200
200200
3e3e00
200200
200200
200200
200200
200200
200200
3ffe00
000000
ENDCHAR
STARTCHAR 17-18
ENCODING 12594
SWIDTH 960 0
DWIDTH 18 0
BBX 18 18 0 -3
BITMAP
200000
10fc00
088400
088400
80bc00
40a400
20a400
23ff00
020100
0a0100
0a7d00
124500
124500
224500
227d00
420100
420100
420700
ENDCHAR
STARTCHAR 17-19
ENCODING 12595
SWIDTH 960 0
DWIDTH 18 0
BBX 18 18 0 -3
BITMAP
001000
001000
f81e00
881000
8bff80
8a4080
8a7d00
8bc000
8a4100
8a3f00
8a0000
fa2400
852480
04a500
08a600
082400
13ff80
000000
ENDCHAR
STARTCHAR 17-20
ENCODING 12596
SWIDTH 960 0
DWIDTH 18 0
BBX 18 18 0 -3
BITMAP
000000
01fe00
f90200
890200
890200
89fe00
890200
890200
890200
89fe00
890200
890200
f90200
81fe00
004000
008600
030100
0c0080
ENDCHAR
STARTCHAR 17-21
ENCODING 12597
SWIDTH 960 0
DWIDTH 18 0
BBX 18 18 0 -3
BITMAP
112400
f8df80
332600
592d00
94d480
112400
7fff00
441100
7fff00
000000
3f0200
210200
3f7f80
210200
3f2200
221200
3d0200
610600
ENDCHAR
STARTCHAR 17-22
ENCODING 12598
SWIDTH 960 0
DWIDTH 18 0
BBX 18 18 0 -3
BITMAP
041000
041000
ffff80
041000
000000
3f8200
208200
20bf80
3f8200
200200
2fa200
201200
3fca00
220a00
4a8200
4a4200
924200
060600
ENDCHAR
STARTCHAR 17-23
ENCODING 12599
SWIDTH 960 0
DWIDTH 18 0
BBX 18 18 0 -3
BITMAP
200000
20fe00
388200
48fe00
508200
fcfe00
540000
55ff00
7d2500
552500
55ff00
540000
7dff00
004100
aa2600
aa1800
a86600
838180
ENDCHAR
STARTCHAR 17-24
ENCODING 12600
SWIDTH 960 0
DWIDTH 18 0
BBX 18 18 0 -3
BITMAP
101000
101080
101080
10ff00
101200
fc1400
241800
25ff80
241000
442000
484100
68c200
9b4c00
087000
144000
204080
404080
803f80
ENDCHAR
STARTCHAR 17-25
ENCODING 12601
SWIDTH 960 0
DWIDTH 18 0
BBX 18 18 0 -3
BITMAP
000000
3fff80
200000
2f8000
28bf00
289400
2f9400
289400
289400
2fff80
280400
280600
2a0a00
490a00
4a9200
4c9280
982280
00c180
ENDCHAR
STARTCHAR 17-26
ENCODING 12602
SWIDTH 960 0
DWIDTH 18 0
BBX 18 18 0 -3
BITMAP
402400
202200
102200
102000
07ff80
802000
402000
23ff00
222100
0a2100
0bff00
122100
122100
23ff00
222100
422100
422100
422300
ENDCHAR
STARTCHAR 17-27
ENCODING 12603
SWIDTH 960 0
DWIDTH 18 0
BBX 18 18 0 -3
BITMAP
000c00
003000
01c000
0e0800
088800
088800
088800
088800
088400
088400
108400
108400
10a400
109200
209200
20e900
4f0900
800080
ENDCHAR
STARTCHAR 17-28
ENCODING 12604
SWIDTH 960 0
DWIDTH 18 0
BBX 18 18 0 -3
BITMAP
000000
7e3f00
422100
7e3f00
422100
422100
7e3f00
400100
400100
4ff900
408100
408100
47f100
408100
408100
4ff900
400100
400700
ENDCHAR
STARTCHAR 17-29
ENCODING 12605
SWIDTH 960 0
DWIDTH 18 0
BBX 18 18 0 -3
BITMAP
010400
008400
f84800
8fff80
884800
8bff00
8a4900
8bcf00
8a0100
8bff00
8a0100
8bff00
f80400
800400
07ff80
008400
004400
000c00
ENDCHAR
STARTCHAR 17-30
ENCODING 12606
SWIDTH 960 0
DWIDTH 18 0
BBX 18 18 0 -3
BITMAP
000000
000000
1ffc00
000000
000000
000000
000000
ffff80
010000
010000
020000
020000
040800
040400
081a00
0be200
7c0100
000100
ENDCHAR
STARTCHAR 17-31
ENCODING 12607
SWIDTH 960 0
DWIDTH 18 0
BBX 18 18 0 -3
BITMAP
000000
400000
27ff80
140080
142080
03ff00
002000
f1fe00
112200
11fe00
112200
11fe00
102000
17ff80
102000
282000
460000
81ff80
ENDCHAR
STARTCHAR 17-32
ENCODING 12608
SWIDTH 960 0
DWIDTH 18 0
BBX 18 18 0 -3
BITMAP
000000
3ffe00
008000
ffff80
808080
9c9c80
008000
1c9c00
000000
3ffe00
000000
000000
ffff80
040000
080800
08f400
3f0200
000200
ENDCHAR
STARTCHAR 17-33
ENCODING 12609
SWIDTH 960 0
DWIDTH 18 0
BBX 18 18 0 -3
BITMAP
041000
041000
ffff80
041000
041000
080e00
0bf000
101000
101000
301000
37ff80
501000
901000
101000
101000
101000
13ff00
100000
ENDCHAR
STARTCHAR 17-34
ENCODING 12610
SWIDTH 960 0
DWIDTH 18 0
BBX 18 18 0 -3
BITMAP
080000
08ff80
142200
122200
212200
293e00
482200
be2200
222200
3e3e00
222200
222200
3e2380
202e00
22f200
220200
3d0200
c10200
ENDCHAR
STARTCHAR 17-35
ENCODING 12611
SWIDTH 960 0
DWIDTH 18 0
BBX 18 18 0 -3
BITMAP
080000
0f0000
087f00
ffa100
80a100
bea200
001200
221200
491400
948c00
220800
7f0800
a29400
3e1400
222200
3e2200
224100
3e8080
ENDCHAR
STARTCHAR 17-36
ENCODING 12612
SWIDTH 960 0
DWIDTH 18 0
BBX 18 18 0 -3
BITMAP
220400
110400
088800
089000
ffff80
800080
8ff880
080800
080800
0ff800
010000
020000
3ffc00
200400
200400
200400
3ffc00
000000
ENDCHAR
STARTCHAR 17-37
ENCODING 12613
SWIDTH 960 0
DWIDTH 18 0
BBX 18 18 0 -3
BITMAP
000000
7e3f00
422100
7e3f00
422100
7e3f00
422100
7e3f00
241200
422100
814100
020000
ffff80
040800
0f1000
00f000
078c00
780300
ENDCHAR
STARTCHAR 17-38
ENCODING 12614
SWIDTH 960 0
DWIDTH 18 0
BBX 18 18 0 -3
BITMAP
000080
1f8080
108100
1f8200
108400
1f9880
040080
7fe100
000100
1f8200
108400
109880
1f8080
040100
150100
248200
448c00
043000
ENDCHAR
STARTCHAR 17-39
ENCODING 12615
SWIDTH 960 0
DWIDTH 18 0
BBX 18 18 0 -3
BITMAP
002000
002000
002000
f82000
89fe00
892200
892200
892200
f92200
892200
8fff80
885000
885000
888800
f88800
010400
020200
0c0180
ENDCHAR
STARTCHAR 17-40
ENCODING 12616
SWIDTH 960 0
DWIDTH 18 0
BBX 18 18 0 -3
BITMAP
008000
008000
008000
3ffe00
208200
208200
3ffe00
208200
208200
3ffe00
208000
004400
004400
002800
003000
00c880
070480
f80380
ENDCHAR
STARTCHAR 17-41
ENCODING 12617
SWIDTH 960 0
DWIDTH 18 0
BBX 18 18 0 -3
BITMAP
110400
088400
088800
088800
001000
ffff80
808080
808080
008000
ffff80
01c000
02a000
029000
048800
088400
308200
c08180
008000
ENDCHAR
STARTCHAR 17-42
ENCODING 12618
SWIDTH 960 0
DWIDTH 18 0
BBX 18 18 0 -3
BITMAP
060000
018000
006000
000000
1f8000
008100
008200
008400
7ec800
02d000
04a000
049000
088800
088400
108200
208180
c08000
038000
ENDCHAR
STARTCHAR 17-43
ENCODING 12619
SWIDTH 960 0
DWIDTH 18 0
BBX 18 18 0 -3
BITMAP
20e000
101800
080400
080000
03f000
801000
401000
201100
27d900
085a00
085a00
109400
109400
211200
221200
441100
481080
403000
ENDCHAR
STARTCHAR 17-44
ENCODING 12620
SWIDTH 960 0
DWIDTH 18 0
BBX 18 18 0 -3
BITMAP
201000
101000
081000
0bff00
821100
421100
23ff00
221100
021100
0bff00
081000
101200
101400
200800
201800
406480
418280
4e0180
ENDCHAR
STARTCHAR 17-45
ENCODING 12621
SWIDTH 960 0
DWIDTH 18 0
BBX 18 18 0 -3
BITMAP
008400
f88400
27ff80
208400
208400
202000
202000
fbfe00
222200
222200
222200
2fff80
205000
385000
c08800
010400
060200
180180
ENDCHAR
STARTCHAR 17-46
ENCODING 12622
SWIDTH 960 0
DWIDTH 18 0
BBX 18 18 0 -3
BITMAP
000000
7ffc00
080400
080400
0fcf00
184900
148100
230200
4c8200
b04c00
000000
1ffc00
122400
122400
122400
122400
ffff80
000000
ENDCHAR
STARTCHAR 17-47
ENCODING 12623
SWIDTH 960 0
DWIDTH 18 0
BBX 18 18 0 -3
BITMAP
400000
40ff80
4e0800
701000
407f00
3f4100
004100
067f00
784100
084100
087f00
ff4100
084100
1c4100
2a7f00
4a2000
884600
098180
ENDCHAR
STARTCHAR 17-48
ENCODING 12624
SWIDTH 960 0
DWIDTH 18 0
BBX 18 18 0 -3
BITMAP
400000
42ff80
4c0800
701000
407f00
3f4100
004100
007f00
7e4100
004100
007f00
ff4100
084100
2a4100
297f00
492000
884600
198180
ENDCHAR
STARTCHAR 17-49
ENCODING 12625
SWIDTH 960 0
DWIDTH 18 0
BBX 18 18 0 -3
BITMAP
041000
041000
041000
ffff80
041000
049000
008000
1ffc00
108400
108400
108400
ffff80
014000
014000
022000
041000
180c00
e00380
ENDCHAR
STARTCHAR 17-50
ENCODING 12626
SWIDTH 960 0
DWIDTH 18 0
BBX 18 18 0 -3
BITMAP
110000
110f00
27e000
222000
422000
57f000
900f80
27e200
242200
642200
67e200
a08200
2fe200
248200
248200
3ff200
208200
208600
ENDCHAR
STARTCHAR 17-51
ENCODING 12627
SWIDTH 960 0
DWIDTH 18 0
BBX 18 18 0 -3
BITMAP
00e000
781800
000000
000000
fdf000
001000
001100
7bd900
005a00
785a00
005400
009400
f89400
891200
8a1200
8c1100
f81080
003000
ENDCHAR
STARTCHAR 17-52
ENCODING 12628
SWIDTH 960 0
DWIDTH 18 0
BBX 18 18 0 -3
BITMAP
108200
108200
284400
244400
440800
41fe00
fd0200
910200
110200
fdfe00
104800
144800
944800
588800
508800
1d0880
320880
c40780
ENDCHAR
STARTCHAR 17-53
ENCODING 12629
SWIDTH 960 0
DWIDTH 18 0
BBX 18 18 0 -3
BITMAP
201000
101000
081000
0fff80
808800
408800
211f00
211100
032900
152600
196200
119400
211400
210800
210c00
411200
412100
414080
ENDCHAR
STARTCHAR 17-54
ENCODING 12630
SWIDTH 960 0
DWIDTH 18 0
BBX 18 18 0 -3
BITMAP
004000
004000
1fff80
900000
51f800
510800
110800
120880
340780
500000
97fe00
120200
110400
209800
206000
40d000
830c00
1c0380
ENDCHAR
STARTCHAR 17-55
ENCODING 12631
SWIDTH 960 0
DWIDTH 18 0
BBX 18 18 0 -3
BITMAP
100800
080800
041000
041000
002000
ffff80
041000
041000
080800
100400
200200
dffd80
122400
122400
122400
122400
ffff80
000000
ENDCHAR
STARTCHAR 17-56
ENCODING 12632
SWIDTH 960 0
DWIDTH 18 0
BBX 18 18 0 -3
BITMAP
000000
7fbf00
482100
482100
7f2100
482100
482100
7f3f00
482400
482400
482400
7fa400
00a200
aaa200
aaa200
a0a100
814100
034080
ENDCHAR
STARTCHAR 17-57
ENCODING 12633
SWIDTH 960 0
DWIDTH 18 0
BBX 18 18 0 -3
BITMAP
110400
108400
104800
104800
501000
59fe00
550200
950200
910200
11fe00
100800
104800
104800
108800
108800
110880
120880
1c0780
ENDCHAR
STARTCHAR 17-58
ENCODING 12634
SWIDTH 960 0
DWIDTH 18 0
BBX 18 18 0 -3
BITMAP
000000
79fe00
010200
01fe00
fd0200
010200
79fe00
008000
010000
79ff00
020100
050900
793100
49c100
490900
48f900
780200
000e00
ENDCHAR
STARTCHAR 17-59
ENCODING 12635
SWIDTH 960 0
DWIDTH 18 0
BBX 18 18 0 -3
BITMAP
080a00
080900
080900
7e0800
08ff80
088800
ff8900
088900
088900
088a00
4e8600
488400
48ea80
4b9280
682180
a8c080
980000
87ff80
ENDCHAR
STARTCHAR 17-60
ENCODING 12636
SWIDTH 960 0
DWIDTH 18 0
BBX 18 18 0 -3
BITMAP
000000
7e3f00
422100
7e3f00
422100
422100
7e3f00
441100
422100
424100
47f100
441100
441100
47f100
414100
414100
424900
4c3b00
ENDCHAR
STARTCHAR 17-61
ENCODING 12637
SWIDTH 960 0
DWIDTH 18 0
BBX 18 18 0 -3
BITMAP
100000
13ff80
101000
102000
fefe00
108200
30fe00
388200
54fe00
528200
52fe00
504000
907e00
918200
166400
101800
106600
178180
ENDCHAR
STARTCHAR 17-62
ENCODING 12638
SWIDTH 960 0
DWIDTH 18 0
BBX 18 18 0 -3
BITMAP
000000
3fff80
200000
2f8500
288480
2f8480
288400
2fbf80
200400
2f8400
288400
2f8a00
288a00
4f8a00
489100
489100
88a080
09c080
ENDCHAR
STARTCHAR 17-63
ENCODING 12639
SWIDTH 960 0
DWIDTH 18 0
BBX 18 18 0 -3
BITMAP
000000
7fff00
408100
408100
408100
408100
408100
408100
408100
7fff00
400100
400100
400100
400100
400100
400100
400100
400700
ENDCHAR
STARTCHAR 17-64
ENCODING 12640
SWIDTH 960 0
DWIDTH 18 0
BBX 18 18 0 -3
BITMAP
000000
7fff00
408100
4ff900
408100
5ffd00
400100
47f100
441100
441100
47f100
410500
439900
456100
591d00
410100
7fff00
000000
ENDCHAR
STARTCHAR 17-65
ENCODING 12641
SWIDTH 960 0
DWIDTH 18 0
BBX 18 18 0 -3
BITMAP
200000
27ff80
240000
24fe00
248200
fcfe00
248200
24fe00
242000
25ff00
244400
24e400
2c1800
343400
c5c200
040000
07ff80
000000
ENDCHAR
STARTCHAR 17-66
ENCODING 12642
SWIDTH 960 0
DWIDTH 18 0
BBX 18 18 0 -3
BITMAP
010000
010000
020000
ffff80
042000
089800
108600
3ffd80
d08400
108400
1ffc00
108400
108400
1ffc00
008000
008100
008100
007f00
ENDCHAR
STARTCHAR 17-67
ENCODING 12643
SWIDTH 960 0
DWIDTH 18 0
BBX 18 18 0 -3
BITMAP
008000
008000
ffff80
800080
8ff880
080800
0ff800
080800
0ff800
010000
020000
ffff80
040800
083000
1fc000
01b000
0e0c00
700200
ENDCHAR
STARTCHAR 17-68
ENCODING 12644
SWIDTH 960 0
DWIDTH 18 0
BBX 18 18 0 -3
BITMAP
000000
f80700
09f800
101000
101000
209000
789000
489f00
089000
089000
889000
489000
489000
309000
13ff80
2c0000
438000
807f80
ENDCHAR
STARTCHAR 17-69
ENCODING 12645
SWIDTH 960 0
DWIDTH 18 0
BBX 18 18 0 -3
BITMAP
100000
107e00
1f4200
214200
214200
d24600
0a4000
044000
084080
104080
213f80
c08000
044000
144600
240100
440480
840400
03fc00
ENDCHAR
STARTCHAR 17-70
ENCODING 12646
SWIDTH 960 0
DWIDTH 18 0
BBX 18 18 0 -3
BITMAP
202000
202000
202000
27ff80
204800
fc8400
212300
23fe80
252200
212200
21fe00
3d2200
e12200
212200
21fe00
202080
202080
601f80
ENDCHAR
STARTCHAR 17-71
ENCODING 12647
SWIDTH 960 0
DWIDTH 18 0
BBX 18 18 0 -3
BITMAP
100f00
13f200
112200
109200
109400
fbff00
104000
104000
17ff80
104000
187e00
30c200
d0a200
112400
121800
142800
10c600
330180
ENDCHAR
STARTCHAR 17-72
ENCODING 12648
SWIDTH 960 0
DWIDTH 18 0
BBX 18 18 0 -3
BITMAP
208800
108800
088800
088800
810400
410400
220200
220200
040100
180080
13fc00
120400
220400
220400
220400
420400
43fc00
400000
ENDCHAR
STARTCHAR 17-73
ENCODING 12649
SWIDTH 960 0
DWIDTH 18 0
BBX 18 18 0 -3
BITMAP
402000
202000
102000
17ff80
840080
45fe80
202000
202000
0bfe00
0a2200
122200
13fe00
122200
222200
23fe00
408000
430c00
4c0300
ENDCHAR
STARTCHAR 17-74
ENCODING 12650
SWIDTH 960 0
DWIDTH 18 0
BBX 18 18 0 -3
BITMAP
008000
088400
088400
108800
211000
02e000
041800
180600
e08100
008000
088400
098400
114800
225000
022000
041000
180c00
e00380
ENDCHAR
STARTCHAR 17-75
ENCODING 12651
SWIDTH 960 0
DWIDTH 18 0
BBX 18 18 0 -3
BITMAP
080800
081000
081f80
082080
2a4100
2a8200
2c0400
488000
489f80
089080
089080
149080
149f80
129080
129080
209080
209f80
408000
ENDCHAR
STARTCHAR 17-76
ENCODING 12652
SWIDTH 960 0
DWIDTH 18 0
BBX 18 18 0 -3
BITMAP
100000
13ff80
104800
104800
544800
55ff00
594900
914900
914900
11ff00
101000
281000
29ff00
241000
241000
401000
47ff80
800000
ENDCHAR
STARTCHAR 17-77
ENCODING 12653
SWIDTH 960 0
DWIDTH 18 0
BBX 18 18 0 -3
BITMAP
042000
042000
ffff80
042000
042000
17e800
100880
f3cb00
124c00
124800
124800
324800
d3c880
100780
242200
221100
410880
810880
ENDCHAR
STARTCHAR 17-78
ENCODING 12654
SWIDTH 960 0
DWIDTH 18 0
BBX 18 18 0 -3
BITMAP
041000
841000
49ff00
281000
101000
33ff80
480000
89fe00
190200
190200
29fe00
284800
488880
898500
0e8600
08b200
11c100
360080
ENDCHAR
STARTCHAR 17-79
ENCODING 12655
SWIDTH 960 0
DWIDTH 18 0
BBX 18 18 0 -3
BITMAP
100000
10fe00
200200
24fe00
c40200
280200
13ff80
202400
445480
fc9500
153200
524a00
589a00
552a00
944900
919100
161080
106000
ENDCHAR
STARTCHAR 17-80
ENCODING 12656
SWIDTH 960 0
DWIDTH 18 0
BBX 18 18 0 -3
BITMAP
141000
7f1000
551e00
7f1200
552200
7f2400
007f00
ffa900
002900
7f2900
412900
413f00
7f2000
222000
122000
15a080
1e2080
e01f80
ENDCHAR
STARTCHAR 17-81
ENCODING 12657
SWIDTH 960 0
DWIDTH 18 0
BBX 18 18 0 -3
BITMAP
041000
041000
041000
ffff80
041000
141000
100000
1e7e00
224200
224200
424200
a44200
144200
084e00
084000
104080
204080
c03f80
ENDCHAR
STARTCHAR 17-82
ENCODING 12658
SWIDTH 960 0
DWIDTH 18 0
BBX 18 18 0 -3
BITMAP
041000
ffff80
041000
7fff00
408100
4ff900
408100
4ffd00
400100
4ff900
480900
4ff900
41c500
46a900
589d00
408100
7fff00
000000
ENDCHAR
STARTCHAR 17-83
ENCODING 12659
SWIDTH 960 0
DWIDTH 18 0
BBX 18 18 0 -3
BITMAP
001000
401000
23ff00
101000
17ff80
000000
01fe00
f10200
110200
11fe00
103080
105300
109c00
111200
161100
281000
440000
83ff80
ENDCHAR
STARTCHAR 17-84
ENCODING 12660
SWIDTH 960 0
DWIDTH 18 0
BBX 18 18 0 -3
BITMAP
102400
102400
282400
242400
424200
424200
fc8100
910080
100000
fe0000
107e00
944200
544200
584200
504200
164200
387e00
c00000
ENDCHAR
STARTCHAR 17-85
ENCODING 12661
SWIDTH 960 0
DWIDTH 18 0
BBX 18 18 0 -3
BITMAP
080000
0f3e00
112200
222600
d4a080
093f80
3ffc00
c80400
0ffc00
080400
0ffc00
080000
0ffc00
080000
2fff00
292100
449100
849700
ENDCHAR
STARTCHAR 17-86
ENCODING 12662
SWIDTH 960 0
DWIDTH 18 0
BBX 18 18 0 -3
BITMAP
210000
210000
21ff00
220000
240000
f9fc00
210400
210400
21fc00
200000
200000
2bfe00
325200
c25200
025200
025200
0fff80
000000
ENDCHAR
STARTCHAR 17-87
ENCODING 12663
SWIDTH 960 0
DWIDTH 18 0
BBX 18 18 0 -3
BITMAP
080800
080800
080800
081400
ff1400
102400
102200
1e4200
124100
129900
130480
120200
220000
223000
220800
420400
440200
8c0200
ENDCHAR
STARTCHAR 17-88
ENCODING 12664
SWIDTH 960 0
DWIDTH 18 0
BBX 18 18 0 -3
BITMAP
200000
11ff00
082000
082000
804000
43ff80
204000
208000
008000
08fe00
090200
110200
100200
200200
200400
400400
400400
401800
ENDCHAR
STARTCHAR 17-89
ENCODING 12665
SWIDTH 960 0
DWIDTH 18 0
BBX 18 18 0 -3
BITMAP
040000
047f80
244880
244880
3f7f80
244880
444880
447f80
040000
3f0800
040800
04ff80
040880
041080
071080
182080
604100
018700
ENDCHAR
STARTCHAR 17-90
ENCODING 12666
SWIDTH 960 0
DWIDTH 18 0
BBX 18 18 0 -3
BITMAP
000000
000000
7c1f00
441100
441100
441100
441100
441100
47f100
400100
400100
400100
400100
400100
7fff00
400000
000000
000000
ENDCHAR
STARTCHAR 17-91
ENCODING 12667
SWIDTH 960 0
DWIDTH 18 0
BBX 18 18 0 -3
BITMAP
008000
008000
008000
008000
1ffc00
108400
108400
108400
108400
108400
ffff80
014000
014000
022000
041000
080800
300600
c00180
ENDCHAR
STARTCHAR 17-92
ENCODING 12668
SWIDTH 960 0
DWIDTH 18 0
BBX 18 18 0 -3
BITMAP
010000
010000
020000
3ffe00
200200
249200
22a200
2ffa00
21c200
22a200
249200
288a00
210200
ffff80
014000
022000
0c1c00
f00380
ENDCHAR
STARTCHAR 17-93
ENCODING 12669
SWIDTH 960 0
DWIDTH 18 0
BBX 18 18 0 -3
BITMAP
084000
082000
101000
101000
200000
4bff00
882000
102000
102000
302000
53fe00
902000
102000
102000
102000
102000
17ff80
100000
ENDCHAR
STARTCHAR 17-94
ENCODING 12670
SWIDTH 960 0
DWIDTH 18 0
BBX 18 18 0 -3
BITMAP
004000
004000
004000
3fff80
200000
204000
202000
211000
211000
210000
290400
290200
290100
290080
490080
510200
410200
80fe00
ENDCHAR
STARTCHAR 18-01
ENCODING 12833
SWIDTH 960 0
DWIDTH 18 0
BBX 18 18 0 -3
BITMAP
080000
08ff80
088880
088880
088880
7eff80
088880
088880
088880
088880
0eff80
180800
680800
080800
080800
080800
080800
180800
ENDCHAR
STARTCHAR 18-02
ENCODING 12834
SWIDTH 960 0
DWIDTH 18 0
BBX 18 18 0 -3
BITMAP
000000
fbff00
882000
882000
882000
882000
882000
f82000
8bfe00
882000
882000
882000
882000
882000
f82000
002000
0fff80
000000
ENDCHAR
STARTCHAR 18-03
ENCODING 12835
SWIDTH 960 0
DWIDTH 18 0
BBX 18 18 0 -3
BITMAP
104400
104400
13ff00
104400
f84400
17ff80
301000
381000
55fe00
551200
511200
51fe00
911200
911200
11fe00
104000
118600
160180
ENDCHAR
STARTCHAR 18-04
ENCODING 12836
SWIDTH 960 0
DWIDTH 18 0
BBX 18 18 0 -3
BITMAP
002000
002000
ff2000
804000
827f80
828880
b48900
8d0a00
840800
8a0800
8a1400
921400
a01400
802400
ff2200
004200
008100
030080
ENDCHAR
STARTCHAR 18-05
ENCODING 12837
SWIDTH 960 0
DWIDTH 18 0
BBX 18 18 0 -3
BITMAP
000000
003c00
ff2400
802400
822400
a22480
944480
958380
880000
8dfe00
944200
924200
a22400
c02800
ff1800
002400
00c200
030180
ENDCHAR
STARTCHAR 18-06
ENCODING 12838
SWIDTH 960 0
DWIDTH 18 0
BBX 18 18 0 -3
BITMAP
000000
000000
7fff00
008000
008000
008000
008000
008000
008000
1ffc00
008000
008000
008000
008000
008000
008000
ffff80
000000
ENDCHAR
STARTCHAR 18-07
ENCODING 12839
SWIDTH 960 0
DWIDTH 18 0
BBX 18 18 0 -3
BITMAP
042000
041000
080800
110400
222200
c41180
08e800
3f0800
000000
000000
fe7f00
020100
623100
120900
060300
3a1d00
c26100
060300
ENDCHAR
STARTCHAR 18-08
ENCODING 12840
SWIDTH 960 0
DWIDTH 18 0
BBX 18 18 0 -3
BITMAP
101000
101000
102000
11ff00
f90100
095500
095900
117d00
153900
393500
555500
950100
101000
13ff80
102800
104400
118200
160180
ENDCHAR
STARTCHAR 18-09
ENCODING 12841
SWIDTH 960 0
DWIDTH 18 0
BBX 18 18 0 -3
BITMAP
110400
088800
088800
001000
ffff80
810080
8ffc80
080400
0ffc00
080400
0ffc00
080000
0ffc00
080000
2fff00
289100
444900
844a00
ENDCHAR
STARTCHAR 18-10
ENCODING 12842
SWIDTH 960 0
DWIDTH 18 0
BBX 18 18 0 -3
BITMAP
000800
000800
7f1000
407e00
424200
527e00
4a4200
4c4200
447e00
4c4000
4a7f80
524000
627f80
400080
7eaa80
00aa80
010080
000300
ENDCHAR
STARTCHAR 18-11
ENCODING 12843
SWIDTH 960 0
DWIDTH 18 0
BBX 18 18 0 -3
BITMAP
041000
041000
3ffe00
041000
041000
ffff80
008000
008000
1ffc00
108400
108400
1ffc00
108400
108400
1ffc00
020000
0c1c00
700300
ENDCHAR
STARTCHAR 18-12
ENCODING 12844
SWIDTH 960 0
DWIDTH 18 0
BBX 18 18 0 -3
BITMAP
000000
7fff00
400100
480900
441100
422100
4ffd00
408100
408100
488900
488900
488900
488900
488900
4ff900
400100
400100
400700
ENDCHAR
STARTCHAR 18-13
ENCODING 12845
SWIDTH 960 0
DWIDTH 18 0
BBX 18 18 0 -3
BITMAP
202000
102000
082000
082000
802000
43ff00
222100
222100
022100
0a2100
0a2100
13ff00
102000
202000
202000
402000
402000
402000
ENDCHAR
STARTCHAR 18-14
ENCODING 12846
SWIDTH 960 0
DWIDTH 18 0
BBX 18 18 0 -3
BITMAP
042000
042000
ffff80
042000
042000
001000
641000
149100
089100
189200
249200
cd1400
141000
242800
c42800
044400
088200
1b0180
ENDCHAR
STARTCHAR 18-15
ENCODING 12847
SWIDTH 960 0
DWIDTH 18 0
BBX 18 18 0 -3
BITMAP
081000
081000
0bff00
108400
104800
37ff80
300000
51fe00
910200
11fe00
110200
11fe00
101000
108900
128880
128280
148200
187e00
ENDCHAR
STARTCHAR 18-16
ENCODING 12848
SWIDTH 960 0
DWIDTH 18 0
BBX 18 18 0 -3
BITMAP
000000
1ffe00
100200
100200
1ffe00
100000
100000
17ff00
108000
110400
13fa00
102200
202000
27ff00
202000
402000
4fff80
800000
ENDCHAR
STARTCHAR 18-17
ENCODING 12849
SWIDTH 960 0
DWIDTH 18 0
BBX 18 18 0 -3
BITMAP
101000
101000
13ff00
108400
104800
5bff80
540000
55fe00
910200
91fe00
110200
11fe00
101000
108900
128880
128280
148200
187e00
ENDCHAR
STARTCHAR 18-18
ENCODING 12850
SWIDTH 960 0
DWIDTH 18 0
BBX 18 18 0 -3
BITMAP
001000
781000
4bff00
488400
484800
7fff80
480000
49fe00
490200
49fe00
790200
49fe00
481000
488900
4a8880
4a8280
8a8200
9c7e00
ENDCHAR
STARTCHAR 18-19
ENCODING 12851
SWIDTH 960 0
DWIDTH 18 0
BBX 18 18 0 -3
BITMAP
040000
047f80
040100
040200
7f1400
0c0800
0c7f80
164880
154880
157f80
144880
244880
244880
447f80
044880
044880
044880
044980
ENDCHAR
STARTCHAR 18-20
ENCODING 12852
SWIDTH 960 0
DWIDTH 18 0
BBX 18 18 0 -3
BITMAP
081000
081000
481000
481000
481000
7e1000
49ff00
881000
081000
081000
081000
0e1000
381000
c81000
081000
081000
0bff80
080000
ENDCHAR
STARTCHAR 18-21
ENCODING 12853
SWIDTH 960 0
DWIDTH 18 0
BBX 18 18 0 -3
BITMAP
000000
fffc00
001800
002000
004000
008000
010000
020000
040000
080000
100000
200000
200000
400000
400100
300100
0fff00
000000
ENDCHAR
STARTCHAR 18-22
ENCODING 12854
SWIDTH 960 0
DWIDTH 18 0
BBX 18 18 0 -3
BITMAP
082000
082000
082000
17ff80
104800
30a400
312200
57fd80
912400
112400
11fc00
112400
112400
11fc00
102000
102080
102080
101f80
ENDCHAR
STARTCHAR 18-23
ENCODING 12855
SWIDTH 960 0
DWIDTH 18 0
BBX 18 18 0 -3
BITMAP
080000
081f80
101080
1fd080
221080
021080
7ff080
021080
021080
121080
13d080
121080
121080
121080
13d380
1e1000
701000
001000
ENDCHAR
STARTCHAR 18-24
ENCODING 12856
SWIDTH 960 0
DWIDTH 18 0
BBX 18 18 0 -3
BITMAP
000000
1ffc00
108400
108400
17f400
108400
114400
122400
1c1400
100400
1ffc00
000000
048000
244200
242100
440480
840400
03fc00
ENDCHAR
STARTCHAR 18-25
ENCODING 12857
SWIDTH 960 0
DWIDTH 18 0
BBX 18 18 0 -3
BITMAP
200000
11fc00
090400
090400
81fc00
410400
210400
21fc00
000000
080000
0bfe00
125200
125200
225200
225200
425200
4fff80
400000
ENDCHAR
STARTCHAR 18-26
ENCODING 12858
SWIDTH 960 0
DWIDTH 18 0
BBX 18 18 0 -3
BITMAP
040000
180f00
f3f000
112200
109200
fc9400
11fe00
300200
31fe00
580200
540200
55fe00
500000
909200
928900
128080
148200
107e00
ENDCHAR
STARTCHAR 18-27
ENCODING 12859
SWIDTH 960 0
DWIDTH 18 0
BBX 18 18 0 -3
BITMAP
008000
008000
008000
7fff00
080800
040800
041000
ffff80
000000
000000
0ff800
080800
080800
0ff800
080800
080800
0ff800
000000
ENDCHAR
STARTCHAR 18-28
ENCODING 12860
SWIDTH 960 0
DWIDTH 18 0
BBX 18 18 0 -3
BITMAP
000000
000000
ffff80
008000
008000
008000
00c000
00b000
008800
008400
008400
008000
008000
008000
008000
008000
008000
008000
ENDCHAR
STARTCHAR 18-29
ENCODING 12861
SWIDTH 960 0
DWIDTH 18 0
BBX 18 18 0 -3
BITMAP
024000
024000
044000
044000
084000
084300
184400
284800
485000
886000
084000
084000
084000
084000
084000
084080
084080
083f80
ENDCHAR
STARTCHAR 18-30
ENCODING 12862
SWIDTH 960 0
DWIDTH 18 0
BBX 18 18 0 -3
BITMAP
080000
080000
09ff80
110000
110000
310000
31fe00
514200
914200
124200
124400
122400
122800
141000
142800
184400
118200
160180
ENDCHAR
STARTCHAR 18-31
ENCODING 12863
SWIDTH 960 0
DWIDTH 18 0
BBX 18 18 0 -3
BITMAP
080000
080000
0bff80
100200
100200
300200
33f200
521200
921200
121200
121200
13f200
120200
100200
100200
100200
100200
100600
ENDCHAR
STARTCHAR 18-32
ENCODING 12864
SWIDTH 960 0
DWIDTH 18 0
BBX 18 18 0 -3
BITMAP
090000
090000
090000
110000
17ef00
312900
312900
512900
912900
112900
112900
112900
122900
122900
122900
144f00
144800
18c000
ENDCHAR
STARTCHAR 18-33
ENCODING 12865
SWIDTH 960 0
DWIDTH 18 0
BBX 18 18 0 -3
BITMAP
080000
080000
0fff80
104800
104800
304800
33ff00
524900
924900
124900
124900
124900
124900
124900
124900
124900
13ff00
100000
ENDCHAR
STARTCHAR 18-34
ENCODING 12866
SWIDTH 960 0
DWIDTH 18 0
BBX 18 18 0 -3
BITMAP
081000
081000
081000
101000
13ff00
301000
301000
501000
97ff80
100000
101000
101000
101000
13ff00
101000
101000
101000
17ff80
ENDCHAR
STARTCHAR 18-35
ENCODING 12867
SWIDTH 960 0
DWIDTH 18 0
BBX 18 18 0 -3
BITMAP
080000
080000
080000
080000
7f9f80
089080
089080
089080
089080
089080
089080
089080
109080
109080
109080
211f80
211000
460000
ENDCHAR
STARTCHAR 18-36
ENCODING 12868
SWIDTH 960 0
DWIDTH 18 0
BBX 18 18 0 -3
BITMAP
000000
ffff80
000400
000400
000400
1f8400
108400
108400
108400
108400
108400
1f8400
100400
000400
000400
000400
000400
001c00
ENDCHAR
STARTCHAR 18-37
ENCODING 12869
SWIDTH 960 0
DWIDTH 18 0
BBX 18 18 0 -3
BITMAP
008000
008000
ffff80
008000
3ffe00
000000
1ffc00
100400
1ffc00
041000
022000
ffff80
080000
080000
7f3e00
112200
212200
c33e00
ENDCHAR
STARTCHAR 18-38
ENCODING 12870
SWIDTH 960 0
DWIDTH 18 0
BBX 18 18 0 -3
BITMAP
000000
ffff80
008000
010000
1ffc00
100400
1ffc00
100400
1ffc00
100400
1ffc00
020000
07fc00
1c0800
e33000
00c000
073800
780780
ENDCHAR
STARTCHAR 18-39
ENCODING 12871
SWIDTH 960 0
DWIDTH 18 0
BBX 18 18 0 -3
BITMAP
100800
100800
13ff80
120080
220080
fdff00
241400
242480
485480
499500
482a00
e8ca00
931a00
182900
28c900
230880
400800
803000
ENDCHAR
STARTCHAR 18-40
ENCODING 12872
SWIDTH 960 0
DWIDTH 18 0
BBX 18 18 0 -3
BITMAP
008000
008000
008000
ffff80
800080
9ffc80
012000
022100
0d2100
309200
039400
0c4800
70c800
034400
0c4200
f04100
004000
018000
ENDCHAR
STARTCHAR 18-41
ENCODING 12873
SWIDTH 960 0
DWIDTH 18 0
BBX 18 18 0 -3
BITMAP
008000
ffff80
800080
bffe80
010000
1ff800
100800
1ff800
100800
1ff800
100800
ffff80
081000
100800
2ff600
c11180
061000
383000
ENDCHAR
STARTCHAR 18-42
ENCODING 12874
SWIDTH 960 0
DWIDTH 18 0
BBX 18 18 0 -3
BITMAP
060400
180400
684400
082400
081400
ff1400
080400
188400
184400
2c2400
2a2400
290400
480780
483c00
89c400
080400
080400
080400
ENDCHAR
STARTCHAR 18-43
ENCODING 12875
SWIDTH 960 0
DWIDTH 18 0
BBX 18 18 0 -3
BITMAP
000000
07df00
f44100
944100
944100
97df00
940000
f40000
940000
97bf00
941100
941100
940a00
940a00
f78400
040a00
043100
04c080
ENDCHAR
STARTCHAR 18-44
ENCODING 12876
SWIDTH 960 0
DWIDTH 18 0
BBX 18 18 0 -3
BITMAP
000000
1ffc00
108400
108400
1ffc00
108400
108400
108400
1ffc00
008000
008000
ffff80
01a000
029000
0c8800
308600
c08180
008000
ENDCHAR
STARTCHAR 18-45
ENCODING 12877
SWIDTH 960 0
DWIDTH 18 0
BBX 18 18 0 -3
BITMAP
080000
080000
080000
ff3f00
092100
112100
112100
222100
423f00
8c0000
008000
008000
ffff80
01a000
069000
188c00
e08380
008000
ENDCHAR
STARTCHAR 18-46
ENCODING 12878
SWIDTH 960 0
DWIDTH 18 0
BBX 18 18 0 -3
BITMAP
002000
ff2000
042000
f44000
947f80
f49080
049100
0d1200
001000
ff1000
041000
f42800
942800
944400
f44400
048200
050100
0e0080
ENDCHAR
STARTCHAR 18-47
ENCODING 12879
SWIDTH 960 0
DWIDTH 18 0
BBX 18 18 0 -3
BITMAP
400000
200000
17ff80
100400
000400
800400
43e400
222400
222400
022400
0a2400
0be400
120400
100400
200400
200400
400400
401c00
ENDCHAR
STARTCHAR 18-48
ENCODING 12880
SWIDTH 960 0
DWIDTH 18 0
BBX 18 18 0 -3
BITMAP
008000
008000
008000
008000
008000
088200
088200
088400
108400
114800
214000
022000
022000
041000
080800
100400
200200
c00180
ENDCHAR
STARTCHAR 18-49
ENCODING 12881
SWIDTH 960 0
DWIDTH 18 0
BBX 18 18 0 -3
BITMAP
000000
000000
fdff80
100200
100200
10f200
109200
fc9200
109200
109200
109200
10f200
108200
1c0200
e00200
000200
000200
000e00
ENDCHAR
STARTCHAR 18-50
ENCODING 12882
SWIDTH 960 0
DWIDTH 18 0
BBX 18 18 0 -3
BITMAP
100000
107e00
104200
104200
7c5e00
045200
045200
085200
09ff80
110080
390080
553c80
152480
112480
113c80
110080
110080
110380
ENDCHAR
STARTCHAR 18-51
ENCODING 12883
SWIDTH 960 0
DWIDTH 18 0
BBX 18 18 0 -3
BITMAP
000c00
007000
1f8000
008000
008000
008000
008000
ffff80
01c000
02a000
02a000
049000
088800
108400
208200
c08180
008000
008000
ENDCHAR
STARTCHAR 18-52
ENCODING 12884
SWIDTH 960 0
DWIDTH 18 0
BBX 18 18 0 -3
BITMAP
041000
181000
f01000
13ff80
120080
fefe80
101400
302480
38d480
5b1500
543a00
54ca00
531a00
902900
90c900
130880
100800
103000
ENDCHAR
STARTCHAR 18-53
ENCODING 12885
SWIDTH 960 0
DWIDTH 18 0
BBX 18 18 0 -3
BITMAP
101000
101000
3f3f80
484800
848400
3ffe00
200200
208200
2ffa00
208200
208200
27f200
241200
241200
27f200
200200
3ffe00
000000
ENDCHAR
STARTCHAR 18-54
ENCODING 12886
SWIDTH 960 0
DWIDTH 18 0
BBX 18 18 0 -3
BITMAP
041000
041000
041000
ffff80
041000
041000
000000
044000
044100
084200
084c00
187000
284000
c84000
084000
084080
084080
083f80
ENDCHAR
STARTCHAR 18-55
ENCODING 12887
SWIDTH 960 0
DWIDTH 18 0
BBX 18 18 0 -3
BITMAP
041000
041000
ffff80
041000
041000
000000
ffff80
000400
000400
0fc400
084400
084400
084400
0fc400
000400
000400
000400
001c00
ENDCHAR
STARTCHAR 18-56
ENCODING 12888
SWIDTH 960 0
DWIDTH 18 0
BBX 18 18 0 -3
BITMAP
041000
041000
041000
ffff80
041000
041000
080000
083e00
7f2200
092200
092200
092200
112200
112200
112200
222200
223e00
460000
ENDCHAR
STARTCHAR 18-57
ENCODING 12889
SWIDTH 960 0
DWIDTH 18 0
BBX 18 18 0 -3
BITMAP
041000
041000
ffff80
041000
041000
000000
0bff80
080400
100400
13e400
322400
522400
922400
13e400
100400
100400
100400
100c00
ENDCHAR
STARTCHAR 18-58
ENCODING 12890
SWIDTH 960 0
DWIDTH 18 0
BBX 18 18 0 -3
BITMAP
041000
041000
ffff80
041000
000000
7fff00
088400
088400
ffff80
088400
088400
7fff00
008000
008000
7fff00
008000
008000
008000
ENDCHAR
STARTCHAR 18-59
ENCODING 12891
SWIDTH 960 0
DWIDTH 18 0
BBX 18 18 0 -3
BITMAP
041000
041000
ffff80
041000
041000
1ffc00
108400
1ffc00
108400
108400
1ffc00
008000
ffff80
01c000
06b000
188c00
e08380
008000
ENDCHAR
STARTCHAR 18-60
ENCODING 12892
SWIDTH 960 0
DWIDTH 18 0
BBX 18 18 0 -3
BITMAP
200000
23ef00
222100
222100
fa2100
abef00
aa0000
aa0000
aa1f00
fbc900
220900
220900
2a0a00
2be600
3a0400
ca0a00
021100
026080
ENDCHAR
STARTCHAR 18-61
ENCODING 12893
SWIDTH 960 0
DWIDTH 18 0
BBX 18 18 0 -3
BITMAP
000000
78ff00
009100
009100
fc9100
00ff00
009100
f89100
00ff00
f81000
001000
03ff80
f83800
885400
889200
891100
fa1080
001000
ENDCHAR
STARTCHAR 18-62
ENCODING 12894
SWIDTH 960 0
DWIDTH 18 0
BBX 18 18 0 -3
BITMAP
008800
008800
f7ff80
908800
900000
97ff00
912400
912400
9fff80
912400
912400
97ff00
f02000
802000
0fff80
002000
002000
002000
ENDCHAR
STARTCHAR 18-63
ENCODING 12895
SWIDTH 960 0
DWIDTH 18 0
BBX 18 18 0 -3
BITMAP
048000
088700
30f800
d08080
107f80
000000
1ffc00
100400
1ffc00
100400
100400
1ffc00
100400
100400
1ffc00
040000
181c00
e00300
ENDCHAR
STARTCHAR 18-64
ENCODING 12896
SWIDTH 960 0
DWIDTH 18 0
BBX 18 18 0 -3
BITMAP
010000
410000
210000
110f00
17e900
012900
012900
f12900
112900
112900
122900
122900
122900
144f00
14c000
280000
440000
83ff80
ENDCHAR
STARTCHAR 18-65
ENCODING 12897
SWIDTH 960 0
DWIDTH 18 0
BBX 18 18 0 -3
BITMAP
000000
40fc00
208400
108400
10bc00
00a400
00a400
f3ff00
120100
127900
124900
124900
124900
127900
120100
2a0300
440000
83ff80
ENDCHAR
STARTCHAR 18-66
ENCODING 12898
SWIDTH 960 0
DWIDTH 18 0
BBX 18 18 0 -3
BITMAP
1ffe00
008000
ffff80
808080
9ebc80
008000
1ebc00
000000
7e7f00
420100
427f00
7e0000
407f00
7e2100
401200
7e0c00
403200
41c180
ENDCHAR
STARTCHAR 18-67
ENCODING 12899
SWIDTH 960 0
DWIDTH 18 0
BBX 18 18 0 -3
BITMAP
101000
101000
101000
101000
13ff80
fc8200
948200
948200
944400
944400
fc2800
102800
101000
142800
1a2800
e24400
008200
030180
ENDCHAR
STARTCHAR 18-68
ENCODING 12900
SWIDTH 960 0
DWIDTH 18 0
BBX 18 18 0 -3
BITMAP
085000
099200
0f1100
111100
111000
2fff80
211000
611100
a10900
210900
216900
238a00
2d0600
210400
210680
210a80
211180
236080
ENDCHAR
STARTCHAR 18-69
ENCODING 12901
SWIDTH 960 0
DWIDTH 18 0
BBX 18 18 0 -3
BITMAP
202800
20ca00
238900
208900
a88800
afff80
a88800
a88800
a88880
a88480
a8b500
a9c500
ae8600
f88400
808a80
009280
00a180
018080
ENDCHAR
STARTCHAR 18-70
ENCODING 12902
SWIDTH 960 0
DWIDTH 18 0
BBX 18 18 0 -3
BITMAP
032000
0c2400
782200
082100
082000
ffff80
082000
082200
082200
0b1200
1c1400
e81400
080800
080800
081400
086480
098280
180180
ENDCHAR
STARTCHAR 18-71
ENCODING 12903
SWIDTH 960 0
DWIDTH 18 0
BBX 18 18 0 -3
BITMAP
000000
1ffe00
041000
041000
041000
041000
041000
041000
ffff80
003000
005000
009000
011000
061000
181000
601000
001000
007000
ENDCHAR
STARTCHAR 18-72
ENCODING 12904
SWIDTH 960 0
DWIDTH 18 0
BBX 18 18 0 -3
BITMAP
000000
ffff80
008000
008000
008000
4ff900
488900
488900
488900
4ff900
488900
488900
488900
4ff900
480100
400100
7fff00
000000
ENDCHAR
STARTCHAR 18-73
ENCODING 12905
SWIDTH 960 0
DWIDTH 18 0
BBX 18 18 0 -3
BITMAP
000800
7f8800
480800
480800
480800
480800
7f0800
411400
411400
411400
7f1400
482400
482200
482200
484200
7fc100
408100
010080
ENDCHAR
STARTCHAR 18-74
ENCODING 12906
SWIDTH 960 0
DWIDTH 18 0
BBX 18 18 0 -3
BITMAP
041000
041000
ffff80
041000
041000
000000
3ffe00
081000
081000
081000
ffff80
005000
009000
011000
061000
181000
e01000
007000
ENDCHAR
STARTCHAR 18-75
ENCODING 12907
SWIDTH 960 0
DWIDTH 18 0
BBX 18 18 0 -3
BITMAP
202800
20ca00
234900
204900
f84800
abff80
a84800
a84900
a84900
a84900
f86a00
20ca00
2b4600
284400
344a80
c44a80
005180
00c080
ENDCHAR
STARTCHAR 18-76
ENCODING 12908
SWIDTH 960 0
DWIDTH 18 0
BBX 18 18 0 -3
BITMAP
080000
080000
7f9f80
089080
109080
119f80
600000
0ffe00
080200
0ffe00
080200
0ffe00
080200
080200
0ffe00
020000
0c0e00
700180
ENDCHAR
STARTCHAR 18-77
ENCODING 12909
SWIDTH 960 0
DWIDTH 18 0
BBX 18 18 0 -3
BITMAP
004000
fe4400
284400
284800
28ff80
288800
288800
ff8800
09ff00
0a8800
188800
188800
28ff00
288800
488800
888800
08ff80
180000
ENDCHAR
STARTCHAR 18-78
ENCODING 12910
SWIDTH 960 0
DWIDTH 18 0
BBX 18 18 0 -3
BITMAP
100a00
106900
2b8880
288880
448800
d7ff80
788800
488880
788880
488880
488900
78e500
438600
488400
488a80
549280
64a180
c18080
ENDCHAR
STARTCHAR 18-79
ENCODING 12911
SWIDTH 960 0
DWIDTH 18 0
BBX 18 18 0 -3
BITMAP
040000
040000
7f9f80
049080
089080
139f80
200000
07fe00
044000
07fe00
044000
07fe00
044000
07ff80
124880
112480
212080
400300
ENDCHAR
STARTCHAR 18-80
ENCODING 12912
SWIDTH 960 0
DWIDTH 18 0
BBX 18 18 0 -3
BITMAP
008000
008000
014000
022000
041000
080800
300600
c41180
041000
041000
041000
041000
041000
041000
081000
081000
101000
201000
ENDCHAR
STARTCHAR 18-81
ENCODING 12913
SWIDTH 960 0
DWIDTH 18 0
BBX 18 18 0 -3
BITMAP
008000
014000
022000
041000
080800
300600
cff980
000000
000000
000000
7fff00
010000
020000
021000
040800
08f400
3f0200
000200
ENDCHAR
STARTCHAR 18-82
ENCODING 12914
SWIDTH 960 0
DWIDTH 18 0
BBX 18 18 0 -3
BITMAP
100000
107f00
3e0900
221100
441100
bf2100
294300
290800
3f4800
294800
297f00
298800
3f0800
21ff80
210800
410800
410800
830800
ENDCHAR
STARTCHAR 18-83
ENCODING 12915
SWIDTH 960 0
DWIDTH 18 0
BBX 18 18 0 -3
BITMAP
000000
7fff00
400100
400100
400100
47f100
441100
441100
441100
441100
441100
441100
47f100
400100
400100
400100
7fff00
000000
ENDCHAR
STARTCHAR 18-84
ENCODING 12916
SWIDTH 960 0
DWIDTH 18 0
BBX 18 18 0 -3
BITMAP
102000
102000
104000
13fe00
122200
fe2200
13fe00
122200
122200
13fe00
109200
109200
1c9480
311480
c11780
021000
041080
180f80
ENDCHAR
STARTCHAR 18-85
ENCODING 12917
SWIDTH 960 0
DWIDTH 18 0
BBX 18 18 0 -3
BITMAP
101000
101000
13ff80
101000
101000
fdff00
112500
112500
11ff00
101000
13ff80
102000
1c5000
e19180
0e8a00
008400
00f200
070180
ENDCHAR
STARTCHAR 18-86
ENCODING 12918
SWIDTH 960 0
DWIDTH 18 0
BBX 18 18 0 -3
BITMAP
000000
f9ff00
090100
110100
110100
213d00
392500
492500
092500
092500
493d00
490100
a90100
910100
11ff00
2c0000
438000
807f80
ENDCHAR
STARTCHAR 18-87
ENCODING 12919
SWIDTH 960 0
DWIDTH 18 0
BBX 18 18 0 -3
BITMAP
102000
102000
102000
102000
53fc00
582400
542400
542400
902400
97ff80
105000
105000
108800
108800
110400
120200
140100
180080
ENDCHAR
STARTCHAR 18-88
ENCODING 12920
SWIDTH 960 0
DWIDTH 18 0
BBX 18 18 0 -3
BITMAP
100000
100000
13fe00
108200
588400
544800
543000
504800
918600
962180
102000
102000
13fe00
102000
102000
102000
1fff80
100000
ENDCHAR
STARTCHAR 18-89
ENCODING 12921
SWIDTH 960 0
DWIDTH 18 0
BBX 18 18 0 -3
BITMAP
108000
108000
108000
18ff80
550000
550000
52fe00
549200
909200
909200
17ff80
112200
112200
112200
11ff00
100400
100400
100c00
ENDCHAR
STARTCHAR 18-90
ENCODING 12922
SWIDTH 960 0
DWIDTH 18 0
BBX 18 18 0 -3
BITMAP
200000
23ff80
220000
221000
b21000
aa5100
aa5100
aa5200
a29200
a29400
221000
222800
242800
244400
244400
288200
210100
260080
ENDCHAR
STARTCHAR 18-91
ENCODING 12923
SWIDTH 960 0
DWIDTH 18 0
BBX 18 18 0 -3
BITMAP
101000
101000
17ff80
101000
51ff00
592900
552900
55ff00
901000
901000
17ff80
102000
10d300
139400
1c8800
108400
10f200
170180
ENDCHAR
STARTCHAR 18-92
ENCODING 12924
SWIDTH 960 0
DWIDTH 18 0
BBX 18 18 0 -3
BITMAP
002400
002200
002200
002000
ffff80
002000
122100
122100
121200
ffd200
121400
121400
120800
220800
221400
402480
80c280
030180
ENDCHAR
STARTCHAR 18-93
ENCODING 12925
SWIDTH 960 0
DWIDTH 18 0
BBX 18 18 0 -3
BITMAP
080000
087f00
084100
084100
084100
7f4100
087f00
080000
080000
0b0000
1cff80
681080
081080
082080
082080
084100
088100
1b0600
ENDCHAR
STARTCHAR 18-94
ENCODING 12926
SWIDTH 960 0
DWIDTH 18 0
BBX 18 18 0 -3
BITMAP
004000
004000
fc4000
044000
04ff80
048200
054200
fe4200
804400
802400
802400
802800
801800
841000
7c2800
004400
018200
060180
ENDCHAR
STARTCHAR 19-01
ENCODING 13089
SWIDTH 960 0
DWIDTH 18 0
BBX 18 18 0 -3
BITMAP
100400
104400
202400
fe2400
920400
924400
fe2400
922400
920400
fe0780
101c00
52e400
520400
548400
578400
500080
900080
8fff80
ENDCHAR
STARTCHAR 19-02
ENCODING 13090
SWIDTH 960 0
DWIDTH 18 0
BBX 18 18 0 -3
BITMAP
008000
008000
f88000
88ff80
890000
890000
8afe00
f89200
889200
889200
8fff80
892400
892400
f92400
81ff00
010400
000400
001800
ENDCHAR
STARTCHAR 19-03
ENCODING 13091
SWIDTH 960 0
DWIDTH 18 0
BBX 18 18 0 -3
BITMAP
100a00
100900
100900
100800
13ff80
fc0800
30a800
30a900
58a900
54a500
55f500
50a500
90a600
912400
112600
120a80
103180
10c080
ENDCHAR
STARTCHAR 19-04
ENCODING 13092
SWIDTH 960 0
DWIDTH 18 0
BBX 18 18 0 -3
BITMAP
210000
110000
090000
0bff80
820000
45fe00
211200
211200
011200
07ff80
122200
122200
122200
222200
23ff00
420400
400400
401800
ENDCHAR
STARTCHAR 19-05
ENCODING 13093
SWIDTH 960 0
DWIDTH 18 0
BBX 18 18 0 -3
BITMAP
000000
1fff80
100000
102000
102000
112100
112100
112200
122200
222400
245000
205000
208800
208800
410400
420200
8c0100
300080
ENDCHAR
STARTCHAR 19-06
ENCODING 13094
SWIDTH 960 0
DWIDTH 18 0
BBX 18 18 0 -3
BITMAP
000000
1ffc00
108400
108400
1ffc00
108400
108400
1ffc00
014000
022000
0c1800
321600
c21180
021000
041000
041000
081000
301000
ENDCHAR
STARTCHAR 19-07
ENCODING 13095
SWIDTH 960 0
DWIDTH 18 0
BBX 18 18 0 -3
BITMAP
102000
102000
102300
1f2c00
103000
102080
162080
389f80
c08000
010000
0ffc00
080400
080400
0ffc00
080400
080400
0ffc00
000000
ENDCHAR
STARTCHAR 19-08
ENCODING 13096
SWIDTH 960 0
DWIDTH 18 0
BBX 18 18 0 -3
BITMAP
101000
101000
202800
242800
c44400
284200
108100
250080
447e00
fa0000
120000
50ff00
541000
522000
922400
904200
109d00
11e100
ENDCHAR
STARTCHAR 19-09
ENCODING 13097
SWIDTH 960 0
DWIDTH 18 0
BBX 18 18 0 -3
BITMAP
041000
041000
ffff80
041000
049000
014000
022000
041000
080800
321600
c21180
021000
021000
021000
041000
041000
081000
301000
ENDCHAR
STARTCHAR 19-10
ENCODING 13098
SWIDTH 960 0
DWIDTH 18 0
BBX 18 18 0 -3
BITMAP
000000
1e7f00
240900
7f1100
a96300
3f2800
293f00
3f4800
41ff80
410800
830800
008000
3ffe00
208200
3ffe00
008400
00fa00
7f0100
ENDCHAR
STARTCHAR 19-11
ENCODING 13099
SWIDTH 960 0
DWIDTH 18 0
BBX 18 18 0 -3
BITMAP
000000
7e3f00
422100
7e3f00
422100
422100
7e3f00
400100
400100
4ff900
422100
422100
5ffd00
422100
422100
442100
442100
482700
ENDCHAR
STARTCHAR 19-12
ENCODING 13100
SWIDTH 960 0
DWIDTH 18 0
BBX 18 18 0 -3
BITMAP
010800
f90800
890880
89eb00
910c00
910800
a16880
918780
962000
882000
89fe00
890200
890200
89fe00
b10200
810200
81fe00
800000
ENDCHAR
STARTCHAR 19-13
ENCODING 13101
SWIDTH 960 0
DWIDTH 18 0
BBX 18 18 0 -3
BITMAP
000000
1ffc00
100400
100400
100400
1ffc00
100400
100400
100400
1ffc00
100400
100400
100400
100400
1ffc00
040000
181c00
e00300
ENDCHAR
STARTCHAR 19-14
ENCODING 13102
SWIDTH 960 0
DWIDTH 18 0
BBX 18 18 0 -3
BITMAP
040000
449e00
449200
449200
7f9200
001200
ffd200
001200
7f9200
409200
409200
7f9200
011200
221200
142200
03a280
1c4280
e08180
ENDCHAR
STARTCHAR 19-15
ENCODING 13103
SWIDTH 960 0
DWIDTH 18 0
BBX 18 18 0 -3
BITMAP
040800
040800
040800
7fc800
040800
097f80
310880
120880
0a0880
048880
088880
111080
621080
041080
0a2080
112100
214100
408300
ENDCHAR
STARTCHAR 19-16
ENCODING 13104
SWIDTH 960 0
DWIDTH 18 0
BBX 18 18 0 -3
BITMAP
040800
040800
040800
0f8800
088800
108800
108800
288800
450c00
030a00
010900
020880
020800
040800
080800
100800
200800
400800
ENDCHAR
STARTCHAR 19-17
ENCODING 13105
SWIDTH 960 0
DWIDTH 18 0
BBX 18 18 0 -3
BITMAP
001000
001000
f81000
8bff80
881000
882000
882400
894400
888800
884800
885200
882200
f84400
808800
031400
002200
00c100
070080
ENDCHAR
STARTCHAR 19-18
ENCODING 13106
SWIDTH 960 0
DWIDTH 18 0
BBX 18 18 0 -3
BITMAP
008000
008000
ffff80
800080
808080
9ffc80
008000
0ffc00
008000
008000
7fff00
000000
000000
1ffc00
100400
100400
1ffc00
000000
ENDCHAR
STARTCHAR 19-19
ENCODING 13107
SWIDTH 960 0
DWIDTH 18 0
BBX 18 18 0 -3
BITMAP
004000
104100
104100
1fff00
000000
3fff80
200000
204000
27fe00
204000
2fff00
200000
204000
2ffe00
404000
404000
9fff80
000000
ENDCHAR
STARTCHAR 19-20
ENCODING 13108
SWIDTH 960 0
DWIDTH 18 0
BBX 18 18 0 -3
BITMAP
200000
27bf00
249200
249200
a49200
b79200
ac9200
a49200
a7ff80
240400
240400
250600
248a00
254a00
265200
281280
202280
204180
ENDCHAR
STARTCHAR 19-21
ENCODING 13109
SWIDTH 960 0
DWIDTH 18 0
BBX 18 18 0 -3
BITMAP
100000
13df00
124a00
124a00
fe4a00
13ca00
324a00
3a4a00
57ff80
560400
520400
928600
924a00
12aa00
133200
161280
102280
10c180
ENDCHAR
STARTCHAR 19-22
ENCODING 13110
SWIDTH 960 0
DWIDTH 18 0
BBX 18 18 0 -3
BITMAP
200000
13ff80
0a0000
0a0800
820800
427f00
220800
220800
020800
02ff80
120000
120800
120800
247f00
240800
440800
440800
49ff80
ENDCHAR
STARTCHAR 19-23
ENCODING 13111
SWIDTH 960 0
DWIDTH 18 0
BBX 18 18 0 -3
BITMAP
000000
00fe00
fe8200
10fe00
108200
108200
20fe00
3c0000
240000
65ff80
640400
a40400
25ff80
240400
3cc400
002400
000400
000c00
ENDCHAR
STARTCHAR 19-24
ENCODING 13112
SWIDTH 960 0
DWIDTH 18 0
BBX 18 18 0 -3
BITMAP
041000
041000
ffff80
041000
008000
3ffe00
008000
ffff80
020000
040400
08fa00
7f0200
000000
1ffc00
122400
122400
ffff80
000000
ENDCHAR
STARTCHAR 19-25
ENCODING 13113
SWIDTH 960 0
DWIDTH 18 0
BBX 18 18 0 -3
BITMAP
108000
108f80
27e000
208000
408000
908f80
17f200
200200
208200
608200
a7f200
208200
208200
208200
20fa00
2f8200
200200
200600
ENDCHAR
STARTCHAR 19-26
ENCODING 13114
SWIDTH 960 0
DWIDTH 18 0
BBX 18 18 0 -3
BITMAP
000800
780800
000800
03ff80
fc1000
001000
002200
794200
008400
784900
001100
002200
f84400
888800
8b1400
882200
f8c100
030080
ENDCHAR
STARTCHAR 19-27
ENCODING 13115
SWIDTH 960 0
DWIDTH 18 0
BBX 18 18 0 -3
BITMAP
101000
109100
289100
24ff00
440000
400000
fdff80
900000
10ff00
fc8100
108100
14ff00
940000
584200
522400
1c0800
33ff80
c00000
ENDCHAR
STARTCHAR 19-28
ENCODING 13116
SWIDTH 960 0
DWIDTH 18 0
BBX 18 18 0 -3
BITMAP
000800
3e0800
220800
2eff80
2a0800
2a0800
ff1000
815200
3e2200
222400
221400
3e0900
221100
222200
3ec600
220900
223080
26c080
ENDCHAR
STARTCHAR 19-29
ENCODING 13117
SWIDTH 960 0
DWIDTH 18 0
BBX 18 18 0 -3
BITMAP
200000
13fe00
0a2200
0a2200
83fe00
422200
222200
222200
03fe00
082000
082000
102000
17ff00
202000
202000
402000
4fff80
400000
ENDCHAR
STARTCHAR 19-30
ENCODING 13118
SWIDTH 960 0
DWIDTH 18 0
BBX 18 18 0 -3
BITMAP
081e00
ff9200
082280
7f4180
003e00
3f1200
290c00
7f1600
406180
9ffc00
008000
ffff80
048800
1ffe00
e80580
0ffc00
080400
0ffc00
ENDCHAR
STARTCHAR 19-31
ENCODING 13119
SWIDTH 960 0
DWIDTH 18 0
BBX 18 18 0 -3
BITMAP
101000
101000
101000
11ff00
fc1000
941000
941000
97ff80
940000
941000
fc1000
101000
15ff00
141000
1a1000
301000
c7ff80
000000
ENDCHAR
STARTCHAR 19-32
ENCODING 13120
SWIDTH 960 0
DWIDTH 18 0
BBX 18 18 0 -3
BITMAP
200000
23ff00
200000
200000
21fe00
fd0200
210200
210200
21fe00
210200
210200
2d0200
310200
c1fe00
000000
000000
0fff80
000000
ENDCHAR
STARTCHAR 19-33
ENCODING 13121
SWIDTH 960 0
DWIDTH 18 0
BBX 18 18 0 -3
BITMAP
081000
081000
081000
09ff80
081000
fe1000
081000
18ff00
1c9100
2a9100
2a9100
489100
489100
889100
089300
081000
081000
081000
ENDCHAR
STARTCHAR 19-34
ENCODING 13122
SWIDTH 960 0
DWIDTH 18 0
BBX 18 18 0 -3
BITMAP
000000
107f80
104000
104000
fe4000
927f80
924800
924800
924f00
fe4900
904900
144900
128900
1e9100
e29100
012100
022200
004600
ENDCHAR
STARTCHAR 19-35
ENCODING 13123
SWIDTH 960 0
DWIDTH 18 0
BBX 18 18 0 -3
BITMAP
082000
082000
142000
122000
227f80
204080
7e9080
491080
081080
7f2080
082480
4a4280
2a5e80
2ce280
280080
0b0100
1c0100
600600
ENDCHAR
STARTCHAR 19-36
ENCODING 13124
SWIDTH 960 0
DWIDTH 18 0
BBX 18 18 0 -3
BITMAP
040080
3fc080
044480
7ff480
044480
3fc480
040480
3fc480
040480
7fe480
000480
3fc480
244480
3fc480
244080
3fc080
000080
7fe180
ENDCHAR
STARTCHAR 19-37
ENCODING 13125
SWIDTH 960 0
DWIDTH 18 0
BBX 18 18 0 -3
BITMAP
020400
020400
e20400
afdf80
a20400
a20400
a20400
afff80
a50a00
a50a00
ad9b00
ad5a80
ed5a80
952a80
254a00
091200
091200
132600
ENDCHAR
STARTCHAR 19-38
ENCODING 13126
SWIDTH 960 0
DWIDTH 18 0
BBX 18 18 0 -3
BITMAP
040000
040000
0ff800
080800
181000
242000
c24000
018000
014000
063000
180c00
effb80
080800
080800
080800
080800
0ff800
000000
ENDCHAR
STARTCHAR 19-39
ENCODING 13127
SWIDTH 960 0
DWIDTH 18 0
BBX 18 18 0 -3
BITMAP
004000
004000
3fff80
210000
2fef80
200900
27c900
244a00
244a00
27cc00
200a00
2fc900
208900
210880
5fe880
410b00
810800
070800
ENDCHAR
STARTCHAR 19-40
ENCODING 13128
SWIDTH 960 0
DWIDTH 18 0
BBX 18 18 0 -3
BITMAP
201000
201000
201000
201000
23ff80
fa0000
220000
221000
221000
221000
3a2000
e22400
222200
244100
244100
248e80
25f080
680080
ENDCHAR
STARTCHAR 19-41
ENCODING 13129
SWIDTH 960 0
DWIDTH 18 0
BBX 18 18 0 -3
BITMAP
212100
209200
209200
200400
ffff80
240080
25fc80
210400
21fc00
290400
31fc00
e10400
210400
21fc00
209000
209080
211080
660f80
ENDCHAR
STARTCHAR 19-42
ENCODING 13130
SWIDTH 960 0
DWIDTH 18 0
BBX 18 18 0 -3
BITMAP
104000
104000
107c00
108400
fc8400
114800
322800
381000
542800
544400
508200
530180
90fe00
908200
108200
108200
10fe00
100000
ENDCHAR
STARTCHAR 19-43
ENCODING 13131
SWIDTH 960 0
DWIDTH 18 0
BBX 18 18 0 -3
BITMAP
101000
101000
101000
13ff80
101000
fc2000
102400
38c400
384800
542900
541100
502200
504400
908800
931400
102200
10c100
130080
ENDCHAR
STARTCHAR 19-44
ENCODING 13132
SWIDTH 960 0
DWIDTH 18 0
BBX 18 18 0 -3
BITMAP
100000
103c00
ff2400
102400
102400
7e4480
004480
fe8380
820000
82fe00
3c2200
242200
241400
241400
250800
451400
432200
80c180
ENDCHAR
STARTCHAR 19-45
ENCODING 13133
SWIDTH 960 0
DWIDTH 18 0
BBX 18 18 0 -3
BITMAP
042200
85ff80
482200
288800
11ff80
330800
4dff00
890800
19ff00
190800
29ff80
280000
49ff00
884100
082600
101800
506600
238180
ENDCHAR
STARTCHAR 19-46
ENCODING 13134
SWIDTH 960 0
DWIDTH 18 0
BBX 18 18 0 -3
BITMAP
001000
001000
fdff80
111080
112080
202200
204400
7c7f80
64c400
a54400
a67f00
244400
244400
247f00
3c4400
004400
007f80
000000
ENDCHAR
STARTCHAR 19-47
ENCODING 13135
SWIDTH 960 0
DWIDTH 18 0
BBX 18 18 0 -3
BITMAP
042200
19ff80
f02200
104800
10ff80
fd8800
12ff00
308800
38ff00
548800
54ff80
540000
51ff00
904100
902600
101800
106600
138180
ENDCHAR
STARTCHAR 19-48
ENCODING 13136
SWIDTH 960 0
DWIDTH 18 0
BBX 18 18 0 -3
BITMAP
220400
110400
088800
089000
ffff80
800080
8ffc80
080400
0ffc00
080400
0ffc00
080400
080400
0ffc00
022000
042080
182080
e01f80
ENDCHAR
STARTCHAR 19-49
ENCODING 13137
SWIDTH 960 0
DWIDTH 18 0
BBX 18 18 0 -3
BITMAP
020000
020000
07f800
081000
102000
6ffe00
084200
084200
0ffe00
084200
084200
084200
0ffe00
100200
100200
200200
400200
800600
ENDCHAR
STARTCHAR 19-50
ENCODING 13138
SWIDTH 960 0
DWIDTH 18 0
BBX 18 18 0 -3
BITMAP
080400
080400
080400
7e7f00
080400
080400
080400
ff7f80
140a00
140a00
562b00
552a80
552a80
554a80
944a00
249200
241200
4c2600
ENDCHAR
ENDFONT
